<svg width="64" height="64" viewBox="0 0 64 64" fill="none" xmlns="http://www.w3.org/2000/svg">
<g id="Image" clip-path="url(#clip0_3403_13500)">
<path id="Vector" d="M32.0007 64.0005C48.3647 64.0005 61.6304 50.7348 61.6304 34.3708C61.6304 18.0068 48.3647 4.74121 32.0007 4.74121C15.6367 4.74121 2.37109 18.0068 2.37109 34.3708C2.37109 50.7348 15.6367 64.0005 32.0007 64.0005Z" fill="#E7E9FF"/>
<path id="Vector_2" d="M1.77778 8.88856C2.75962 8.88856 3.55556 8.09263 3.55556 7.11079C3.55556 6.12895 2.75962 5.33301 1.77778 5.33301C0.795938 5.33301 0 6.12895 0 7.11079C0 8.09263 0.795938 8.88856 1.77778 8.88856Z" fill="#FF4D69"/>
<path id="Vector_3" d="M57.4809 3.55556C58.4627 3.55556 59.2587 2.75962 59.2587 1.77778C59.2587 0.795938 58.4627 0 57.4809 0C56.4991 0 55.7031 0.795938 55.7031 1.77778C55.7031 2.75962 56.4991 3.55556 57.4809 3.55556Z" fill="#00C99F"/>
<path id="Vector_4" d="M62.2231 58.6669C63.2049 58.6669 64.0009 57.8709 64.0009 56.8891C64.0009 55.9073 63.2049 55.1113 62.2231 55.1113C61.2413 55.1113 60.4453 55.9073 60.4453 56.8891C60.4453 57.8709 61.2413 58.6669 62.2231 58.6669Z" fill="#FFA100"/>
<path id="Vector_5" d="M1.77778 58.6669C2.75962 58.6669 3.55556 57.8709 3.55556 56.8891C3.55556 55.9073 2.75962 55.1113 1.77778 55.1113C0.795938 55.1113 0 55.9073 0 56.8891C0 57.8709 0.795938 58.6669 1.77778 58.6669Z" fill="#00C99F"/>
<path id="Vector_6" d="M55.7043 28.4445V52.1423C53.6065 54.9452 51.0228 57.3571 48.0717 59.2593H15.9295C12.9784 57.3571 10.3947 54.9452 8.29688 52.1423V22.5186L12.445 26.0741H53.3339C54.6435 26.0741 55.7043 27.1349 55.7043 28.4445Z" fill="#714EFF"/>
<path id="Vector_7" d="M49.7784 26.074H11.8524C9.89095 26.074 8.29688 24.4799 8.29688 22.5184C8.29688 20.557 9.89095 18.9629 11.8524 18.9629H47.408C48.7176 18.9629 49.7784 20.0236 49.7784 21.3333V26.074Z" fill="#6947E2"/>
<path id="Vector_8" d="M56.8894 39.111V46.2221C56.8894 46.8739 56.3561 47.4073 55.7042 47.4073H48.0005C45.3812 47.4073 43.2598 45.2858 43.2598 42.6665C43.2598 40.0473 45.3812 37.9258 48.0005 37.9258H55.7042C56.3561 37.9258 56.8894 38.4591 56.8894 39.111Z" fill="#6947E2"/>
<path id="Vector_9" d="M47.4067 44.4442C48.3885 44.4442 49.1845 43.6483 49.1845 42.6664C49.1845 41.6846 48.3885 40.8887 47.4067 40.8887C46.4248 40.8887 45.6289 41.6846 45.6289 42.6664C45.6289 43.6483 46.4248 44.4442 47.4067 44.4442Z" fill="white"/>
<path id="Vector_10" d="M21.9265 43.2595C21.9265 45.6595 18.7443 46.5425 17.5117 44.4447H8.29688V42.0743H17.5117C18.7502 39.9706 21.9265 40.8595 21.9265 43.2595Z" fill="#988FFF"/>
<path id="Vector_11" d="M26.6672 33.1853C26.6672 35.5853 23.485 36.4683 22.2524 34.3705H18.4065C18.0213 34.3705 17.6658 34.5542 17.4406 34.8683L15.8939 37.0312C15.2302 37.9616 14.1458 38.5186 13.0021 38.5186H8.29688V36.1483H13.0021C13.3872 36.1483 13.7428 35.9646 13.968 35.6505L15.5147 33.4875C16.1784 32.5571 17.2628 32.0001 18.4065 32.0001H22.2524C23.4909 29.8964 26.6672 30.7853 26.6672 33.1853Z" fill="#988FFF"/>
<path id="Vector_12" d="M26.6672 53.3333C26.6672 55.7333 23.485 56.6163 22.2524 54.5185H18.4065C17.2628 54.5185 16.1784 53.9615 15.5147 53.0311L13.968 50.8681C13.7428 50.5541 13.3872 50.3704 13.0021 50.3704H8.29688V48H13.0021C14.1458 48 15.2302 48.557 15.8939 49.4874L17.4406 51.6504C17.6658 51.9644 18.0213 52.1481 18.4065 52.1481H22.2524C23.4909 50.0444 26.6672 50.9333 26.6672 53.3333Z" fill="#988FFF"/>
<path id="Vector_13" d="M37.925 26.0742V28.1483C37.925 29.0787 37.4806 29.9616 36.7399 30.5187L33.4213 33.0076C33.2732 33.1201 33.1843 33.2979 33.1843 33.4816V36.4742C35.288 37.7127 34.3991 40.889 31.9991 40.889C29.5991 40.889 28.7162 37.7068 30.8139 36.4742V33.4816C30.8139 32.5513 31.2584 31.6683 31.9991 31.1113L35.3176 28.6224C35.4658 28.5098 35.5547 28.332 35.5547 28.1483V26.0742H37.925Z" fill="#988FFF"/>
<path id="Vector_14" d="M39.7029 48.2664V51.259C39.7029 52.1893 39.2585 53.0723 38.5177 53.6293L35.1992 56.1182C35.0511 56.2308 34.9622 56.4086 34.9622 56.5923V59.259H32.5918V56.5923C32.5918 55.6619 33.0362 54.779 33.777 54.2219L37.0955 51.733C37.2436 51.6205 37.3325 51.4427 37.3325 51.259V48.2664C35.2288 47.0279 36.1177 43.8516 38.5177 43.8516C40.9177 43.8516 41.8007 47.0338 39.7029 48.2664Z" fill="#988FFF"/>
<path id="Vector_15" d="M46.8145 50.9625H44.4442C44.1182 50.9625 43.8516 50.6959 43.8516 50.3699C43.8516 50.1981 43.9819 49.7773 44.4442 49.7773H46.8145C47.1405 49.7773 47.4071 50.044 47.4071 50.3699C47.4071 50.5418 47.2767 50.9625 46.8145 50.9625Z" fill="white"/>
<g id="Group">
<path id="Vector_16" d="M17.185 10.6665H15.9998V7.11097C15.9998 6.45911 15.4665 5.92578 14.8146 5.92578C14.1628 5.92578 13.6295 6.45911 13.6295 7.11097V10.6665H12.4443C11.4546 10.6665 10.8976 11.8162 11.5198 12.5924L13.8902 15.5554C14.3643 16.148 15.265 16.148 15.7391 15.5554L18.1095 12.5924C18.7317 11.8162 18.1746 10.6665 17.185 10.6665Z" fill="#D4D1FB"/>
<path id="Vector_17" d="M51.5561 10.6665H50.3709V7.11097C50.3709 6.45911 49.8376 5.92578 49.1857 5.92578C48.5339 5.92578 48.0006 6.45911 48.0006 7.11097V10.6665H46.8154C45.8257 10.6665 45.2687 11.8162 45.8909 12.5924L48.2613 15.5554C48.7354 16.148 49.6361 16.148 50.1102 15.5554L52.4806 12.5924C53.1028 11.8162 52.5457 10.6665 51.5561 10.6665Z" fill="#D4D1FB"/>
</g>
<path id="Vector_18" d="M49.1844 50.9625C49.5117 50.9625 49.777 50.6972 49.777 50.3699C49.777 50.0427 49.5117 49.7773 49.1844 49.7773C48.8571 49.7773 48.5918 50.0427 48.5918 50.3699C48.5918 50.6972 48.8571 50.9625 49.1844 50.9625Z" fill="white"/>
<path id="Vector_19" d="M51.5555 50.9625C51.8828 50.9625 52.1481 50.6972 52.1481 50.3699C52.1481 50.0427 51.8828 49.7773 51.5555 49.7773C51.2282 49.7773 50.9629 50.0427 50.9629 50.3699C50.9629 50.6972 51.2282 50.9625 51.5555 50.9625Z" fill="white"/>
<path id="Vector_20" d="M32.5 25.873C37.7467 25.873 42 21.3959 42 15.873C42 10.3502 37.7467 5.87305 32.5 5.87305C27.2533 5.87305 23 10.3502 23 15.873C23 21.3959 27.2533 25.873 32.5 25.873Z" fill="#FFA100"/>
<path id="Vector_21" d="M30.9454 18.522L28.3758 16.122C27.8747 15.654 27.8747 14.892 28.3758 14.424C28.8769 13.956 29.6927 13.956 30.1938 14.424L31.8576 15.978L34.8062 13.224C35.3073 12.756 36.1231 12.756 36.6242 13.224C37.1253 13.692 37.1253 14.454 36.6242 14.922L32.7698 18.522C32.2687 18.99 31.4529 18.99 30.9518 18.522H30.9454Z" fill="white"/>
</g>
<defs>
<clipPath id="clip0_3403_13500">
<rect width="64" height="64" fill="white"/>
</clipPath>
</defs>
</svg>
