<svg width="64" height="64" viewBox="0 0 64 64" fill="none" xmlns="http://www.w3.org/2000/svg">
<g id="Image" clip-path="url(#clip0_3403_13064)">
<path id="Vector" d="M32.0007 64.0005C48.3647 64.0005 61.6304 50.7348 61.6304 34.3708C61.6304 18.0068 48.3647 4.74121 32.0007 4.74121C15.6367 4.74121 2.37109 18.0068 2.37109 34.3708C2.37109 50.7348 15.6367 64.0005 32.0007 64.0005Z" fill="#E7E9FF"/>
<path id="Vector_2" d="M4.74067 9.48134C5.72251 9.48134 6.51845 8.6854 6.51845 7.70356C6.51845 6.72172 5.72251 5.92578 4.74067 5.92578C3.75883 5.92578 2.96289 6.72172 2.96289 7.70356C2.96289 8.6854 3.75883 9.48134 4.74067 9.48134Z" fill="#FF4D69"/>
<path id="Vector_3" d="M59.2602 3.55556C60.242 3.55556 61.038 2.75962 61.038 1.77778C61.038 0.795938 60.242 0 59.2602 0C58.2784 0 57.4824 0.795938 57.4824 1.77778C57.4824 2.75962 58.2784 3.55556 59.2602 3.55556Z" fill="#00C99F"/>
<path id="Vector_4" d="M62.2231 61.037C63.2049 61.037 64.0009 60.2411 64.0009 59.2592C64.0009 58.2774 63.2049 57.4814 62.2231 57.4814C61.2413 57.4814 60.4453 58.2774 60.4453 59.2592C60.4453 60.2411 61.2413 61.037 62.2231 61.037Z" fill="#FFA100"/>
<path id="Vector_5" d="M1.77778 59.8515C2.75962 59.8515 3.55556 59.0555 3.55556 58.0737C3.55556 57.0918 2.75962 56.2959 1.77778 56.2959C0.795938 56.2959 0 57.0918 0 58.0737C0 59.0555 0.795938 59.8515 1.77778 59.8515Z" fill="#00C99F"/>
<path id="Vector_6" d="M54.2527 7.60271C52.4867 8.78197 52.0245 10.2042 51.5149 11.4783C51.3193 11.976 50.6082 11.976 50.4126 11.4783C49.903 10.2042 49.4408 8.7879 47.6749 7.60271C47.3193 7.37752 47.3193 6.85012 47.6749 6.61901C49.4408 5.43975 49.903 4.01752 50.4126 2.74345C50.6082 2.24567 51.3193 2.24567 51.5149 2.74345C52.0245 4.01752 52.4867 5.43382 54.2527 6.61901C54.6082 6.84419 54.6082 7.3716 54.2527 7.60271Z" fill="#FFA100"/>
<path id="Vector_7" d="M16.3269 25.9738C14.5609 27.1531 14.0987 28.5753 13.5891 29.8494C13.3935 30.3471 12.6824 30.3471 12.4869 29.8494C11.9772 28.5753 11.515 27.159 9.74909 25.9738C9.39353 25.7486 9.39353 25.2212 9.74909 24.9901C11.515 23.8108 11.9772 22.3886 12.4869 21.1145C12.6824 20.6168 13.3935 20.6168 13.5891 21.1145C14.0987 22.3886 14.5609 23.8049 16.3269 24.9901C16.6824 25.2153 16.6824 25.7427 16.3269 25.9738Z" fill="#FFA100"/>
<path id="Vector_8" d="M31.9996 32.0001C39.8543 32.0001 46.2218 25.6326 46.2218 17.7779C46.2218 9.92317 39.8543 3.55566 31.9996 3.55566C24.1448 3.55566 17.7773 9.92317 17.7773 17.7779C17.7773 25.6326 24.1448 32.0001 31.9996 32.0001Z" fill="#FFA100"/>
<path id="Vector_9" d="M31.9995 29.0371C38.2178 29.0371 43.2588 23.9961 43.2588 17.7778C43.2588 11.5595 38.2178 6.51855 31.9995 6.51855C25.7812 6.51855 20.7402 11.5595 20.7402 17.7778C20.7402 23.9961 25.7812 29.0371 31.9995 29.0371Z" fill="#6947E2" fill-opacity="0.2"/>
<path id="Vector_10" d="M39.7043 13.6301V21.9264C39.7043 22.1516 39.5798 22.359 39.3784 22.4538C31.6095 26.3353 32.1961 26.0745 32.0006 26.0745C31.805 26.0745 32.368 26.3294 24.6228 22.4538C24.4213 22.359 24.2969 22.1516 24.2969 21.9264V13.6301C24.2969 13.4049 24.4213 13.1975 24.6228 13.1027L31.7339 9.54714C31.8998 9.45825 32.1013 9.45825 32.2672 9.54714L39.3784 13.1027C39.5798 13.1975 39.7043 13.4049 39.7043 13.6301Z" fill="#6947E2"/>
<g id="Group">
<path id="Vector_11" d="M28.4454 15.4072C28.1195 15.4072 27.8528 15.6739 27.8528 15.9998V17.5998L26.5669 15.6739C26.2409 15.188 25.4824 15.4191 25.4824 15.9998V19.5554C25.4824 19.8813 25.7491 20.148 26.075 20.148C26.4009 20.148 26.6676 19.8813 26.6676 19.5554V17.9554L27.9535 19.8813C28.2795 20.3672 29.038 20.1361 29.038 19.5554V15.9998C29.038 15.6739 28.7713 15.4072 28.4454 15.4072Z" fill="white"/>
<path id="Vector_12" d="M33.1856 15.4072H30.8152C30.4893 15.4072 30.2227 15.6739 30.2227 15.9998V19.5554C30.2227 19.8813 30.4893 20.148 30.8152 20.148C31.1412 20.148 31.4078 19.8813 31.4078 19.5554V18.9628H32.593C32.919 18.9628 33.1856 18.6961 33.1856 18.3702C33.1856 18.1983 33.0552 17.7776 32.593 17.7776H31.4078V16.5924H33.1856C33.5115 16.5924 33.7782 16.3257 33.7782 15.9998C33.7782 15.6739 33.5115 15.4072 33.1856 15.4072Z" fill="white"/>
<path id="Vector_13" d="M37.9278 15.4072H35.5574C35.2315 15.4072 34.9648 15.6739 34.9648 15.9998C34.9648 16.3257 35.2315 16.5924 35.5574 16.5924H36.15V19.5554C36.15 19.8813 36.4167 20.148 36.7426 20.148C37.0685 20.148 37.3352 19.8813 37.3352 19.5554V16.5924H37.9278C38.2537 16.5924 38.5204 16.3257 38.5204 15.9998C38.5204 15.6739 38.2537 15.4072 37.9278 15.4072Z" fill="white"/>
</g>
<path id="Vector_14" d="M55.7039 36.1484H8.29651C7.64195 36.1484 7.11133 36.6791 7.11133 37.3336V40.8892C7.11133 41.5437 7.64195 42.0744 8.29651 42.0744H55.7039C56.3585 42.0744 56.8891 41.5437 56.8891 40.8892V37.3336C56.8891 36.6791 56.3585 36.1484 55.7039 36.1484Z" fill="#6947E2"/>
<path id="Vector_15" d="M53.3327 42.0742L50.7134 57.3394C39.8156 66.2224 24.1831 66.2224 13.2853 57.3394L10.666 42.0742H53.3327Z" fill="#6947E2" fill-opacity="0.2"/>
<path id="Vector_16" d="M22.518 59.8521C21.5343 59.8521 20.7402 59.058 20.7402 58.0743V47.4077C20.7402 46.424 21.5343 45.6299 22.518 45.6299C23.5017 45.6299 24.2958 46.424 24.2958 47.4077V58.0743C24.2958 59.058 23.5017 59.8521 22.518 59.8521Z" fill="#6947E2"/>
<path id="Vector_17" d="M32.0004 59.8521C31.0167 59.8521 30.2227 59.058 30.2227 58.0743V47.4077C30.2227 46.424 31.0167 45.6299 32.0004 45.6299C32.9841 45.6299 33.7782 46.424 33.7782 47.4077V58.0743C33.7782 59.058 32.9841 59.8521 32.0004 59.8521Z" fill="#6947E2"/>
<path id="Vector_18" d="M41.4809 59.8521C40.4972 59.8521 39.7031 59.058 39.7031 58.0743V47.4077C39.7031 46.424 40.4972 45.6299 41.4809 45.6299C42.4646 45.6299 43.2587 46.424 43.2587 47.4077V58.0743C43.2587 59.058 42.4646 59.8521 41.4809 59.8521Z" fill="#6947E2"/>
<path id="Vector_19" d="M30.0922 40.5455L10.6315 54.8863C9.80186 54.027 9.03149 53.1203 8.31445 52.1722L27.9826 37.6774C28.7767 37.0966 29.8848 37.2685 30.4715 38.0566C31.0522 38.8448 30.8804 39.9589 30.0922 40.5455Z" fill="#988FFF"/>
<path id="Vector_20" d="M55.685 52.1722C54.968 53.1203 54.1976 54.027 53.368 54.8863L33.9072 40.5455C33.1191 39.9589 32.9472 38.8448 33.528 38.0566C34.1146 37.2685 35.2287 37.0966 36.0168 37.6774L55.685 52.1722Z" fill="#988FFF"/>
</g>
<defs>
<clipPath id="clip0_3403_13064">
<rect width="64" height="64" fill="white"/>
</clipPath>
</defs>
</svg>
