<svg width="64" height="64" viewBox="0 0 64 64" fill="none" xmlns="http://www.w3.org/2000/svg">
<g id="Image" clip-path="url(#clip0_3403_13339)">
<path id="Vector" d="M32.0007 64.0005C48.3647 64.0005 61.6304 50.7348 61.6304 34.3708C61.6304 18.0068 48.3647 4.74121 32.0007 4.74121C15.6367 4.74121 2.37109 18.0068 2.37109 34.3708C2.37109 50.7348 15.6367 64.0005 32.0007 64.0005Z" fill="#E7E9FF"/>
<path id="Vector_2" d="M5.92622 3.55556C6.90805 3.55556 7.70399 2.75962 7.70399 1.77778C7.70399 0.795938 6.90805 0 5.92622 0C4.94438 0 4.14844 0.795938 4.14844 1.77778C4.14844 2.75962 4.94438 3.55556 5.92622 3.55556Z" fill="#FF4D69"/>
<path id="Vector_3" d="M62.2231 9.48134C63.2049 9.48134 64.0009 8.6854 64.0009 7.70356C64.0009 6.72172 63.2049 5.92578 62.2231 5.92578C61.2413 5.92578 60.4453 6.72172 60.4453 7.70356C60.4453 8.6854 61.2413 9.48134 62.2231 9.48134Z" fill="#00C99F"/>
<path id="Vector_4" d="M58.0747 63.9999C59.0565 63.9999 59.8524 63.204 59.8524 62.2221C59.8524 61.2403 59.0565 60.4443 58.0747 60.4443C57.0928 60.4443 56.2969 61.2403 56.2969 62.2221C56.2969 63.204 57.0928 63.9999 58.0747 63.9999Z" fill="#FFA100"/>
<path id="Vector_5" d="M1.77778 60.4442C2.75962 60.4442 3.55556 59.6483 3.55556 58.6664C3.55556 57.6846 2.75962 56.8887 1.77778 56.8887C0.795938 56.8887 0 57.6846 0 58.6664C0 59.6483 0.795938 60.4442 1.77778 60.4442Z" fill="#00C99F"/>
<path id="Vector_6" d="M31.5929 26.6662C38.4658 26.6662 44.0373 21.0947 44.0373 14.2218C44.0373 7.34891 38.4658 1.77734 31.5929 1.77734C24.72 1.77734 19.1484 7.34891 19.1484 14.2218C19.1484 21.0947 24.72 26.6662 31.5929 26.6662Z" fill="#FFA100"/>
<path id="Vector_7" d="M37.9206 13.5827L32.5873 5.28636C32.1251 4.5634 31.0584 4.5634 30.5962 5.28636L25.2628 13.5827C25.0139 13.9738 25.0139 14.4715 25.2628 14.8627L30.5962 23.159C31.0584 23.8819 32.1251 23.8819 32.5873 23.159L37.9206 14.8627C38.1695 14.4715 38.1695 13.9738 37.9206 13.5827ZM31.5917 8.11896L35.0169 13.4523L31.5917 14.7382L28.1665 13.4523L31.5917 8.11896ZM31.5917 20.3264L28.9962 16.2908L31.171 17.1086C31.4317 17.2034 31.728 17.2093 32.0006 17.1086L34.1754 16.2908L31.5799 20.3264H31.5917Z" fill="white"/>
<path id="Vector_8" d="M58.0739 33.1854V48.4447C54.9036 54.3173 49.8073 58.9928 43.6265 61.6299H20.3732C14.1924 58.9928 9.09615 54.3173 5.92578 48.4447V33.1854C5.92578 31.224 7.51986 29.6299 9.48134 29.6299H54.5184C56.4799 29.6299 58.0739 31.224 58.0739 33.1854Z" fill="#6947E2"/>
<path id="Vector_9" d="M54.5195 36.1485V53.63C53.1091 55.2774 51.515 56.7707 49.7787 58.0744H14.2232C12.4869 56.7707 10.8928 55.2774 9.48242 53.63V36.1485C11.118 36.1485 12.4454 34.8211 12.4454 33.1855H51.5565C51.5565 34.8211 52.8839 36.1485 54.5195 36.1485Z" fill="#DACEFF"/>
<path id="Vector_10" d="M32.5 56C37.7467 56 42 51.5228 42 46C42 40.4772 37.7467 36 32.5 36C27.2533 36 23 40.4772 23 46C23 51.5228 27.2533 56 32.5 56Z" fill="#A8A0FF"/>
<path id="Vector_11" d="M30.717 49.3916L28.3467 47.0212C27.8844 46.559 27.8844 45.8064 28.3467 45.3442C28.8089 44.8819 29.5615 44.8819 30.0237 45.3442L31.5585 46.879L34.8711 43.5664C35.3333 43.1042 36.0859 43.1042 36.5482 43.5664C37.0104 44.0286 37.0104 44.7812 36.5482 45.2434L32.4 49.3916C31.9378 49.8538 31.1852 49.8538 30.723 49.3916H30.717Z" fill="white"/>
<path id="Vector_12" d="M20.5552 46.8147H16.9996C16.3478 46.8147 15.8145 46.2814 15.8145 45.6295C15.8145 44.9777 16.3478 44.4443 16.9996 44.4443H20.5552C21.207 44.4443 21.7404 44.9777 21.7404 45.6295C21.7404 46.2814 21.207 46.8147 20.5552 46.8147Z" fill="#A8A0FF"/>
<path id="Vector_13" d="M49.0005 46.8147H45.445C44.7931 46.8147 44.2598 46.2814 44.2598 45.6295C44.2598 44.9777 44.7931 44.4443 45.445 44.4443H49.0005C49.6524 44.4443 50.1857 44.9777 50.1857 45.6295C50.1857 46.2814 49.6524 46.8147 49.0005 46.8147Z" fill="#A8A0FF"/>
<path id="Vector_14" d="M15.5922 19.5554H14.4071V16.5924C14.4071 15.9406 13.8737 15.4072 13.2219 15.4072C12.57 15.4072 12.0367 15.9406 12.0367 16.5924V19.5554H10.8515C9.90928 19.5554 9.3404 20.6102 9.8678 21.3983L12.2382 24.9539C12.7063 25.6591 13.7434 25.6591 14.2115 24.9539L16.5819 21.3983C17.1034 20.6161 16.5463 19.5554 15.5982 19.5554H15.5922Z" fill="#BCA5ED"/>
<path id="Vector_15" d="M52.1489 19.5554H50.9637V16.5924C50.9637 15.9406 50.4304 15.4072 49.7785 15.4072C49.1267 15.4072 48.5933 15.9406 48.5933 16.5924V19.5554H47.4081C46.4659 19.5554 45.897 20.6102 46.4244 21.3983L48.7948 24.9539C49.263 25.6591 50.3 25.6591 50.7681 24.9539L53.1385 21.3983C53.66 20.6161 53.103 19.5554 52.1548 19.5554H52.1489Z" fill="#BCA5ED"/>
</g>
<defs>
<clipPath id="clip0_3403_13339">
<rect width="64" height="64" fill="white"/>
</clipPath>
</defs>
</svg>
