<svg width="64" height="64" viewBox="0 0 64 64" fill="none" xmlns="http://www.w3.org/2000/svg">
<g id="Frame" clip-path="url(#clip0_3413_15730)">
<path id="Vector" d="M34.3699 64.0005C50.7339 64.0005 63.9995 50.7348 63.9995 34.3708C63.9995 18.0068 50.7339 4.74121 34.3699 4.74121C18.0059 4.74121 4.74023 18.0068 4.74023 34.3708C4.74023 50.7348 18.0059 64.0005 34.3699 64.0005Z" fill="#E7EFFF"/>
<path id="Vector_2" d="M34.3699 64.0005C50.7339 64.0005 63.9995 50.7348 63.9995 34.3708C63.9995 18.0068 50.7339 4.74121 34.3699 4.74121C18.0059 4.74121 4.74023 18.0068 4.74023 34.3708C4.74023 50.7348 18.0059 64.0005 34.3699 64.0005Z" fill="#E7E9FF"/>
<path id="Vector_3" d="M5.92622 3.55556C6.90806 3.55556 7.70399 2.75962 7.70399 1.77778C7.70399 0.795938 6.90806 0 5.92622 0C4.94438 0 4.14844 0.795938 4.14844 1.77778C4.14844 2.75962 4.94438 3.55556 5.92622 3.55556Z" fill="#00C99F"/>
<path id="Vector_4" d="M62.2231 7.70399C63.2049 7.70399 64.0009 6.90806 64.0009 5.92622C64.0009 4.94438 63.2049 4.14844 62.2231 4.14844C61.2413 4.14844 60.4453 4.94438 60.4453 5.92622C60.4453 6.90806 61.2413 7.70399 62.2231 7.70399Z" fill="#FFA100"/>
<path id="Vector_5" d="M56.8891 63.9999C57.8709 63.9999 58.6669 63.204 58.6669 62.2221C58.6669 61.2403 57.8709 60.4443 56.8891 60.4443C55.9073 60.4443 55.1113 61.2403 55.1113 62.2221C55.1113 63.204 55.9073 63.9999 56.8891 63.9999Z" fill="#00C99F"/>
<path id="Vector_6" d="M1.77778 59.8515C2.75962 59.8515 3.55556 59.0555 3.55556 58.0737C3.55556 57.0918 2.75962 56.2959 1.77778 56.2959C0.795938 56.2959 0 57.0918 0 58.0737C0 59.0555 0.795938 59.8515 1.77778 59.8515Z" fill="#FF4D69"/>
<path id="Vector_7" d="M50.9621 8.88867H7.11024C5.14656 8.88867 3.55469 10.4805 3.55469 12.4442V47.9998C3.55469 49.9635 5.14656 51.5553 7.11024 51.5553H50.9621C52.9258 51.5553 54.5177 49.9635 54.5177 47.9998V12.4442C54.5177 10.4805 52.9258 8.88867 50.9621 8.88867Z" fill="#988FFF"/>
<path id="Vector_8" d="M11.2592 49.1849V49.7775C11.2592 51.0871 10.1984 52.1479 8.88882 52.1479H5.33326C4.02363 52.1479 2.96289 51.0871 2.96289 49.7775V46.2219C2.96289 44.9123 4.02363 43.8516 5.33326 43.8516H5.92585V48.5923C5.92585 48.9182 6.19252 49.1849 6.51845 49.1849H11.2592Z" fill="#A8A0FF"/>
<path id="Vector_9" d="M51.5554 11.2588H6.51837C6.19109 11.2588 5.92578 11.5241 5.92578 11.8514V48.5921C5.92578 48.9194 6.19109 49.1847 6.51837 49.1847H51.5554C51.8827 49.1847 52.148 48.9194 52.148 48.5921V11.8514C52.148 11.5241 51.8827 11.2588 51.5554 11.2588Z" fill="white"/>
<path id="Vector_10" d="M52.148 46.2225V32.5929C52.148 32.5929 47.4073 26.667 37.9258 26.667C21.9258 26.667 23.7036 37.9263 5.92578 37.9263V46.2225C15.585 46.2225 42.5954 46.2225 52.148 46.2225Z" fill="#6947E2"/>
<path id="Vector_11" d="M6.51837 49.1848C6.19245 49.1848 5.92578 48.9182 5.92578 48.5922V36.7404C5.92578 36.7404 11.2591 30.8145 19.5554 30.8145C27.8517 30.8145 43.2591 39.7033 52.148 39.7033V49.1848C49.9495 49.1848 4.35541 49.1848 6.51837 49.1848Z" fill="#8260FC"/>
<path id="Vector_12" d="M14.2227 49.1853C14.2227 49.1853 21.3338 42.0742 30.8152 42.0742C40.2967 42.0742 44.4449 49.1853 44.4449 49.1853H14.2227Z" fill="#A8A0FF"/>
<path id="Vector_13" d="M46.8145 11.2589V10.6663C46.8145 9.35664 47.8752 8.2959 49.1848 8.2959H52.7404C54.05 8.2959 55.1107 9.35664 55.1107 10.6663V14.2218C55.1107 15.5315 54.05 16.5922 52.7404 16.5922H52.1478V11.8515C52.1478 11.5255 51.8811 11.2589 51.5552 11.2589H46.8145Z" fill="#A8A0FF"/>
<path id="Vector_14" d="M5.92585 16.5922H5.33326C4.02363 16.5922 2.96289 15.5315 2.96289 14.2218V10.6663C2.96289 9.35664 4.02363 8.2959 5.33326 8.2959H8.88882C10.1984 8.2959 11.2592 9.35664 11.2592 10.6663V11.2589H6.51845C6.19252 11.2589 5.92585 11.5255 5.92585 11.8515V16.5922Z" fill="#A8A0FF"/>
<path id="Vector_15" d="M22.5177 27.2591C25.7905 27.2591 28.4436 24.606 28.4436 21.3332C28.4436 18.0604 25.7905 15.4072 22.5177 15.4072C19.2449 15.4072 16.5918 18.0604 16.5918 21.3332C16.5918 24.606 19.2449 27.2591 22.5177 27.2591Z" fill="#FFA100"/>
<path id="Vector_16" d="M44.7702 9.9738C43.0043 11.1531 42.5421 12.5753 42.0324 13.8494C41.8369 14.3471 41.1258 14.3471 40.9302 13.8494C40.4206 12.5753 39.9584 11.159 38.1924 9.9738C37.8369 9.74862 37.8369 9.22121 38.1924 8.9901C39.9584 7.81084 40.4206 6.38862 40.9302 5.11454C41.1258 4.61677 41.8369 4.61677 42.0324 5.11454C42.5421 6.38862 43.0043 7.80491 44.7702 8.9901C45.1258 9.21529 45.1258 9.74269 44.7702 9.9738Z" fill="#FFA100"/>
<path id="Vector_17" d="M25.2155 52.047C23.4496 53.2263 22.9874 54.6485 22.4778 55.9226C22.2822 56.4204 21.5711 56.4204 21.3755 55.9226C20.8659 54.6485 20.4037 53.2322 18.6378 52.047C18.2822 51.8219 18.2822 51.2945 18.6378 51.0633C20.4037 49.8841 20.8659 48.4619 21.3755 47.1878C21.5711 46.69 22.2822 46.69 22.4778 47.1878C22.9874 48.4619 23.4496 49.8782 25.2155 51.0633C25.5711 51.2885 25.5711 51.8159 25.2155 52.047Z" fill="#FFA100"/>
<path id="Vector_18" d="M49.7776 59.8521C56.3232 59.8521 61.6295 54.5459 61.6295 48.0003C61.6295 41.4547 56.3232 36.1484 49.7776 36.1484C43.232 36.1484 37.9258 41.4547 37.9258 48.0003C37.9258 54.5459 43.232 59.8521 49.7776 59.8521Z" fill="#FFA100"/>
<path id="Vector_19" d="M55.5257 47.3775L50.785 39.6738C50.3227 38.9212 49.2264 38.9212 48.7642 39.6738L44.0235 47.3775C43.7864 47.7568 43.7864 48.2368 44.0235 48.622L48.7642 56.3257C49.2264 57.0783 50.3227 57.0783 50.785 56.3257L55.5257 48.622C55.7627 48.2427 55.7627 47.7627 55.5257 47.3775ZM49.7776 42.5538L52.5983 47.1405L49.7776 47.9464L46.9568 47.1405L49.7776 42.5538ZM49.7776 53.4397L47.5198 49.7716L49.4516 50.3227C49.8724 50.4412 49.9672 50.3642 52.0353 49.7716L49.7776 53.4397Z" fill="white"/>
</g>
<defs>
<clipPath id="clip0_3413_15730">
<rect width="64" height="64" fill="white"/>
</clipPath>
</defs>
</svg>
