<svg width="64" height="64" viewBox="0 0 64 64" fill="none" xmlns="http://www.w3.org/2000/svg">
<g id="Image" clip-path="url(#clip0_3403_13086)">
<path id="Vector" d="M29.6296 64.0005C45.9936 64.0005 59.2593 50.7348 59.2593 34.3708C59.2593 18.0068 45.9936 4.74121 29.6296 4.74121C13.2656 4.74121 0 18.0068 0 34.3708C0 50.7348 13.2656 64.0005 29.6296 64.0005Z" fill="#E7E9FF"/>
<path id="Vector_2" d="M23.7046 22.5185C29.9229 22.5185 34.9638 17.4776 34.9638 11.2593C34.9638 5.04094 29.9229 0 23.7046 0C17.4863 0 12.4453 5.04094 12.4453 11.2593C12.4453 17.4776 17.4863 22.5185 23.7046 22.5185Z" fill="#FFA100"/>
<path id="Vector_3" d="M28.8778 10.6607L24.7296 3.54956C24.2733 2.76734 23.1415 2.76734 22.6792 3.54956L18.5311 10.6607C18.3178 11.0281 18.3178 11.4844 18.5311 11.8577L22.6792 18.9688C23.1355 19.751 24.2674 19.751 24.7296 18.9688L28.8778 11.8577C29.0911 11.4903 29.0911 11.034 28.8778 10.6607ZM23.7044 6.50067L25.9089 10.2814L23.7044 10.6488L21.5 10.2814L23.7044 6.50067ZM23.7044 16.0177L21.7904 12.7347L23.5089 13.0192C23.7637 13.0607 23.7578 13.0429 25.6185 12.7347L23.7044 16.0177Z" fill="white"/>
<path id="Vector_4" d="M1.77778 3.55556C2.75962 3.55556 3.55556 2.75962 3.55556 1.77778C3.55556 0.795938 2.75962 0 1.77778 0C0.795938 0 0 0.795938 0 1.77778C0 2.75962 0.795938 3.55556 1.77778 3.55556Z" fill="#00C99F"/>
<path id="Vector_5" d="M59.852 10.6669C60.8338 10.6669 61.6298 9.87095 61.6298 8.88911C61.6298 7.90727 60.8338 7.11133 59.852 7.11133C58.8702 7.11133 58.0742 7.90727 58.0742 8.88911C58.0742 9.87095 58.8702 10.6669 59.852 10.6669Z" fill="#FFA100"/>
<path id="Vector_6" d="M54.518 61.037C55.4999 61.037 56.2958 60.2411 56.2958 59.2592C56.2958 58.2774 55.4999 57.4814 54.518 57.4814C53.5362 57.4814 52.7402 58.2774 52.7402 59.2592C52.7402 60.2411 53.5362 61.037 54.518 61.037Z" fill="#00C99F"/>
<path id="Vector_7" d="M2.36957 58.6669C3.35141 58.6669 4.14735 57.8709 4.14735 56.8891C4.14735 55.9073 3.35141 55.1113 2.36957 55.1113C1.38774 55.1113 0.591797 55.9073 0.591797 56.8891C0.591797 57.8709 1.38774 58.6669 2.36957 58.6669Z" fill="#FF4D69"/>
<path id="Vector_8" d="M17.185 59.2593C17.185 60.5749 17.2384 60.7645 16.948 61.1556C13.4576 59.4964 10.3406 57.1793 7.76282 54.3586L7.11097 49.7779C6.45911 49.7779 5.92578 49.2445 5.92578 48.5927V45.0371H14.8147V58.0741H15.9999C16.6517 58.0741 17.185 58.6075 17.185 59.2593Z" fill="#6947E2"/>
<path id="Vector_9" d="M14.815 50.3701V58.0738H11.8579C11.2416 57.6175 10.649 57.1316 10.0742 56.622V51.5553C10.0742 50.9035 10.6076 50.3701 11.2594 50.3701H14.815Z" fill="#8361FC"/>
<path id="Vector_10" d="M14.8145 45.6299H19.5552V48.0003C19.5552 49.3099 18.4945 50.3706 17.1848 50.3706H14.8145V45.6299Z" fill="#6947E2" fill-opacity="0.15"/>
<path id="Vector_11" d="M48 42.873C50.7614 42.873 53 40.1868 53 36.873C53 33.5593 50.7614 30.873 48 30.873C45.2386 30.873 43 33.5593 43 36.873C43 40.1868 45.2386 42.873 48 42.873Z" fill="#6947E2"/>
<path id="Vector_12" d="M9.48118 36.7405C9.48118 41.1316 4.87674 43.9464 1.01896 42.0916C0.135996 38.8145 -0.178078 35.4012 0.100441 31.9286C3.976 29.1375 9.48118 31.8871 9.48118 36.7405Z" fill="#6947E2"/>
<path id="Vector_13" d="M7.70276 24.2959H10.0731C10.725 24.2959 11.2583 24.8292 11.2583 25.4811V27.8515H6.51758V25.4811C6.51758 24.8292 7.05091 24.2959 7.70276 24.2959Z" fill="#6947E2"/>
<path id="Vector_14" d="M43.8513 21.333C43.8513 53.5582 43.7921 52.1063 43.8513 52.1478C37.635 47.8752 30.4232 45.2856 22.9091 44.6337L20.7402 44.4441V29.0367L22.9091 28.8471C30.4232 28.1952 37.641 25.6056 43.8513 21.333Z" fill="#6947E2" fill-opacity="0.15"/>
<path id="Vector_15" d="M7.11024 26.667H19.5547C20.5384 26.667 21.3325 27.4611 21.3325 28.4448V45.0374C21.3325 46.0211 20.5384 46.8151 19.5547 46.8151H7.11024C5.14876 46.8151 3.55469 45.2211 3.55469 43.2596V30.2225C3.55469 28.2611 5.14876 26.667 7.11024 26.667Z" fill="#8361FC"/>
<path id="Vector_16" d="M45.0364 56.2967C43.7268 56.2967 42.666 55.2359 42.666 53.9263V19.5559C42.666 18.2463 43.7268 17.1855 45.0364 17.1855C46.346 17.1855 47.4068 18.2463 47.4068 19.5559V53.9263C47.4068 55.2359 46.346 56.2967 45.0364 56.2967Z" fill="#8361FC"/>
<path id="Vector_17" d="M7.70276 35.5558C7.22276 35.5558 6.51758 35.1825 6.51758 34.3706V30.8151C6.51758 30.1632 7.05091 29.6299 7.70276 29.6299C8.18276 29.6299 8.88795 30.0032 8.88795 30.8151V34.3706C8.88795 35.0225 8.35462 35.5558 7.70276 35.5558Z" fill="#6947E2"/>
<path id="Vector_18" d="M12.445 35.5558C11.965 35.5558 11.2598 35.1825 11.2598 34.3706V30.8151C11.2598 30.1632 11.7931 29.6299 12.445 29.6299C12.925 29.6299 13.6301 30.0032 13.6301 30.8151V34.3706C13.6301 35.0225 13.0968 35.5558 12.445 35.5558Z" fill="#6947E2"/>
<path id="Vector_19" d="M17.1852 35.5558C16.7052 35.5558 16 35.1825 16 34.3706V30.8151C16 30.1632 16.5333 29.6299 17.1852 29.6299C17.6652 29.6299 18.3704 30.0032 18.3704 30.8151V34.3706C18.3704 35.0225 17.837 35.5558 17.1852 35.5558Z" fill="#6947E2"/>
<path id="Vector_20" d="M17.7768 40.8893H7.11017C6.78424 40.8893 6.51758 40.6226 6.51758 40.2967C6.51758 40.1248 6.64795 39.7041 7.11017 39.7041H17.7768C18.1028 39.7041 18.3694 39.9708 18.3694 40.2967C18.3694 40.4685 18.2391 40.8893 17.7768 40.8893Z" fill="#544E6B"/>
<path id="Vector_21" d="M8.88947 42.0741C8.71762 42.0741 8.29688 41.9437 8.29688 41.4815V39.1111C8.29688 38.7852 8.56354 38.5186 8.88947 38.5186C9.06132 38.5186 9.48206 38.6489 9.48206 39.1111V41.4815C9.48206 41.8074 9.21539 42.0741 8.88947 42.0741Z" fill="#6947E2"/>
<path id="Vector_22" d="M62.8154 37.926H57.4821C56.8302 37.926 56.2969 37.3927 56.2969 36.7408C56.2969 36.089 56.8302 35.5557 57.4821 35.5557H62.8154C63.4672 35.5557 64.0006 36.089 64.0006 36.7408C64.0006 37.3927 63.4672 37.926 62.8154 37.926Z" fill="#FFA100"/>
<path id="Vector_23" d="M57.4822 30.8153C56.3918 30.8153 55.8703 29.4464 56.7118 28.7293L60.8599 25.1738C61.3577 24.7471 62.1044 24.8064 62.5311 25.3042C62.9577 25.8019 62.8985 26.5486 62.4007 26.9753L58.2525 30.5308C58.0274 30.7205 57.7548 30.8153 57.4822 30.8153Z" fill="#FFA100"/>
<path id="Vector_24" d="M61.6289 48.5922C61.3563 48.5922 61.0837 48.4973 60.8586 48.3077L56.7104 44.7521C56.2126 44.3255 56.1534 43.5788 56.58 43.081C57.0067 42.5833 57.7534 42.5299 58.2512 42.9507L62.3993 46.5062C63.2408 47.2233 62.7193 48.5922 61.6289 48.5922Z" fill="#FFA100"/>
<path id="Vector_25" d="M33.7771 21.9263C37.7045 21.9263 40.8882 18.7426 40.8882 14.8152C40.8882 10.8879 37.7045 7.7041 33.7771 7.7041C29.8498 7.7041 26.666 10.8879 26.666 14.8152C26.666 18.7426 29.8498 21.9263 33.7771 21.9263Z" fill="#00C99F"/>
<path id="Vector_26" d="M31.4082 17.778C30.8867 17.778 30.6141 17.1439 30.9874 16.7647L35.7282 12.0239C35.9593 11.7928 36.3326 11.7928 36.5637 12.0239C36.7948 12.255 36.7948 12.6284 36.5637 12.8595L31.823 17.6002C31.7045 17.7187 31.5563 17.7721 31.4023 17.7721L31.4082 17.778Z" fill="white"/>
<path id="Vector_27" d="M31.4078 13.6292C32.0624 13.6292 32.593 13.0985 32.593 12.444C32.593 11.7894 32.0624 11.2588 31.4078 11.2588C30.7533 11.2588 30.2227 11.7894 30.2227 12.444C30.2227 13.0985 30.7533 13.6292 31.4078 13.6292Z" fill="white"/>
<path id="Vector_28" d="M36.1481 18.3704C36.8026 18.3704 37.3333 17.8397 37.3333 17.1852C37.3333 16.5306 36.8026 16 36.1481 16C35.4935 16 34.9629 16.5306 34.9629 17.1852C34.9629 17.8397 35.4935 18.3704 36.1481 18.3704Z" fill="white"/>
</g>
<defs>
<clipPath id="clip0_3403_13086">
<rect width="64" height="64" fill="white"/>
</clipPath>
</defs>
</svg>
