<svg width="143" height="34" viewBox="0 0 143 34" fill="none" xmlns="http://www.w3.org/2000/svg">
<g id="logo 1" clip-path="url(#clip0_3413_15107)">
<g id="Groupe 54">
<g id="Groupe 52">
<g id="Groupe 49">
<path id="Trac&#195;&#169; 49" d="M21.3769 0L16.7657 6.98475L18.0786 7.50641L21.378 2.52069L24.6815 7.51105L25.9996 6.98475L21.3769 0ZM0 32.3427H5.32934L5.54747 30.9576H2.5797L5.66508 26.2812L5.67441 26.2353L6.29148 22.8234L0 32.3427ZM36.4681 22.8192L37.0899 26.2353L37.0992 26.2951L40.1783 30.9571H37.2132L37.4266 32.3422H42.7632L36.4681 22.8192Z" fill="white"/>
<path id="Trac&#195;&#169; 50" d="M32.3739 32.3292V32.3431H10.3887V32.3245L11.0275 30.958H31.7268L32.3739 32.3292Z" fill="white"/>
</g>
<g id="Groupe 51">
<g id="Groupe 50">
<path id="Trac&#195;&#169; 51" d="M36.2781 33.9996H34.9828L34.6533 32.3423L34.5559 31.8392H33.7678V30.1634H32.8674L31.898 28.6401L32.2689 27.1076L31.2203 20.4456L30.2783 17.8883L27.1971 17.196L27.1784 17.2424L24.45 19.029V19.4414L24.6728 19.6631V20.8543C25.4412 21.1892 26.0929 21.7425 26.5462 22.4448C26.9995 23.147 27.234 23.9669 27.2204 24.8014L27.3686 26.071C27.3686 26.071 28.1898 29.0902 28.5986 30.9598H23.9495C24.0088 30.8322 24.0888 30.7151 24.1863 30.6134C24.437 30.3319 24.5932 29.9795 24.6332 29.6055C24.6731 29.2315 24.5948 28.8544 24.4091 28.5267C24.0381 27.968 22.5392 26.071 22.5392 26.071H22.0097V26.8854H20.7481V26.0684H20.2233C20.2233 26.0684 18.7243 27.9654 18.3487 28.5242C18.1638 28.8523 18.0864 29.2297 18.1271 29.6037C18.1679 29.9777 18.3249 30.3297 18.5762 30.6108C18.6762 30.7115 18.7579 30.8287 18.8176 30.9572H14.1592C14.5737 29.0876 15.3934 26.0684 15.3934 26.0684L15.5421 24.7988C15.5279 23.9649 15.7616 23.1454 16.214 22.4431C16.6663 21.7409 17.317 21.1873 18.0845 20.8518V19.661L18.3119 19.4393V19.027L15.5789 17.2403L15.5654 17.1939L12.4842 17.8862L11.5376 20.4394L10.4889 27.1071L10.8599 28.635L9.89047 30.1629H8.99465V31.8392H8.20608L8.10815 32.3423L7.79262 33.9949H6.48438L6.73929 32.3423L6.95275 30.9572L7.0828 30.1263L7.04601 26.4792L7.61231 23.3446L7.90453 21.71L7.85272 20.459L7.8294 19.9234L8.58119 19.3564L9.66405 18.544L9.98891 17.2326L10.4158 15.4923L9.92829 15.1598V13.8165L8.31695 11.319L10.5257 10.2757L11.5376 7.70909L14.8323 8.93697L15.825 8.40138L16.1405 8.23076L17.3006 8.68799L18.6881 9.23749L21.3797 7.70961L24.0739 9.23749L25.4567 8.69263L26.6215 8.2287L26.9323 8.39468L27.9302 8.9349L31.2197 7.70703L32.2358 10.2736L34.4398 11.3169L32.8337 13.8144V15.1578L32.342 15.4903L32.772 17.2305L33.0969 18.546L34.1849 19.3631L34.932 19.9265L34.9087 20.4574L34.8569 21.7131L35.1497 23.3477L35.7154 26.4823L35.6828 30.1294L35.8128 30.9603L36.0263 32.3454L36.2781 33.9996Z" fill="white"/>
<path id="Trac&#195;&#169; 52" d="M29.3892 15.4922L27.7001 15.6767L27.4773 16.3469L29.9042 16.8917L29.3892 15.4922ZM15.056 15.6767L13.3716 15.4922L12.8535 16.8907L15.2804 16.3458L15.056 15.6767ZM15.056 15.6767L13.3716 15.4922L12.8535 16.8907L15.2804 16.3458L15.056 15.6767ZM29.3892 15.4922L27.7001 15.6767L27.4773 16.3469L29.9042 16.8917L29.3892 15.4922ZM29.3892 15.4922L27.7001 15.6767L27.4773 16.3469L29.9042 16.8917L29.3892 15.4922ZM15.056 15.6767L13.3716 15.4922L12.8535 16.8907L15.2804 16.3458L15.056 15.6767Z" fill="white"/>
</g>
</g>
</g>
<g id="Groupe 53">
<path id="Trac&#195;&#169; 53" d="M46.793 24.9223V9.61719H49.3773L51.3923 13.2132L53.3917 9.61719H55.9305V24.9223H53.8538V13.2158L52.4394 15.5725V24.9223H50.3628V15.5725L48.8711 13.109V24.9223H46.793Z" fill="white"/>
<path id="Trac&#195;&#169; 54" d="M66.2834 9.61719V11.7925H62.9451V15.572H65.9725L65.359 17.7618H62.9436V22.7506H66.2834V24.9233H60.8535V9.61719H66.2834Z" fill="white"/>
<path id="Trac&#195;&#169; 55" d="M74.8636 15.541V11.8228C74.862 11.8093 74.8578 11.7963 74.8511 11.7844C74.8444 11.7726 74.8355 11.7621 74.8248 11.7537C74.8076 11.7326 74.7829 11.7188 74.7558 11.7151H73.3865C73.3248 11.7151 73.2942 11.7512 73.2942 11.8228V22.7185C73.2976 22.7417 73.3084 22.7631 73.325 22.7797C73.3416 22.7962 73.3632 22.8069 73.3865 22.8103H74.7558C74.7816 22.8079 74.8059 22.797 74.8248 22.7793C74.8355 22.7728 74.8446 22.7638 74.8514 22.7532C74.8581 22.7425 74.8623 22.7305 74.8636 22.718V18.9983L76.9402 20.4829V23.9722C76.9355 24.0802 76.9038 24.1855 76.848 24.2783C76.7861 24.3907 76.7082 24.4936 76.6169 24.584C76.5268 24.6747 76.4261 24.7543 76.3169 24.8211C76.2283 24.8817 76.1244 24.9164 76.0169 24.9212H72.2176C72.0901 24.9199 71.9645 24.8912 71.8492 24.8371C71.7276 24.7823 71.618 24.7044 71.5264 24.6077C71.4347 24.5118 71.3569 24.4035 71.2953 24.2861C71.2353 24.1752 71.2036 24.0512 71.2031 23.9252V10.6135C71.2045 10.4857 71.2361 10.3599 71.2953 10.2465C71.3542 10.1276 71.4323 10.0191 71.5264 9.92534C71.6198 9.83262 71.7291 9.75737 71.8492 9.70316C71.9645 9.64905 72.0901 9.62038 72.2176 9.61914H76.0169C76.1243 9.62374 76.2283 9.6582 76.3169 9.71863C76.4261 9.78548 76.5268 9.86508 76.6169 9.95575C76.7084 10.046 76.7863 10.1489 76.848 10.2614C76.9038 10.3543 76.9355 10.4595 76.9402 10.5676V14.0414L74.8636 15.541Z" fill="white"/>
<path id="Trac&#195;&#169; 56" d="M83.9224 9.61719V15.5246H86.3218V9.61719H88.3829V24.9223H86.3218V17.8087H83.9224V24.9223H81.8613V9.61719H83.9224Z" fill="white"/>
<path id="Trac&#195;&#169; 57" d="M93.3047 22.7334H95.3191V24.9242H93.3047V22.7334Z" fill="white"/>
<path id="Trac&#195;&#169; 58" d="M101.072 24.876C100.925 24.8228 100.785 24.7507 100.657 24.6615C100.528 24.5743 100.427 24.4521 100.365 24.3095C100.335 24.2425 100.309 24.1736 100.288 24.1033C100.27 24.0508 100.254 23.9972 100.242 23.9429V10.5678C100.293 10.3041 100.434 10.0661 100.642 9.89458C100.845 9.71537 101.108 9.61718 101.38 9.6188H105.503C105.603 9.59951 105.707 9.61787 105.795 9.67035C105.904 9.73161 106.005 9.80625 106.095 9.89252C106.193 9.98497 106.281 10.0874 106.357 10.1982C106.424 10.2926 106.478 10.3956 106.518 10.5044V13.7792L104.334 15.2179V11.624H102.473V22.7945H104.303V18.6191H103.103L103.75 16.553H106.518V24.9218H104.98C104.939 24.8609 104.908 24.794 104.888 24.7234C104.847 24.611 104.821 24.5394 104.811 24.5089L103.671 24.9213H101.379C101.358 24.9213 101.307 24.9213 101.223 24.9136C101.17 24.9163 101.117 24.9032 101.072 24.876Z" fill="white"/>
<path id="Trac&#195;&#169; 59" d="M113.271 9.61719H116.762L118.593 24.9197H116.531L116.239 22.5939H113.793L113.516 24.9197H111.439L113.271 9.61719ZM115.977 20.3289L115.009 12.6482L114.085 20.3289H115.977Z" fill="white"/>
<path id="Trac&#195;&#169; 60" d="M123.514 24.9223V9.61719H126.099L128.113 13.2132L130.113 9.61719H132.652V24.9223H130.575V13.2158L129.16 15.5725V24.9223H127.083V15.5725L125.59 13.109V24.9223H123.514Z" fill="white"/>
<path id="Trac&#195;&#169; 61" d="M143 9.61719V11.7925H139.662V15.572H142.693L142.077 17.7618H139.662V22.7506H143V24.9233H137.572V9.61719H143Z" fill="white"/>
</g>
</g>
</g>
<defs>
<clipPath id="clip0_3413_15107">
<rect width="143" height="34" fill="white"/>
</clipPath>
</defs>
</svg>
