<svg width="75" height="46" viewBox="0 0 75 46" fill="none" xmlns="http://www.w3.org/2000/svg">
<g id="Frame" clip-path="url(#clip0_3413_15071)">
<path id="Vector" d="M75 46H0V0H75V46ZM69.0804 40.0415V5.92058H5.84879C5.85823 17.3424 5.8417 28.6789 5.85823 40.0415H69.0804Z" fill="white"/>
<path id="Vector_2" d="M38.7676 22.9219V11.4196C40.2504 10.4293 41.7404 9.40813 43.2657 8.44388C43.5703 8.2496 44.0119 8.20696 44.3897 8.20696C49.8961 8.19274 55.4025 8.18564 60.9065 8.22117C61.4189 8.22354 61.988 8.41545 62.4272 8.6879C63.8274 9.55265 65.1804 10.4956 66.5239 11.3911V17.1672C62.7341 17.333 58.9892 17.1767 55.164 17.2217C55.1239 16.3593 55.0885 15.6249 55.046 14.7175C53.4757 14.708 51.9338 14.689 50.314 14.7317V19.579C50.6564 19.6051 50.9941 19.6501 51.3317 19.6501C53.8087 19.6548 56.288 19.6667 58.7649 19.6406C59.5677 19.6335 60.2997 19.7472 61.0246 20.1334C62.8262 21.0906 64.6609 21.9885 66.5145 22.9267V34.5475C65.0458 35.5378 63.5417 36.6063 61.9738 37.5729C61.5819 37.8146 60.9892 37.7933 60.4886 37.7909C55.8488 37.7909 51.2089 37.7672 46.5691 37.7506C45.627 37.7483 44.6848 37.7506 43.6081 37.7506C42.0497 36.72 40.385 35.6207 38.8077 34.5807V28.8141H50.2385V31.1738H55.053C55.1522 29.5746 55.1003 27.9517 55.0837 26.1938C54.5808 26.1938 54.1983 26.1938 53.8157 26.1938C51.2207 26.189 48.6281 26.1867 46.0331 26.1701C45.686 26.1701 45.2964 26.1701 44.9965 26.0256C42.9116 25.0139 40.8455 23.962 38.7676 22.9196V22.9219Z" fill="white"/>
<path id="Vector_3" d="M8.41855 11.3769C9.8896 10.3961 11.3182 9.4176 12.7774 8.49126C13.0844 8.29698 13.5117 8.21643 13.8848 8.21643C19.4691 8.19748 25.0535 8.19748 30.6378 8.20932C30.9755 8.20932 31.3698 8.26855 31.6437 8.44387C33.1643 9.41524 34.659 10.434 36.123 11.4101V17.1293H24.7135V14.7269C23.0653 14.6867 21.5211 14.708 19.8894 14.7127V19.5861C20.2602 19.6098 20.6356 19.6501 21.011 19.6501C23.5683 19.6548 26.1231 19.6335 28.6803 19.6667C29.2116 19.6738 29.7854 19.7733 30.26 19.9984C32.0333 20.8442 33.7759 21.7563 35.5279 22.6495C35.7334 22.7537 35.9246 22.8911 36.156 23.0333V34.5072C34.6543 35.5094 33.1313 36.5471 31.5776 37.535C31.306 37.708 30.9046 37.7317 30.5622 37.7317C25.0582 37.7435 19.5518 37.7317 14.0477 37.7483C13.4267 37.7483 12.912 37.5919 12.4043 37.2413C11.0797 36.3268 9.72904 35.4502 8.39258 34.5617V28.9681C9.2379 28.7027 18.1587 28.6293 19.7737 28.8804V31.1548H24.5954V26.1914C24.1255 26.1914 23.7052 26.1914 23.2825 26.1914C20.8434 26.1914 18.4066 26.1724 15.9674 26.2009C15.1953 26.2104 14.5129 26.0374 13.8305 25.6797C12.0549 24.7509 10.2532 23.8743 8.41855 22.9551V11.3769Z" fill="white"/>
</g>
<defs>
<clipPath id="clip0_3413_15071">
<rect width="75" height="46" fill="white"/>
</clipPath>
</defs>
</svg>
