<svg width="90" height="74" viewBox="0 0 90 74" fill="none" xmlns="http://www.w3.org/2000/svg">
<g id="hero_card 1">
<path id="Vector" d="M74.6469 5.77025L8.62171 17.6513C7.16192 17.914 6.19107 19.3125 6.45328 20.775L14.5758 66.0795C14.838 67.542 16.2339 68.5147 17.6937 68.252L83.7189 56.3709C85.1787 56.1082 86.1496 54.7097 85.8874 53.2472L77.7649 7.94268C77.5027 6.4802 76.1067 5.50757 74.6469 5.77025Z" fill="#0E0628" stroke="white" stroke-width="6"/>
<path id="Vector_2" d="M53.7176 9.47656L54.7023 11.046L49.5103 11.9428L49.197 14.8126L36.3961 15.1713L34.6953 13.1087L53.7176 9.47656Z" fill="#544E6B"/>
<path id="Vector_3" d="M32.5927 21.9885L26.8636 14.5449L7.57273 17.6838L6.54329 18.7151L6.0957 20.0155L14.376 65.7979L15.2712 67.5467L17.3748 68.3986L50.2722 62.4797L49.198 57.9059L43.6927 57.3678L38.7246 64.1388L35.4572 61.807L40.4701 54.8119L34.2487 48.8929L21.5821 55.0809L18.2252 41.2251L30.9814 40.9561L24.7152 30.8221L32.5927 21.9885Z" fill="#544E6B"/>
<path id="Vector_4" d="M55.5977 57.9057L56.1348 61.2687L69.0699 58.8473L66.3396 55.4395L55.5977 57.9057Z" fill="#544E6B"/>
<path id="Vector_5" d="M72.7845 56.3805L70.6809 58.488L84.1531 56.6047L86.1673 53.7797L78.1555 8.26638L76.9023 6.11402L74.7987 5.44141L56.0449 8.8493L64.728 18.0865L59.6703 23.9158L63.6538 31.449L74.4406 26.382L75.1567 32.032L66.3393 33.6014L65.1756 36.8748L72.0684 38.8477L64.0119 50.596L72.7845 56.3805Z" fill="#544E6B"/>
<path id="Vector_6" d="M19.7906 30.1031L7.57159 27.0988L6.31836 20.9108L6.54215 19.2965L7.57159 18.0409L20.283 15.8438L26.0568 22.3457L19.7906 30.1031Z" fill="#A49EBC"/>
<path id="Vector_7" fill-rule="evenodd" clip-rule="evenodd" d="M65.7596 7.41505L62.716 12.5717L70.3249 18.7149L64.7302 27.8624L80.0823 20.6879L77.6206 7.41505L76.5463 6.11467L74.8008 5.80078L65.7596 7.41505ZM59.762 14.6344L62.9398 17.1455L57.0765 20.5085L59.762 14.6344ZM30.4005 16.0245H33.5336L34.4735 21.1363L30.4005 16.0245ZM22.6573 35.4853H9.36408L8.51367 30.7771L22.6573 35.4853ZM21.8069 48.6685L28.6102 47.0542L23.1496 51.897L21.8069 48.6685ZM61.7761 45.2606L65.491 45.9332L63.3874 48.9376L61.7761 45.2606ZM82.9468 37.0099L73.5475 36.4718L83.5286 40.9559L82.9468 37.0099ZM75.7407 39.7901L84.2448 43.6912C84.6028 46.5461 85.3995 52.5966 85.7218 53.9597C86.0441 55.3229 84.3939 56.2317 83.5286 56.5156L77.8443 57.2331L69.9669 50.5967L75.7407 39.7901ZM24.8953 66.829L34.1155 52.1213L20.3746 58.8474L15.9883 54.4081L13.0343 56.5156L14.5113 66.2909C14.571 66.9935 15.3348 68.3805 17.9129 68.3088L24.8953 66.829Z" fill="#A49EBC"/>
<g id="Group" filter="url(#filter0_i_3413_15079)">
<path id="Vector_8" d="M33.1853 30.7901L30.4824 31.2763L36.173 47.8798L40.1665 47.1612L39.7356 29.6116L37.2762 30.0541L37.7275 44.3517L33.1853 30.7901ZM41.3795 33.5465C42.254 38.4254 47.6073 38.1423 48.237 41.6551C48.4556 42.875 47.9987 43.4104 47.1463 43.5637C46.2941 43.7171 45.6797 43.3743 45.4611 42.1545L45.2425 40.9348L42.71 41.3904L42.898 42.4393C43.3877 45.1716 45.0312 46.4875 47.661 46.0146C50.2908 45.5414 51.3745 43.7349 50.8849 41.0026C50.0103 36.1236 44.657 36.4066 44.0274 32.8938C43.8088 31.674 44.2127 31.123 45.0649 30.9696C45.9172 30.8162 46.4873 31.1922 46.7059 32.4119L46.8326 33.1194L49.3651 32.6639L49.2689 32.1272C48.7793 29.3948 47.1601 28.0745 44.5546 28.5432C41.9491 29.012 40.8898 30.8141 41.3795 33.5465ZM54.038 27.0387L50.0934 27.7482L53.1541 44.8248L55.8326 44.3429L54.6827 37.9271L55.9488 37.6993C58.6273 37.2173 59.6756 35.4928 59.1859 32.7605L58.7879 30.5406C58.2983 27.8083 56.7165 26.5567 54.038 27.0387ZM54.4754 29.4782C55.3276 29.3248 55.8602 29.6319 56.0788 30.8516L56.538 33.4131C56.7566 34.6329 56.3638 35.1064 55.5116 35.2598L54.2453 35.4876L53.2091 29.706L54.4754 29.4782Z" fill="url(#paint0_linear_3413_15079)"/>
<path id="Vector_9" d="M33.1851 30.7899L33.234 30.7734L33.2199 30.7311L33.176 30.739L33.1851 30.7899ZM30.4823 31.2762L30.4731 31.2253L30.4141 31.236L30.4336 31.2929L30.4823 31.2762ZM36.1728 47.8796L36.1241 47.8963L36.1385 47.9383L36.182 47.9304L36.1728 47.8796ZM40.1664 47.1611L40.1755 47.212L40.219 47.2042L40.2179 47.1598L40.1664 47.1611ZM39.7354 29.6115L39.787 29.6103L39.7854 29.55L39.7263 29.5608L39.7354 29.6115ZM37.276 30.054L37.2669 30.0031L37.2231 30.011L37.2245 30.0556L37.276 30.054ZM37.7274 44.3516L37.6785 44.3679L37.7788 44.35L37.7274 44.3516ZM33.176 30.739L30.4731 31.2253L30.4914 31.327L33.1943 30.8407L33.176 30.739ZM30.4336 31.2929L36.1241 47.8963L36.2217 47.8628L30.531 31.2593L30.4336 31.2929ZM36.182 47.9304L40.1755 47.212L40.1572 47.1103L36.1637 47.8287L36.182 47.9304ZM40.2179 47.1598L39.787 29.6103L39.6839 29.6128L40.1148 47.1625L40.2179 47.1598ZM39.7263 29.5608L37.2669 30.0031L37.2852 30.1048L39.7446 29.6623L39.7263 29.5608ZM37.2245 30.0556L37.6758 44.3532L37.7788 44.35L37.3276 30.0524L37.2245 30.0556ZM37.7761 44.3351L33.234 30.7734L33.1363 30.8063L37.6785 44.3679L37.7761 44.3351ZM45.2423 40.9347L45.293 40.9256L45.2838 40.8748L45.2332 40.8839L45.2423 40.9347ZM42.7099 41.3903L42.7008 41.3395L42.6499 41.3485L42.659 41.3994L42.7099 41.3903ZM46.8325 33.1193L46.7818 33.1285L46.7909 33.1792L46.8416 33.1701L46.8325 33.1193ZM49.3649 32.6637L49.374 32.7145L49.4249 32.7054L49.4158 32.6546L49.3649 32.6637ZM41.3286 33.5554C41.77 36.0176 43.3437 37.1769 44.8721 38.1566C45.6378 38.6473 46.3881 39.0905 46.9882 39.6306C47.5864 40.169 48.0313 40.8004 48.1862 41.6642L48.2875 41.6459C48.1276 40.7534 47.6671 40.1028 47.0572 39.5538C46.449 39.0064 45.6883 38.5569 44.9276 38.0696C43.4033 37.0926 41.8632 35.954 41.43 33.5372L41.3286 33.5554ZM48.1862 41.6642C48.2943 42.2677 48.2332 42.6916 48.0496 42.9816C47.8666 43.2705 47.5549 43.4377 47.137 43.5129L47.1553 43.6144C47.5896 43.5364 47.9326 43.359 48.1366 43.0368C48.3398 42.716 48.3979 42.262 48.2875 41.6459L48.1862 41.6642ZM47.137 43.5129C46.7192 43.588 46.369 43.5399 46.0972 43.3328C45.8242 43.1249 45.6199 42.749 45.5116 42.1454L45.4102 42.1635C45.5205 42.7796 45.7327 43.185 46.0347 43.4151C46.3378 43.646 46.7209 43.6926 47.1553 43.6144L47.137 43.5129ZM45.5116 42.1454L45.293 40.9256L45.1915 40.9439L45.4102 42.1635L45.5116 42.1454ZM45.2332 40.8839L42.7008 41.3395L42.719 41.441L45.2514 40.9855L45.2332 40.8839ZM42.659 41.3994L42.8472 42.4483L42.9485 42.4301L42.7605 41.3811L42.659 41.3994ZM42.8472 42.4483C43.0934 43.8223 43.6312 44.848 44.4456 45.4699C45.2607 46.0923 46.345 46.3036 47.67 46.0652L47.6517 45.9635C46.3469 46.1983 45.2944 45.9881 44.5081 45.3877C43.7209 44.7867 43.192 43.7884 42.9485 42.4301L42.8472 42.4483ZM47.67 46.0652C48.995 45.8268 49.938 45.2509 50.4862 44.3831C51.0339 43.5165 51.1817 42.3673 50.9354 40.9934L50.8341 41.0115C51.0775 42.3698 50.9284 43.4901 50.399 44.3279C49.8703 45.165 48.9565 45.7289 47.6517 45.9635L47.67 46.0652ZM50.9354 40.9934C50.4941 38.5311 48.9204 37.3718 47.392 36.3923C46.6262 35.9014 45.8759 35.4582 45.2758 34.9182C44.6776 34.3799 44.2327 33.7485 44.0779 32.8845L43.9765 32.9028C44.1364 33.7953 44.5969 34.4459 45.2069 34.9949C45.815 35.5423 46.5757 35.9918 47.3365 36.4793C48.8608 37.4561 50.4008 38.5947 50.8341 41.0115L50.9354 40.9934ZM44.0779 32.8845C43.9696 32.2799 44.0177 31.8518 44.1889 31.5576C44.359 31.2656 44.6569 31.0954 45.0738 31.0202L45.0558 30.9187C44.6205 30.9969 44.2902 31.1788 44.0999 31.5056C43.9108 31.8304 43.8663 32.2876 43.9765 32.9028L44.0779 32.8845ZM45.0738 31.0202C45.491 30.9453 45.8294 31.0012 46.0902 31.2157C46.3529 31.4317 46.5466 31.8163 46.6551 32.4209L46.7564 32.4028C46.6463 31.7876 46.4456 31.3743 46.1556 31.1358C45.8637 30.8958 45.4908 30.8403 45.0558 30.9187L45.0738 31.0202ZM46.6551 32.4209L46.7818 33.1285L46.8833 33.1102L46.7564 32.4028L46.6551 32.4209ZM46.8416 33.1701L49.374 32.7145L49.356 32.6128L46.8235 33.0684L46.8416 33.1701ZM49.4158 32.6546L49.3194 32.1179L49.2181 32.1361L49.3142 32.6729L49.4158 32.6546ZM49.3194 32.1179C49.0733 30.7442 48.5417 29.7173 47.7366 29.0939C46.9304 28.4697 45.8584 28.2561 44.5453 28.4923L44.5636 28.594C45.856 28.3614 46.8962 28.5737 47.6736 29.1755C48.4517 29.7782 48.9746 30.7776 49.2181 32.1361L49.3194 32.1179ZM44.5453 28.4923C43.2323 28.7285 42.3013 29.3025 41.7624 30.1686C41.2241 31.0337 41.0823 32.1816 41.3286 33.5554L41.43 33.5372C41.1865 32.1787 41.3295 31.0593 41.85 30.2232C42.3695 29.388 43.2712 28.8265 44.5636 28.594L44.5453 28.4923ZM50.0932 27.7481L50.0841 27.6974L50.0334 27.7065L50.0424 27.7573L50.0932 27.7481ZM53.154 44.8247L53.1033 44.8339L53.1122 44.8846L53.1631 44.8755L53.154 44.8247ZM55.8325 44.3428L55.8416 44.3937L55.8923 44.3846L55.8832 44.3338L55.8325 44.3428ZM54.6825 37.927L54.6734 37.8762L54.6228 37.8852L54.6317 37.9361L54.6825 37.927ZM54.2452 35.4875L54.1945 35.4966L54.2036 35.5474L54.2543 35.5382L54.2452 35.4875ZM53.2089 29.7059L53.1998 29.6549L53.1491 29.6641L53.1583 29.715L53.2089 29.7059ZM54.0289 26.9876L50.0841 27.6974L50.1023 27.7991L54.047 27.0893L54.0289 26.9876ZM50.0424 27.7573L53.1033 44.8339L53.2046 44.8156L50.1439 27.739L50.0424 27.7573ZM53.1631 44.8755L55.8416 44.3937L55.8234 44.292L53.1448 44.774L53.1631 44.8755ZM55.8832 44.3338L54.7332 37.9178L54.6317 37.9361L55.7818 44.3519L55.8832 44.3338ZM54.6917 37.9777L55.9578 37.7499L55.9395 37.6484L54.6734 37.8762L54.6917 37.9777ZM55.9578 37.7499C57.3063 37.5074 58.253 36.9502 58.7987 36.1016C59.3439 35.2537 59.4826 34.1248 59.2364 32.7513L59.1349 32.7696C59.3786 34.1282 59.2381 35.2277 58.7121 36.0456C58.1864 36.863 57.2696 37.4091 55.9395 37.6484L55.9578 37.7499ZM59.2364 32.7513L58.8386 30.5313L58.7371 30.5496L59.1349 32.7696L59.2364 32.7513ZM58.8386 30.5313C58.5923 29.1577 58.0702 28.1477 57.2646 27.5429C56.4582 26.9376 55.3774 26.7451 54.0289 26.9876L54.047 27.0893C55.377 26.8501 56.4262 27.0425 57.2028 27.6254C57.98 28.2091 58.4936 29.1909 58.7371 30.5496L58.8386 30.5313ZM54.4844 29.5288C54.9037 29.4533 55.2322 29.4935 55.4827 29.6904C55.7349 29.8888 55.9195 30.2553 56.028 30.8606L56.1295 30.8425C56.0192 30.228 55.8282 29.8311 55.5464 29.6092C55.2628 29.3862 54.899 29.3493 54.4661 29.4271L54.4844 29.5288ZM56.028 30.8606L56.487 33.4221L56.5885 33.404L56.1295 30.8425L56.028 30.8606ZM56.487 33.4221C56.5955 34.0274 56.5499 34.4353 56.3823 34.7092C56.2158 34.9813 55.9216 35.1334 55.5023 35.2089L55.5206 35.3104C55.9535 35.2326 56.2819 35.0712 56.4702 34.7632C56.6575 34.457 56.6986 34.0183 56.5885 33.404L56.487 33.4221ZM55.5023 35.2089L54.2362 35.4367L54.2543 35.5382L55.5206 35.3104L55.5023 35.2089ZM54.296 35.4783L53.2598 29.6967L53.1583 29.715L54.1945 35.4966L54.296 35.4783ZM53.2181 29.7566L54.4844 29.5288L54.4661 29.4271L53.1998 29.6549L53.2181 29.7566Z" fill="white"/>
</g>
<path id="Vector_10" d="M74.6469 5.77025L8.62171 17.6513C7.16192 17.914 6.19107 19.3125 6.45328 20.775L14.5758 66.0795C14.838 67.542 16.2339 68.5147 17.6937 68.252L83.7189 56.3709C85.1787 56.1082 86.1496 54.7097 85.8874 53.2472L77.7649 7.94268C77.5027 6.4802 76.1067 5.50757 74.6469 5.77025Z" fill="url(#paint1_linear_3413_15079)" stroke="white"/>
</g>
<defs>
<filter id="filter0_i_3413_15079" x="29.2625" y="26.8857" width="30.091" height="23.3558" filterUnits="userSpaceOnUse" color-interpolation-filters="sRGB">
<feFlood flood-opacity="0" result="BackgroundImageFix"/>
<feBlend mode="normal" in="SourceGraphic" in2="BackgroundImageFix" result="shape"/>
<feColorMatrix in="SourceAlpha" type="matrix" values="0 0 0 0 0 0 0 0 0 0 0 0 0 0 0 0 0 0 127 0" result="hardAlpha"/>
<feOffset dx="-1.15154" dy="2.30308"/>
<feGaussianBlur stdDeviation="2"/>
<feComposite in2="hardAlpha" operator="arithmetic" k2="-1" k3="1"/>
<feColorMatrix type="matrix" values="0 0 0 0 0 0 0 0 0 0 0 0 0 0 0 0 0 0 0.25 0"/>
<feBlend mode="normal" in2="shape" result="effect1_innerShadow_3413_15079"/>
</filter>
<linearGradient id="paint0_linear_3413_15079" x1="33.2596" y1="48.3127" x2="39.2195" y2="28.4159" gradientUnits="userSpaceOnUse">
<stop stop-color="white"/>
<stop offset="1" stop-color="white"/>
</linearGradient>
<linearGradient id="paint1_linear_3413_15079" x1="11.8918" y1="53.2695" x2="77.8406" y2="13.5583" gradientUnits="userSpaceOnUse">
<stop offset="0.125" stop-color="white" stop-opacity="0"/>
<stop offset="0.260417" stop-color="white" stop-opacity="0.2"/>
<stop offset="0.354167" stop-color="white" stop-opacity="0"/>
<stop offset="0.755208" stop-color="white" stop-opacity="0"/>
<stop offset="0.880208" stop-color="white" stop-opacity="0.24"/>
<stop offset="1" stop-color="white" stop-opacity="0"/>
</linearGradient>
</defs>
</svg>
