<?xml version="1.0" encoding="utf-8"?>
<!-- Generator: Adobe Illustrator 26.0.3, SVG Export Plug-In . SVG Version: 6.00 Build 0)  -->
<svg version="1.2" baseProfile="tiny" id="Layer_1" xmlns="http://www.w3.org/2000/svg" xmlns:xlink="http://www.w3.org/1999/xlink"
	 x="0px" y="0px" viewBox="0 0 111.7 51.3" overflow="visible" xml:space="preserve">
<g>
	<g>
		<path fill="#FFFFFF" d="M70.3,10.6l-12,27.2C53.9,47.9,49.6,51.3,41,51.3h-3.6v-10h2.7c3.9,0,5.4-1,6.5-3.9L34.7,10.6h13.2
			L52.6,25l4.5-14.4H70.3z"/>
		<path fill="#FFFFFF" d="M95.3,29.4v10.5h-8.2c-6.5,0-10.4-4-10.4-10.5v-9.7h-5.4l1-3l6.6-15.6h9.6v9.5h6.7v9.1h-6.3v7.3
			c0,1.4,0.9,2.3,2.3,2.3H95.3z"/>
		<path fill="#FFFFFF" d="M18.9,9.6c-2.6,0-5,0.7-7,1.9V0H2.4c1,1.1,1.4,2.7,0.7,4.3C3.1,4.6,3.1,4.7,3.4,4.9c2.8,1.2,3.2,5,0.8,6.8
			c-0.3,0.2-0.3,0.3-0.1,0.6c1.6,2.1,0.6,5.2-1.9,6.1c-0.4,0.1-0.8,0.2-1.3,0.3c0,0.1,0,0.2,0,0.3c1,2.4-0.6,3.8-0.9,3.6v17.4h9.1
			l0.9-2.2c2.4,2.1,5.4,3.3,8.9,3.3c9.1,0,15.3-6.3,15.3-15.7S28,9.6,18.9,9.6z M18.6,32.3c-3.5,0-6.1-3-6.1-7c0-4,2.6-7,6.1-7
			s6.1,3,6.1,7C24.7,29.3,22.1,32.3,18.6,32.3z"/>
	</g>
	<linearGradient id="SVGID_1_" gradientUnits="userSpaceOnUse" x1="100.5758" y1="34.6539" x2="111.6781" y2="34.6539">
		<stop  offset="0" style="stop-color:#8D52F7"/>
		<stop  offset="0.9994" style="stop-color:#6947E2"/>
	</linearGradient>
	<rect x="100.6" y="29.4" fill="url(#SVGID_1_)" width="11.1" height="10.6"/>
</g>
</svg>
