<svg width="16" height="16" viewBox="0 0 16 16" fill="white"><path d="M13.333 12.534V5.978l.99.594c.316.189.725.087.915-.229s.087-.725-.229-.915L11.661 3.42 9.1 1.877h0l-.45-.263-.086-.044c-.101-.049-.188-.082-.278-.102-.189-.042-.385-.042-.574 0-.09.02-.178.053-.279.102l-.084.043-.451.263h0L4.334 3.422.99 5.429c-.316.189-.418.599-.229.915s.599.418.915.229l.99-.594v6.556c0 .747 0 1.12.145 1.405.128.251.332.455.583.583.285.145.659.145 1.405.145h1.2v-4a2 2 0 0 1 4 0v4h1.2c.747 0 1.12 0 1.405-.145.251-.128.455-.332.583-.583.145-.285.145-.659.145-1.405z"></path></svg>