<svg width="40" height="40" viewBox="0 0 40 40" fill="none" xmlns="http://www.w3.org/2000/svg"><rect x="0.5" y="0.5" width="39" height="39" rx="19.5" fill="white"></rect><path d="M33.8429 31.4812C35.6907 29.2599 36.9758 26.6265 37.5896 23.804C38.2034 20.9814 38.1278 18.0526 37.3691 15.2655C36.6105 12.4783 35.1912 9.91464 33.2313 7.79144C31.2714 5.66824 28.8285 4.04794 26.1093 3.0676C23.3901 2.08725 20.4746 1.77571 17.6094 2.15933C14.7442 2.54295 12.0136 3.61043 9.64867 5.27149C7.28371 6.93254 5.35393 9.1383 4.02258 11.7022C2.69123 14.266 1.99747 17.1126 2.00001 20.001C2.00098 24.1999 3.48188 28.2644 6.18285 31.4812L6.15712 31.5031C6.24718 31.611 6.35011 31.7036 6.44275 31.8103C6.55855 31.9427 6.68335 32.0674 6.80301 32.196C7.16327 32.5868 7.53382 32.9622 7.92238 33.3144C8.04075 33.4224 8.16298 33.5227 8.28264 33.6255C8.69436 33.9804 9.11766 34.3172 9.5564 34.6309C9.61302 34.6694 9.66448 34.7196 9.72109 34.7594V34.744C12.7345 36.8628 16.3294 38 20.0142 38C23.6989 38 27.2938 36.8628 30.3072 34.744V34.7594C30.3638 34.7196 30.414 34.6694 30.4719 34.6309C30.9094 34.3159 31.334 33.9804 31.7457 33.6255C31.8653 33.5227 31.9876 33.4211 32.1059 33.3144C32.4945 32.9609 32.8651 32.5868 33.2253 32.196C33.345 32.0674 33.4685 31.9427 33.5856 31.8103C33.6769 31.7036 33.7811 31.611 33.8712 31.5018L33.8429 31.4812ZM20.0129 9.71637C21.158 9.71637 22.2774 10.0557 23.2295 10.6913C24.1817 11.327 24.9238 12.2305 25.362 13.2876C25.8002 14.3447 25.9149 15.5079 25.6915 16.6301C25.4681 17.7523 24.9166 18.7831 24.1069 19.5921C23.2972 20.4012 22.2655 20.9522 21.1424 21.1754C20.0193 21.3986 18.8552 21.2841 17.7972 20.8462C16.7392 20.4083 15.835 19.6669 15.1988 18.7155C14.5626 17.7641 14.223 16.6457 14.223 15.5015C14.223 13.9672 14.833 12.4957 15.9188 11.4108C17.0046 10.3259 18.4773 9.71637 20.0129 9.71637ZM9.72881 31.4812C9.75113 29.7932 10.4377 28.1818 11.6399 26.9957C12.8422 25.8096 14.4634 25.1442 16.153 25.1433H23.8728C25.5623 25.1442 27.1836 25.8096 28.3858 26.9957C29.5881 28.1818 30.2746 29.7932 30.2969 31.4812C27.4751 34.0219 23.8113 35.428 20.0129 35.428C16.2144 35.428 12.5506 34.0219 9.72881 31.4812Z" fill="#A49EBC"></path><rect x="0.5" y="0.5" width="39" height="39" rx="19.5" stroke="white"></rect></svg>