<svg width="108" height="108" viewBox="0 0 108 108" fill="none" xmlns="http://www.w3.org/2000/svg">
<g id="Image" clip-path="url(#clip0_3413_15871)">
<path id="Vector" d="M54 104C81.6142 104 104 81.6142 104 54C104 26.3858 81.6142 4 54 4C26.3858 4 4 26.3858 4 54C4 81.6142 26.3858 104 54 104Z" fill="#E7E9FF"/>
<path id="Vector_2" d="M3 15C4.65685 15 6 13.6569 6 12C6 10.3431 4.65685 9 3 9C1.34315 9 0 10.3431 0 12C0 13.6569 1.34315 15 3 15Z" fill="#00C99F"/>
<path id="Vector_3" d="M102 6C103.657 6 105 4.65685 105 3C105 1.34315 103.657 0 102 0C100.343 0 99 1.34315 99 3C99 4.65685 100.343 6 102 6Z" fill="#FFA100"/>
<path id="Vector_4" d="M105 102C106.657 102 108 100.657 108 99C108 97.3431 106.657 96 105 96C103.343 96 102 97.3431 102 99C102 100.657 103.343 102 105 102Z" fill="#00C99F"/>
<path id="Vector_5" d="M13 108C14.6569 108 16 106.657 16 105C16 103.343 14.6569 102 13 102C11.3431 102 10 103.343 10 105C10 106.657 11.3431 108 13 108Z" fill="#FF4D69"/>
<path id="Vector_6" d="M67.9993 67C67.9993 85.23 53.2293 100 34.9993 100C34.7893 100 34.5693 100 34.3593 99.99C16.9593 92.55 4.6393 75.53 4.0293 55.57C8.6793 42.98 20.7893 34 34.9993 34C53.2293 34 67.9993 48.77 67.9993 67Z" fill="#988FFF"/>
<path id="Vector_7" d="M35 72C37.7614 72 40 69.7614 40 67C40 64.2386 37.7614 62 35 62C32.2386 62 30 64.2386 30 67C30 69.7614 32.2386 72 35 72Z" fill="#E7E9FF"/>
<path id="Vector_8" d="M51 72C53.7614 72 56 69.7614 56 67C56 64.2386 53.7614 62 51 62C48.2386 62 46 64.2386 46 67C46 69.7614 48.2386 72 51 72Z" fill="#E7E9FF"/>
<path id="Vector_9" d="M19 72C21.7614 72 24 69.7614 24 67C24 64.2386 21.7614 62 19 62C16.2386 62 14 64.2386 14 67C14 69.7614 16.2386 72 19 72Z" fill="#E7E9FF"/>
<path id="Vector_10" d="M96.9899 70.8502C97.0799 71.4202 96.6399 72.0002 95.9999 72.0002C95.8599 72.0002 87.3299 70.6802 87.4299 70.6902C86.3899 70.5302 85.3299 70.6902 84.3999 71.1802C63.2299 82.3902 37.4599 67.7402 36.0599 44.0202C34.8799 24.1402 51.2899 7.80019 71.1799 9.08019C87.6299 10.1402 100.95 23.5302 101.94 39.9902C102.38 47.4402 100.36 54.3902 96.5999 60.1102C95.9299 61.1302 95.6799 62.3602 95.8699 63.5602L96.9999 70.8602L96.9899 70.8502Z" fill="#6947E2"/>
<path id="Vector_11" d="M69 47C71.7614 47 74 44.7614 74 42C74 39.2386 71.7614 37 69 37C66.2386 37 64 39.2386 64 42C64 44.7614 66.2386 47 69 47Z" fill="white"/>
<path id="Vector_12" d="M85 47C87.7614 47 90 44.7614 90 42C90 39.2386 87.7614 37 85 37C82.2386 37 80 39.2386 80 42C80 44.7614 82.2386 47 85 47Z" fill="white"/>
<path id="Vector_13" d="M53 47C55.7614 47 58 44.7614 58 42C58 39.2386 55.7614 37 53 37C50.2386 37 48 39.2386 48 42C48 44.7614 50.2386 47 53 47Z" fill="white"/>
<path id="Vector_14" d="M76.0005 88.0003C75.7405 88.0003 75.4905 87.9003 75.2905 87.7103L72.2905 84.7103C71.9005 84.3203 71.9005 83.6903 72.2905 83.3003C72.6805 82.9103 73.3105 82.9103 73.7005 83.3003L76.7005 86.3003C77.3305 86.9303 76.8705 88.0103 75.9905 88.0103L76.0005 88.0003Z" fill="#FFA100"/>
<path id="Vector_15" d="M68 91C67.45 91 67 90.55 67 90V86C67 85.45 67.45 85 68 85C68.55 85 69 85.45 69 86V90C69 90.55 68.55 91 68 91Z" fill="#FFA100"/>
<path id="Vector_16" d="M79 80H75C74.45 80 74 79.55 74 79C74 78.45 74.45 78 75 78H79C79.55 78 80 78.45 80 79C80 79.55 79.55 80 79 80Z" fill="#FFA100"/>
<path id="Vector_17" d="M32.0005 26.0003C31.7405 26.0003 31.4905 25.9003 31.2905 25.7103L28.2905 22.7103C27.9005 22.3203 27.9005 21.6903 28.2905 21.3003C28.6805 20.9103 29.3105 20.9103 29.7005 21.3003L32.7005 24.3003C33.3305 24.9303 32.8705 26.0103 31.9905 26.0103L32.0005 26.0003Z" fill="#FFA100"/>
<path id="Vector_18" d="M37 24C36.45 24 36 23.55 36 23V19C36 18.45 36.45 18 37 18C37.55 18 38 18.45 38 19V23C38 23.55 37.55 24 37 24Z" fill="#FFA100"/>
<path id="Vector_19" d="M30 31H26C25.45 31 25 30.55 25 30C25 29.45 25.45 29 26 29H30C30.55 29 31 29.45 31 30C31 30.55 30.55 31 30 31Z" fill="#FFA100"/>
</g>
<defs>
<clipPath id="clip0_3413_15871">
<rect width="108" height="108" fill="white"/>
</clipPath>
</defs>
</svg>
