<svg width="64" height="64" viewBox="0 0 64 64" fill="none" xmlns="http://www.w3.org/2000/svg">
<g id="Image" clip-path="url(#clip0_3403_13211)">
<path id="Vector" d="M32.0007 64.0005C48.3647 64.0005 61.6304 50.7348 61.6304 34.3708C61.6304 18.0068 48.3647 4.74121 32.0007 4.74121C15.6367 4.74121 2.37109 18.0068 2.37109 34.3708C2.37109 50.7348 15.6367 64.0005 32.0007 64.0005Z" fill="#E7E9FF"/>
<path id="Vector_2" d="M3.55512 3.55556C4.53696 3.55556 5.3329 2.75962 5.3329 1.77778C5.3329 0.795938 4.53696 0 3.55512 0C2.57328 0 1.77734 0.795938 1.77734 1.77778C1.77734 2.75962 2.57328 3.55556 3.55512 3.55556Z" fill="#FF4D69"/>
<path id="Vector_3" d="M62.2231 3.55556C63.2049 3.55556 64.0009 2.75962 64.0009 1.77778C64.0009 0.795938 63.2049 0 62.2231 0C61.2413 0 60.4453 0.795938 60.4453 1.77778C60.4453 2.75962 61.2413 3.55556 62.2231 3.55556Z" fill="#00C99F"/>
<path id="Vector_4" d="M59.2602 63.9999C60.242 63.9999 61.038 63.204 61.038 62.2221C61.038 61.2403 60.242 60.4443 59.2602 60.4443C58.2784 60.4443 57.4824 61.2403 57.4824 62.2221C57.4824 63.204 58.2784 63.9999 59.2602 63.9999Z" fill="#FFA100"/>
<path id="Vector_5" d="M1.77778 61.037C2.75962 61.037 3.55556 60.2411 3.55556 59.2592C3.55556 58.2774 2.75962 57.4814 1.77778 57.4814C0.795938 57.4814 0 58.2774 0 59.2592C0 60.2411 0.795938 61.037 1.77778 61.037Z" fill="#00C99F"/>
<path id="Vector_6" d="M13.0364 5.33301H27.2586V39.1108H10.666V7.70338C10.666 6.39375 11.7268 5.33301 13.0364 5.33301Z" fill="#988FFF"/>
<path id="Vector_7" d="M53.1111 8.79897V46.7249H14V5.24342C14 3.93379 15.0607 2.87305 16.3704 2.87305H47.1852L53.1111 8.79897Z" fill="#D4D1FB"/>
<path id="Vector_8" d="M26.6662 18.3704C29.939 18.3704 32.5921 15.7173 32.5921 12.4445C32.5921 9.17168 29.939 6.51855 26.6662 6.51855C23.3934 6.51855 20.7402 9.17168 20.7402 12.4445C20.7402 15.7173 23.3934 18.3704 26.6662 18.3704Z" fill="#6947E2"/>
<path id="Vector_9" d="M23.7033 18.3704C26.9761 18.3704 29.6292 15.7173 29.6292 12.4445C29.6292 9.17168 26.9761 6.51855 23.7033 6.51855C20.4305 6.51855 17.7773 9.17168 17.7773 12.4445C17.7773 15.7173 20.4305 18.3704 23.7033 18.3704Z" fill="#FFA100"/>
<path id="Vector_10" d="M26.5664 12.1189L24.196 8.56334C23.9767 8.23149 23.4315 8.23149 23.2123 8.56334L20.8419 12.1189C20.7115 12.3204 20.7115 12.5752 20.8419 12.7767L23.2123 16.3322C23.4493 16.6819 23.9649 16.6819 24.196 16.3322L26.5664 12.7767C26.6967 12.5752 26.6967 12.3204 26.5664 12.1189ZM23.7041 9.96186L25.0434 11.9708L23.7041 12.4152L22.3649 11.9708L23.7041 9.96186ZM23.7041 14.9337L22.6138 13.2982L23.5145 13.6004C23.7456 13.6774 23.793 13.63 24.7886 13.2982L23.6982 14.9337H23.7041Z" fill="white"/>
<path id="Vector_11" d="M56.8891 37.333V50.4411C45.215 68.4974 18.7973 68.5211 7.11133 50.4411V33.1848C7.11133 31.8752 8.17207 30.8145 9.4817 30.8145H23.6684C24.4328 30.8145 25.1498 31.1819 25.5943 31.81L27.8461 34.9626H54.5128C55.8224 34.9626 56.8832 36.0233 56.8832 37.333H56.8891Z" fill="#6947E2"/>
<path id="Vector_12" d="M33.1849 54.7849V63.9701C32.5272 64.0116 31.4723 64.0116 30.8146 63.9701V54.7849C28.7109 53.5464 29.5997 50.3701 31.9997 50.3701C34.3997 50.3701 35.2827 53.5523 33.1849 54.7849Z" fill="#D4D1FB"/>
<path id="Vector_13" d="M25.4808 56.889V63.2771C24.6749 63.0993 23.8867 62.886 23.1104 62.6371V56.889C23.1104 56.563 22.8438 56.2964 22.5178 56.2964H19.5549C17.9193 56.2964 16.5919 54.969 16.5919 53.3334V49.4519C14.4882 48.2134 15.3771 45.0371 17.7771 45.0371C20.1771 45.0371 21.0601 48.2193 18.9623 49.4519V53.3334C18.9623 53.6593 19.2289 53.926 19.5549 53.926H22.5178C24.1534 53.926 25.4808 55.2534 25.4808 56.889Z" fill="#D4D1FB"/>
<path id="Vector_14" d="M47.4065 49.4519V53.3334C47.4065 54.969 46.0791 56.2964 44.4435 56.2964H41.4805C41.1546 56.2964 40.8879 56.563 40.8879 56.889V62.6371C40.1117 62.886 39.3235 63.0993 38.5176 63.2771V56.889C38.5176 55.2534 39.845 53.926 41.4805 53.926H44.4435C44.7694 53.926 45.0361 53.6593 45.0361 53.3334V49.4519C42.9324 48.2134 43.8213 45.0371 46.2213 45.0371C48.6213 45.0371 49.5042 48.2193 47.4065 49.4519Z" fill="#D4D1FB"/>
<path id="Vector_15" d="M53.3341 8.88882H49.7786C48.4689 8.88882 47.4082 7.82808 47.4082 6.51845V2.96289L53.3341 8.88882Z" fill="#6947E2"/>
<path id="Vector_16" d="M20.5177 21.2438H18.1473C17.8214 21.2438 17.5547 20.9771 17.5547 20.6512C17.5547 20.4793 17.6851 20.0586 18.1473 20.0586H20.5177C20.8436 20.0586 21.1102 20.3253 21.1102 20.6512C21.1102 20.823 20.9799 21.2438 20.5177 21.2438Z" fill="white"/>
<path id="Vector_17" d="M49.1846 21.3336H24.2957C23.9698 21.3336 23.7031 21.067 23.7031 20.741C23.7031 20.5692 23.8335 20.1484 24.2957 20.1484H49.1846C49.5105 20.1484 49.7772 20.4151 49.7772 20.741C49.7772 20.9129 49.6468 21.3336 49.1846 21.3336Z" fill="white"/>
<path id="Vector_18" d="M20.5177 24.7994H18.1473C17.8214 24.7994 17.5547 24.5328 17.5547 24.2069C17.5547 24.035 17.6851 23.6143 18.1473 23.6143H20.5177C20.8436 23.6143 21.1102 23.8809 21.1102 24.2069C21.1102 24.3787 20.9799 24.7994 20.5177 24.7994Z" fill="white"/>
<path id="Vector_19" d="M49.1846 24.8893H24.2957C23.9698 24.8893 23.7031 24.6226 23.7031 24.2967C23.7031 24.1248 23.8335 23.7041 24.2957 23.7041H49.1846C49.5105 23.7041 49.7772 23.9708 49.7772 24.2967C49.7772 24.4685 49.6468 24.8893 49.1846 24.8893Z" fill="white"/>
<path id="Vector_20" d="M20.7403 28.444H18.3699C18.044 28.444 17.7773 28.1773 17.7773 27.8514C17.7773 27.6795 17.9077 27.2588 18.3699 27.2588H20.7403C21.0662 27.2588 21.3329 27.5255 21.3329 27.8514C21.3329 28.0232 21.2025 28.444 20.7403 28.444Z" fill="white"/>
<path id="Vector_21" d="M49.1846 28.444H24.2957C23.9698 28.444 23.7031 28.1773 23.7031 27.8514C23.7031 27.6795 23.8335 27.2588 24.2957 27.2588H49.1846C49.5105 27.2588 49.7772 27.5255 49.7772 27.8514C49.7772 28.0232 49.6468 28.444 49.1846 28.444Z" fill="white"/>
</g>
<defs>
<clipPath id="clip0_3403_13211">
<rect width="64" height="64" fill="white"/>
</clipPath>
</defs>
</svg>
