<svg width="64" height="64" viewBox="0 0 64 64" fill="none" xmlns="http://www.w3.org/2000/svg">
<g id="Image" clip-path="url(#clip0_3403_14198)">
<path id="Vector" d="M32.0007 64.0005C48.3647 64.0005 61.6304 50.7348 61.6304 34.3708C61.6304 18.0068 48.3647 4.74121 32.0007 4.74121C15.6367 4.74121 2.37109 18.0068 2.37109 34.3708C2.37109 50.7348 15.6367 64.0005 32.0007 64.0005Z" fill="#E7E9FF"/>
<path id="Vector_2" d="M1.77778 10.0741C2.75962 10.0741 3.55556 9.27817 3.55556 8.29633C3.55556 7.31449 2.75962 6.51855 1.77778 6.51855C0.795938 6.51855 0 7.31449 0 8.29633C0 9.27817 0.795938 10.0741 1.77778 10.0741Z" fill="#FFA100"/>
<path id="Vector_3" d="M56.2954 3.55556C57.2772 3.55556 58.0731 2.75962 58.0731 1.77778C58.0731 0.795938 57.2772 0 56.2954 0C55.3135 0 54.5176 0.795938 54.5176 1.77778C54.5176 2.75962 55.3135 3.55556 56.2954 3.55556Z" fill="#00C99F"/>
<path id="Vector_4" d="M62.2231 61.6298C63.2049 61.6298 64.0009 60.8338 64.0009 59.852C64.0009 58.8702 63.2049 58.0742 62.2231 58.0742C61.2413 58.0742 60.4453 58.8702 60.4453 59.852C60.4453 60.8338 61.2413 61.6298 62.2231 61.6298Z" fill="#FF4D69"/>
<path id="Vector_5" d="M5.92622 60.4442C6.90805 60.4442 7.70399 59.6483 7.70399 58.6664C7.70399 57.6846 6.90805 56.8887 5.92622 56.8887C4.94438 56.8887 4.14844 57.6846 4.14844 58.6664C4.14844 59.6483 4.94438 60.4442 5.92622 60.4442Z" fill="#00C99F"/>
<path id="Vector_6" d="M41.4815 12.4447V50.3707C41.4815 54.9514 37.7659 58.667 33.1852 58.667C15.3363 58.667 16.0178 58.7499 14.7555 58.4595C12.4148 56.7884 10.3289 54.7795 8.5748 52.504C8.18369 51.0462 8.29628 53.8255 8.29628 12.4447C8.29628 7.86399 12.0118 4.14844 16.5926 4.14844H33.1852C37.8133 4.14844 41.4815 7.9114 41.4815 12.4447Z" fill="#D4D1FB"/>
<path id="Vector_7" d="M33.7775 7.7041H15.9997C13.7088 7.7041 11.8516 9.56129 11.8516 11.8522V50.9634C11.8516 53.2543 13.7088 55.1115 15.9997 55.1115H33.7775C36.0684 55.1115 37.9256 53.2543 37.9256 50.9634V11.8522C37.9256 9.56129 36.0684 7.7041 33.7775 7.7041Z" fill="white"/>
<path id="Vector_8" d="M17.7773 7.11133H31.9996V8.88911C31.9996 10.1987 30.9388 11.2595 29.6292 11.2595H20.1477C18.8381 11.2595 17.7773 10.1987 17.7773 8.88911V7.11133Z" fill="#D4D1FB"/>
<path id="Vector_9" d="M23.704 9.4817H21.3336C20.6818 9.4817 20.1484 8.94837 20.1484 8.29651C20.1484 7.81651 20.5218 7.11133 21.3336 7.11133H23.704C24.3558 7.11133 24.8892 7.64466 24.8892 8.29651C24.8892 8.77651 24.5158 9.4817 23.704 9.4817Z" fill="#997FD1"/>
<path id="Vector_10" d="M28.445 9.4817C29.0995 9.4817 29.6301 8.95107 29.6301 8.29651C29.6301 7.64195 29.0995 7.11133 28.445 7.11133C27.7904 7.11133 27.2598 7.64195 27.2598 8.29651C27.2598 8.95107 27.7904 9.4817 28.445 9.4817Z" fill="#997FD1"/>
<path id="Vector_11" d="M7.11017 14.2227H8.29536V18.3708H7.11017C6.78424 18.3708 6.51758 18.1041 6.51758 17.7782V14.8152C6.51758 14.4893 6.78424 14.2227 7.11017 14.2227Z" fill="#997FD1"/>
<path id="Vector_12" d="M7.11017 20.7412H8.29536V24.8894H7.11017C6.78424 24.8894 6.51758 24.6227 6.51758 24.2968V21.3338C6.51758 21.0079 6.78424 20.7412 7.11017 20.7412Z" fill="#997FD1"/>
<path id="Vector_13" d="M31.9992 52.7405H17.777C17.1251 52.7405 16.5918 52.2072 16.5918 51.5553C16.5918 51.0753 16.9651 50.3701 17.777 50.3701H31.9992C32.6511 50.3701 33.1844 50.9035 33.1844 51.5553C33.1844 52.0353 32.8111 52.7405 31.9992 52.7405Z" fill="#997FD1"/>
<path id="Vector_14" d="M54.5176 18.9629H26.0731C24.1095 18.9629 22.5176 20.5548 22.5176 22.5184V41.4814C22.5176 43.4451 24.1095 45.037 26.0731 45.037H54.5176C56.4813 45.037 58.0731 43.4451 58.0731 41.4814V22.5184C58.0731 20.5548 56.4813 18.9629 54.5176 18.9629Z" fill="#6947E2"/>
<path id="Vector_15" d="M58.0731 23.1113H22.5176V29.0373H58.0731V23.1113Z" fill="#988FFF"/>
<path id="Vector_16" d="M37.3341 33.1852H34.9637C34.6378 33.1852 34.3711 32.9185 34.3711 32.5926C34.3711 32.4207 34.5015 32 34.9637 32H37.3341C37.66 32 37.9266 32.2667 37.9266 32.5926C37.9266 32.7644 37.7963 33.1852 37.3341 33.1852Z" fill="#988FFF"/>
<path id="Vector_17" d="M39.7044 36.7408H34.9637C34.6378 36.7408 34.3711 36.4742 34.3711 36.1483C34.3711 35.9764 34.5015 35.5557 34.9637 35.5557H39.7044C40.0304 35.5557 40.297 35.8223 40.297 36.1483C40.297 36.3201 40.1666 36.7408 39.7044 36.7408Z" fill="#988FFF"/>
<g id="Group">
<path id="Vector_18" d="M52.7402 34.3704H54.518V33.1852C54.518 32.5333 53.9847 32 53.3328 32H52.7402V34.3704Z" fill="white"/>
<path id="Vector_19" d="M52.1486 35.5556C51.8227 35.5556 51.556 35.2889 51.556 34.963V32H47.4078C46.756 32 46.2227 32.5333 46.2227 33.1852V34.3704H48.593C48.919 34.3704 49.1856 34.637 49.1856 34.963V37.9259H53.3338C53.9856 37.9259 54.519 37.3926 54.519 36.7407V35.5556H52.1486Z" fill="white"/>
<path id="Vector_20" d="M48.0004 35.5557H46.2227V36.7408C46.2227 37.3927 46.756 37.926 47.4078 37.926H48.0004V35.5557Z" fill="white"/>
</g>
<path id="Vector_21" d="M55.7037 26.6662C59.9583 26.6662 63.4074 23.2171 63.4074 18.9625C63.4074 14.7079 59.9583 11.2588 55.7037 11.2588C51.4491 11.2588 48 14.7079 48 18.9625C48 23.2171 51.4491 26.6662 55.7037 26.6662Z" fill="#00C99F"/>
<path id="Vector_22" d="M54.2756 21.5763L51.9053 19.206C51.443 18.7437 51.443 17.9911 51.9053 17.5289C52.3675 17.0667 53.1201 17.0667 53.5823 17.5289L55.1171 19.0637L57.8371 16.3437C58.2993 15.8815 59.0519 15.8815 59.5142 16.3437C59.9764 16.806 59.9764 17.5586 59.5142 18.0208L55.9586 21.5763C55.4964 22.0386 54.7438 22.0386 54.2816 21.5763H54.2756Z" fill="white"/>
<path id="Vector_23" d="M18.9627 35.5555C18.6605 35.5555 18.3583 35.437 18.1272 35.2058L15.7568 32.8355C15.2946 32.3733 15.2946 31.6207 15.7568 31.1584L18.1272 28.7881C18.5894 28.3259 19.342 28.3259 19.8042 28.7881C20.2665 29.2503 20.2665 30.0029 19.8042 30.4651L18.2694 31.9999L19.8042 33.5347C20.5509 34.2814 20.0116 35.5555 18.9687 35.5555H18.9627Z" fill="#D4D1FB"/>
<path id="Vector_24" d="M43.8524 47.9996C44.1796 47.9996 44.445 47.7343 44.445 47.407C44.445 47.0798 44.1796 46.8145 43.8524 46.8145C43.5251 46.8145 43.2598 47.0798 43.2598 47.407C43.2598 47.7343 43.5251 47.9996 43.8524 47.9996Z" fill="#544E6B"/>
<path id="Vector_25" d="M46.8152 47.9996C47.1425 47.9996 47.4078 47.7343 47.4078 47.407C47.4078 47.0798 47.1425 46.8145 46.8152 46.8145C46.488 46.8145 46.2227 47.0798 46.2227 47.407C46.2227 47.7343 46.488 47.9996 46.8152 47.9996Z" fill="#544E6B"/>
</g>
<defs>
<clipPath id="clip0_3403_14198">
<rect width="64" height="64" fill="white"/>
</clipPath>
</defs>
</svg>
