<svg width="65" height="64" viewBox="0 0 65 64" fill="none" xmlns="http://www.w3.org/2000/svg">
<g id="Image" clip-path="url(#clip0_3403_13525)">
<path id="Vector" d="M32.0242 61.6294C48.3882 61.6294 61.6538 48.3637 61.6538 31.9997C61.6538 15.6358 48.3882 2.37012 32.0242 2.37012C15.6602 2.37012 2.39453 15.6358 2.39453 31.9997C2.39453 48.3637 15.6602 61.6294 32.0242 61.6294Z" fill="#E7E9FF"/>
<path id="Vector_2" d="M1.77778 3.55556C2.75962 3.55556 3.55556 2.75962 3.55556 1.77778C3.55556 0.795938 2.75962 0 1.77778 0C0.795938 0 0 0.795938 0 1.77778C0 2.75962 0.795938 3.55556 1.77778 3.55556Z" fill="#FF4D69"/>
<path id="Vector_3" d="M55.1352 5.92567C56.117 5.92567 56.913 5.12973 56.913 4.14789C56.913 3.16606 56.117 2.37012 55.1352 2.37012C54.1534 2.37012 53.3574 3.16606 53.3574 4.14789C53.3574 5.12973 54.1534 5.92567 55.1352 5.92567Z" fill="#00C99F"/>
<path id="Vector_4" d="M62.2465 59.2597C63.2284 59.2597 64.0243 58.4637 64.0243 57.4819C64.0243 56.5 63.2284 55.7041 62.2465 55.7041C61.2647 55.7041 60.4688 56.5 60.4688 57.4819C60.4688 58.4637 61.2647 59.2597 62.2465 59.2597Z" fill="#FFA100"/>
<path id="Vector_5" d="M6.54145 63.9999C7.52329 63.9999 8.31923 63.204 8.31923 62.2221C8.31923 61.2403 7.52329 60.4443 6.54145 60.4443C5.55961 60.4443 4.76367 61.2403 4.76367 62.2221C4.76367 63.204 5.55961 63.9999 6.54145 63.9999Z" fill="#00C99F"/>
<path id="Vector_6" d="M42.0974 34.3701V41.5879C42.0974 42.2872 41.89 42.9746 41.4988 43.5612L40.3255 45.3272C39.9344 45.9138 39.727 46.5953 39.727 47.3005V50.9627H24.3196V47.3005C24.3196 46.6012 24.1122 45.9138 23.7211 45.3272L22.5477 43.5612C22.1566 42.9746 21.9492 42.2931 21.9492 41.5879V34.3701H42.0974Z" fill="#D4D1FB"/>
<path id="Vector_7" d="M38.5427 33.1967V38.5182C38.5427 39.17 38.0094 39.7034 37.3575 39.7034C36.8775 39.7034 36.1724 39.33 36.1724 38.5182V33.1848C34.8627 33.1848 33.802 34.2456 33.802 35.5552V39.01L33.4524 39.3537C32.5338 40.2782 32.0242 41.5048 32.0242 42.8085C32.0242 43.8871 32.1605 44.8234 32.8598 45.8486C33.1738 46.3108 33.0909 46.9271 32.6998 47.3241C32.1842 47.8397 31.3072 47.7804 30.8983 47.1819C29.1857 44.6634 29.0968 40.7345 31.4316 38.05V35.5552C31.4316 32.9478 33.5472 30.8263 36.1487 30.8145C37.4642 30.8086 38.5427 31.8811 38.5427 33.1967Z" fill="#988FFF"/>
<path id="Vector_8" d="M16.3503 8.78826C14.5844 9.96752 14.1222 11.3897 13.6125 12.6638C13.417 13.1616 12.7059 13.1616 12.5103 12.6638C12.0007 11.3897 11.5385 9.97344 9.77253 8.78826C9.41697 8.56307 9.41697 8.03566 9.77253 7.80455C11.5385 6.62529 12.0007 5.20307 12.5103 3.929C12.7059 3.43122 13.417 3.43122 13.6125 3.929C14.1222 5.20307 14.5844 6.61937 16.3503 7.80455C16.7059 8.02974 16.7059 8.55715 16.3503 8.78826Z" fill="#FFA100"/>
<path id="Vector_9" d="M57.239 31.3068C55.473 32.4861 55.0108 33.9083 54.5012 35.1824C54.3056 35.6801 53.5945 35.6801 53.399 35.1824C52.8893 33.9083 52.4271 32.492 50.6612 31.3068C50.3056 31.0816 50.3056 30.5542 50.6612 30.3231C52.4271 29.1438 52.8893 27.7216 53.399 26.4476C53.5945 25.9498 54.3056 25.9498 54.5012 26.4476C55.0108 27.7216 55.473 29.1379 57.239 30.3231C57.5945 30.5483 57.5945 31.0757 57.239 31.3068Z" fill="#FFA100"/>
<path id="Vector_10" d="M32.0231 39.7034C41.5142 39.7034 49.2083 32.0093 49.2083 22.5182C49.2083 13.0271 41.5142 5.33301 32.0231 5.33301C22.532 5.33301 14.8379 13.0271 14.8379 22.5182C14.8379 32.0093 22.532 39.7034 32.0231 39.7034Z" fill="#FFA100"/>
<path id="Vector_11" d="M29.5314 27.415L25.5782 23.415C24.8073 22.635 24.8073 21.365 25.5782 20.585C26.349 19.805 27.6042 19.805 28.3751 20.585L30.9348 23.175L35.4711 18.585C36.242 17.805 37.4971 17.805 38.268 18.585C39.0389 19.365 39.0389 20.635 38.268 21.415L32.3382 27.415C31.5673 28.195 30.3121 28.195 29.5413 27.415H29.5314Z" fill="white"/>
<path id="Vector_12" d="M40.9122 50.9629H23.1344C22.4798 50.9629 21.9492 51.4935 21.9492 52.1481V55.7036C21.9492 56.3582 22.4798 56.8888 23.1344 56.8888H40.9122C41.5667 56.8888 42.0974 56.3582 42.0974 55.7036V52.1481C42.0974 51.4935 41.5667 50.9629 40.9122 50.9629Z" fill="#8260FC"/>
<path id="Vector_13" d="M40.9125 56.8887V60.2664C35.3066 62.0442 28.9896 62.1213 23.1348 60.2664V56.8887H40.9125Z" fill="#6947E2"/>
<path id="Vector_14" d="M37.3569 39.7033V31.9996C37.3569 31.3478 36.8236 30.8145 36.1717 30.8145C34.2102 30.8145 32.6162 32.4085 32.6162 34.37V38.5182C30.2043 40.93 30.2339 45.0248 32.6162 47.407L32.9125 47.7033" fill="#D4D1FB"/>
</g>
<defs>
<clipPath id="clip0_3403_13525">
<rect width="64.0237" height="64" fill="white"/>
</clipPath>
</defs>
</svg>
