<svg width="64" height="64" viewBox="0 0 64 64" fill="none" xmlns="http://www.w3.org/2000/svg">
<g id="Frame" clip-path="url(#clip0_3413_15849)">
<path id="Vector" d="M29.6296 64.0005C45.9936 64.0005 59.2593 50.7348 59.2593 34.3708C59.2593 18.0068 45.9936 4.74121 29.6296 4.74121C13.2656 4.74121 0 18.0068 0 34.3708C0 50.7348 13.2656 64.0005 29.6296 64.0005Z" fill="#D4D1FB"/>
<path id="Vector_2" d="M55.1121 17.778C55.1121 20.1721 51.9298 21.0728 50.6972 18.9632H42.6676C42.0158 18.9632 41.4824 18.4299 41.4824 17.778C41.4824 17.1262 42.0158 16.5928 42.6676 16.5928H50.6972C51.9239 14.4832 55.1121 15.384 55.1121 17.778Z" fill="#AFA5ED"/>
<path id="Vector_3" d="M60.4454 4.74092C60.4454 7.135 57.2632 8.03574 56.0306 5.92611H50.3713C50.0454 5.92611 49.7787 6.19277 49.7787 6.5187V9.48166C49.7787 11.1172 48.4513 12.4446 46.8158 12.4446H42.6676C42.0158 12.4446 41.4824 11.9113 41.4824 11.2594C41.4824 10.6076 42.0158 10.0743 42.6676 10.0743H46.8158C47.1417 10.0743 47.4083 9.80759 47.4083 9.48166V6.5187C47.4083 4.88314 48.7358 3.55574 50.3713 3.55574H56.0306C57.2572 1.44611 60.4454 2.34685 60.4454 4.74092Z" fill="#AFA5ED"/>
<path id="Vector_4" d="M49.7787 26.0743V29.0373C49.7787 29.3632 50.0454 29.6298 50.3713 29.6298H56.0306C57.2572 27.5202 60.4454 28.421 60.4454 30.815C60.4454 33.2091 57.2632 34.1098 56.0306 32.0002H50.3713C48.7358 32.0002 47.4083 30.6728 47.4083 29.0373V26.0743C47.4083 25.7484 47.1417 25.4817 46.8158 25.4817H42.6676C42.0158 25.4817 41.4824 24.9484 41.4824 24.2965C41.4824 23.6447 42.0158 23.1113 42.6676 23.1113H46.8158C48.4513 23.1113 49.7787 24.4387 49.7787 26.0743Z" fill="#AFA5ED"/>
<path id="Vector_5" d="M7.70312 17.778C7.70312 20.1721 10.8853 21.0728 12.1179 18.9632H20.1476C20.7994 18.9632 21.3328 18.4299 21.3328 17.778C21.3328 17.1262 20.7994 16.5928 20.1476 16.5928H12.1179C10.8913 14.4832 7.70312 15.384 7.70312 17.778Z" fill="#AFA5ED"/>
<path id="Vector_6" d="M21.3331 11.2589C21.3331 11.9108 20.7998 12.4441 20.148 12.4441H15.9998C14.4768 12.4441 13.2146 11.2885 13.0605 9.80705C13.8191 9.2915 14.6013 8.81742 15.4072 8.37891V9.48113C15.4072 9.80705 15.6739 10.0737 15.9998 10.0737H20.148C20.7998 10.0737 21.3331 10.6071 21.3331 11.2589Z" fill="#AFA5ED"/>
<path id="Vector_7" d="M13.0378 26.0743V29.0373C13.0378 29.3632 12.7711 29.6298 12.4452 29.6298H6.78591C5.55924 27.5202 2.37109 28.421 2.37109 30.815C2.37109 33.2091 5.55332 34.1098 6.78591 32.0002H12.4452C14.0807 32.0002 15.4081 30.6728 15.4081 29.0373V26.0743C15.4081 25.7484 15.6748 25.4817 16.0007 25.4817H20.1489C20.8007 25.4817 21.3341 24.9484 21.3341 24.2965C21.3341 23.6447 20.8007 23.1113 20.1489 23.1113H16.0007C14.3652 23.1113 13.0378 24.4387 13.0378 26.0743Z" fill="#AFA5ED"/>
<path id="Vector_8" d="M31.4066 32.5925C39.5886 32.5925 46.2214 25.9597 46.2214 17.7777C46.2214 9.59571 39.5886 2.96289 31.4066 2.96289C23.2246 2.96289 16.5918 9.59571 16.5918 17.7777C16.5918 25.9597 23.2246 32.5925 31.4066 32.5925Z" fill="#FFA100"/>
<path id="Vector_9" d="M31.4065 29.6295C37.9521 29.6295 43.2584 24.3232 43.2584 17.7776C43.2584 11.232 37.9521 5.92578 31.4065 5.92578C24.8609 5.92578 19.5547 11.232 19.5547 17.7776C19.5547 24.3232 24.8609 29.6295 31.4065 29.6295Z" fill="#6947E2"/>
<path id="Vector_10" d="M39.1105 13.6301V21.9264C39.1105 22.1516 38.9861 22.359 38.7846 22.4538C31.0157 26.3353 31.6024 26.0745 31.4068 26.0745C31.2113 26.0745 31.7742 26.3294 24.0291 22.4538C23.8276 22.359 23.7031 22.1516 23.7031 21.9264V13.6301C23.7031 13.4049 23.8276 13.1975 24.0291 13.1027L31.1402 9.54714C31.3061 9.45825 31.5076 9.45825 31.6735 9.54714L38.7846 13.1027C38.9861 13.1975 39.1105 13.4049 39.1105 13.6301Z" fill="#8260FC"/>
<g id="Group">
<path id="Vector_11" d="M27.8516 15.4072C27.5257 15.4072 27.259 15.6739 27.259 15.9998V17.5998L25.9731 15.6739C25.6472 15.188 24.8887 15.4191 24.8887 15.9998V19.5554C24.8887 19.8813 25.1553 20.148 25.4813 20.148C25.8072 20.148 26.0739 19.8813 26.0739 19.5554V17.9554L27.3598 19.8813C27.6857 20.3672 28.4442 20.1361 28.4442 19.5554V15.9998C28.4442 15.6739 28.1776 15.4072 27.8516 15.4072Z" fill="white"/>
<path id="Vector_12" d="M32.5919 15.4072H30.2215C29.8956 15.4072 29.6289 15.6739 29.6289 15.9998V19.5554C29.6289 19.8813 29.8956 20.148 30.2215 20.148C30.5474 20.148 30.8141 19.8813 30.8141 19.5554V18.9628H31.9993C32.3252 18.9628 32.5919 18.6961 32.5919 18.3702C32.5919 18.1983 32.4615 17.7776 31.9993 17.7776H30.8141V16.5924H32.5919C32.9178 16.5924 33.1845 16.3257 33.1845 15.9998C33.1845 15.6739 32.9178 15.4072 32.5919 15.4072Z" fill="white"/>
<path id="Vector_13" d="M37.3341 15.4072H34.9637C34.6378 15.4072 34.3711 15.6739 34.3711 15.9998C34.3711 16.3257 34.6378 16.5924 34.9637 16.5924H35.5563V19.5554C35.5563 19.8813 35.8229 20.148 36.1489 20.148C36.4748 20.148 36.7415 19.8813 36.7415 19.5554V16.5924H37.3341C37.66 16.5924 37.9266 16.3257 37.9266 15.9998C37.9266 15.6739 37.66 15.4072 37.3341 15.4072Z" fill="white"/>
</g>
<path id="Vector_14" d="M51.8458 46.1449L28.1362 59.3834C27.1584 59.9226 26.0562 60.2071 24.948 60.2071C24.231 60.2071 25.0369 60.296 12.2428 58.3582C9.908 56.6634 7.70948 54.5241 5.92578 52.136V40.8886C5.92578 40.6515 6.06208 40.4441 6.27541 40.3493L9.70652 38.8263C11.0458 38.2278 12.5273 37.9967 13.991 38.1626L26.5243 39.5552C27.6206 39.6737 28.4443 40.5923 28.4443 41.6945C28.4443 44.2604 26.6132 46.4649 24.0947 46.9389L21.2384 47.4723L28.4087 49.1611L46.6013 42.5893C48.5806 41.8782 50.7791 42.7552 51.7213 44.6337L52.0828 45.3626C52.225 45.6471 52.1184 45.9908 51.8458 46.1449Z" fill="#AFA5ED"/>
<path id="Vector_15" d="M4.74067 7.11122C5.72251 7.11122 6.51845 6.31528 6.51845 5.33344C6.51845 4.3516 5.72251 3.55566 4.74067 3.55566C3.75883 3.55566 2.96289 4.3516 2.96289 5.33344C2.96289 6.31528 3.75883 7.11122 4.74067 7.11122Z" fill="#FF4D69"/>
<path id="Vector_16" d="M43.852 3.55556C44.8338 3.55556 45.6298 2.75962 45.6298 1.77778C45.6298 0.795938 44.8338 0 43.852 0C42.8702 0 42.0742 0.795938 42.0742 1.77778C42.0742 2.75962 42.8702 3.55556 43.852 3.55556Z" fill="#00C99F"/>
<path id="Vector_17" d="M62.2231 59.8515C63.2049 59.8515 64.0009 59.0555 64.0009 58.0737C64.0009 57.0918 63.2049 56.2959 62.2231 56.2959C61.2413 56.2959 60.4453 57.0918 60.4453 58.0737C60.4453 59.0555 61.2413 59.8515 62.2231 59.8515Z" fill="#FFA100"/>
<path id="Vector_18" d="M6.51801 63.9999C7.49985 63.9999 8.29579 63.204 8.29579 62.2221C8.29579 61.2403 7.49985 60.4443 6.51801 60.4443C5.53617 60.4443 4.74023 61.2403 4.74023 62.2221C4.74023 63.204 5.53617 63.9999 6.51801 63.9999Z" fill="#00C99F"/>
<path id="Vector_19" d="M8.2957 37.9262V54.9218C3.45422 49.9084 0.479401 43.2833 0.0527344 36.1484H6.51792C7.50162 36.1484 8.2957 36.9425 8.2957 37.9262Z" fill="#6947E2"/>
</g>
<defs>
<clipPath id="clip0_3413_15849">
<rect width="64" height="64" fill="white"/>
</clipPath>
</defs>
</svg>
