<svg width="64" height="64" viewBox="0 0 64 64" fill="none" xmlns="http://www.w3.org/2000/svg">
<g id="Image" clip-path="url(#clip0_3403_13261)">
<path id="Vector" d="M34.3699 61.6294C50.7339 61.6294 63.9995 48.3637 63.9995 31.9997C63.9995 15.6358 50.7339 2.37012 34.3699 2.37012C18.0059 2.37012 4.74023 15.6358 4.74023 31.9997C4.74023 48.3637 18.0059 61.6294 34.3699 61.6294Z" fill="#E7E9FF"/>
<path id="Vector_2" d="M14.2231 3.55556C15.2049 3.55556 16.0009 2.75962 16.0009 1.77778C16.0009 0.795938 15.2049 0 14.2231 0C13.2413 0 12.4453 0.795938 12.4453 1.77778C12.4453 2.75962 13.2413 3.55556 14.2231 3.55556Z" fill="#00C99F"/>
<path id="Vector_3" d="M62.2231 8.88856C63.2049 8.88856 64.0009 8.09263 64.0009 7.11079C64.0009 6.12895 63.2049 5.33301 62.2231 5.33301C61.2413 5.33301 60.4453 6.12895 60.4453 7.11079C60.4453 8.09263 61.2413 8.88856 62.2231 8.88856Z" fill="#FFA100"/>
<path id="Vector_4" d="M55.1118 63.9999C56.0936 63.9999 56.8895 63.204 56.8895 62.2221C56.8895 61.2403 56.0936 60.4443 55.1118 60.4443C54.1299 60.4443 53.334 61.2403 53.334 62.2221C53.334 63.204 54.1299 63.9999 55.1118 63.9999Z" fill="#00C99F"/>
<path id="Vector_5" d="M1.77778 59.8515C2.75962 59.8515 3.55556 59.0555 3.55556 58.0737C3.55556 57.0918 2.75962 56.2959 1.77778 56.2959C0.795938 56.2959 0 57.0918 0 58.0737C0 59.0555 0.795938 59.8515 1.77778 59.8515Z" fill="#FF4D69"/>
<path id="Vector_6" d="M60.4439 17.9257V46.0739C59.1225 48.5213 57.4573 50.7672 55.5195 52.7405H9.48098C6.86172 52.7405 4.74023 50.619 4.74023 47.9998V13.6294C4.74023 11.0102 6.86172 8.88867 9.48098 8.88867H52.9002C55.9817 11.3539 58.5595 14.4294 60.4439 17.9257Z" fill="#8260FC"/>
<path id="Vector_7" d="M56.8895 15.9999V45.6295C54.928 45.6295 53.3339 47.2236 53.3339 49.1851H11.8524C11.8524 47.2236 10.2584 45.6295 8.29688 45.6295V15.9999C10.2584 15.9999 11.8524 14.4058 11.8524 12.4443H53.3339C53.3339 14.4058 54.928 15.9999 56.8895 15.9999Z" fill="#6947E2"/>
<path id="Vector_8" d="M43.8513 35.5553H21.3328C21.0069 35.5553 20.7402 35.2886 20.7402 34.9627C20.7402 34.7909 20.8706 34.3701 21.3328 34.3701H43.8513C44.1773 34.3701 44.4439 34.6368 44.4439 34.9627C44.4439 35.1346 44.3136 35.5553 43.8513 35.5553Z" fill="#988FFF"/>
<path id="Vector_9" d="M46.2229 39.111H18.9637C18.6378 39.111 18.3711 38.8443 18.3711 38.5184C18.3711 38.3465 18.5015 37.9258 18.9637 37.9258H46.2229C46.5489 37.9258 46.8155 38.1924 46.8155 38.5184C46.8155 38.6902 46.6852 39.111 46.2229 39.111Z" fill="#988FFF"/>
<path id="Vector_10" d="M46.2229 42.6666H18.9637C18.6378 42.6666 18.3711 42.4 18.3711 42.074C18.3711 41.9022 18.5015 41.4814 18.9637 41.4814H46.2229C46.5489 41.4814 46.8155 41.7481 46.8155 42.074C46.8155 42.2459 46.6852 42.6666 46.2229 42.6666Z" fill="#988FFF"/>
<path id="Vector_11" d="M40.8883 46.2223H24.2957C23.9698 46.2223 23.7031 45.9556 23.7031 45.6297C23.7031 45.4579 23.8335 45.0371 24.2957 45.0371H40.8883C41.2142 45.0371 41.4809 45.3038 41.4809 45.6297C41.4809 45.8016 41.3505 46.2223 40.8883 46.2223Z" fill="#988FFF"/>
<path id="Vector_12" d="M40.2961 19.5559V27.8522C40.2961 28.0774 40.1716 28.2848 39.9702 28.3796C32.2013 32.2611 32.7879 32.0003 32.5924 32.0003C32.3968 32.0003 32.9598 32.2551 25.2146 28.3796C25.0131 28.2848 24.8887 28.0774 24.8887 27.8522V19.5559C24.8887 19.3307 25.0131 19.1233 25.2146 19.0285L32.3257 15.4729C32.4916 15.384 32.6931 15.384 32.859 15.4729L39.9702 19.0285C40.1716 19.1233 40.2961 19.3307 40.2961 19.5559Z" fill="#FFA100"/>
<g id="Group">
<path id="Vector_13" d="M29.0372 21.333C28.7113 21.333 28.4446 21.5997 28.4446 21.9256V23.5256L27.1587 21.5997C26.8327 21.1137 26.0742 21.3449 26.0742 21.9256V25.4812C26.0742 25.8071 26.3409 26.0737 26.6668 26.0737C26.9927 26.0737 27.2594 25.8071 27.2594 25.4812V23.8812L28.5453 25.8071C28.8713 26.293 29.6298 26.0619 29.6298 25.4812V21.9256C29.6298 21.5997 29.3631 21.333 29.0372 21.333Z" fill="white"/>
<path id="Vector_14" d="M33.7774 21.333H31.407C31.0811 21.333 30.8145 21.5997 30.8145 21.9256V25.4812C30.8145 25.8071 31.0811 26.0737 31.407 26.0737C31.733 26.0737 31.9996 25.8071 31.9996 25.4812V24.8886H33.1848C33.5107 24.8886 33.7774 24.6219 33.7774 24.296C33.7774 24.1241 33.647 23.7034 33.1848 23.7034H31.9996V22.5182H33.7774C34.1033 22.5182 34.37 22.2515 34.37 21.9256C34.37 21.5997 34.1033 21.333 33.7774 21.333Z" fill="white"/>
<path id="Vector_15" d="M38.5196 21.333H36.1492C35.8233 21.333 35.5566 21.5997 35.5566 21.9256C35.5566 22.2515 35.8233 22.5182 36.1492 22.5182H36.7418V25.4812C36.7418 25.8071 37.0085 26.0737 37.3344 26.0737C37.6603 26.0737 37.927 25.8071 37.927 25.4812V22.5182H38.5196C38.8455 22.5182 39.1122 22.2515 39.1122 21.9256C39.1122 21.5997 38.8455 21.333 38.5196 21.333Z" fill="white"/>
</g>
<path id="Vector_16" d="M48.5924 49.1855V57.9915C45.3569 59.7752 41.7539 60.9604 37.9258 61.4167V49.1855H48.5924Z" fill="#D4D1FB"/>
<path id="Vector_17" d="M43.2592 57.4813C47.8411 57.4813 51.5555 53.7669 51.5555 49.185C51.5555 44.6031 47.8411 40.8887 43.2592 40.8887C38.6773 40.8887 34.9629 44.6031 34.9629 49.185C34.9629 53.7669 38.6773 57.4813 43.2592 57.4813Z" fill="#00C99F"/>
<path id="Vector_18" d="M41.8303 52.3916L39.4599 50.0212C38.9977 49.559 38.9977 48.8064 39.4599 48.3442C39.9222 47.8819 40.6748 47.8819 41.137 48.3442L42.6718 49.879L45.9844 46.5664C46.4466 46.1042 47.1992 46.1042 47.6614 46.5664C48.1237 47.0286 48.1237 47.7812 47.6614 48.2434L43.5133 52.3916C43.0511 52.8538 42.2985 52.8538 41.8362 52.3916H41.8303Z" fill="white"/>
<path id="Vector_19" d="M21.9254 24.8889C22.58 24.8889 23.1106 24.3583 23.1106 23.7037C23.1106 23.0492 22.58 22.5186 21.9254 22.5186C21.2709 22.5186 20.7402 23.0492 20.7402 23.7037C20.7402 24.3583 21.2709 24.8889 21.9254 24.8889Z" fill="#8260FC"/>
<path id="Vector_20" d="M17.777 24.8889C18.4315 24.8889 18.9622 24.3583 18.9622 23.7037C18.9622 23.0492 18.4315 22.5186 17.777 22.5186C17.1224 22.5186 16.5918 23.0492 16.5918 23.7037C16.5918 24.3583 17.1224 24.8889 17.777 24.8889Z" fill="#8260FC"/>
<path id="Vector_21" d="M47.4078 24.8889C48.0624 24.8889 48.593 24.3583 48.593 23.7037C48.593 23.0492 48.0624 22.5186 47.4078 22.5186C46.7533 22.5186 46.2227 23.0492 46.2227 23.7037C46.2227 24.3583 46.7533 24.8889 47.4078 24.8889Z" fill="#8260FC"/>
<path id="Vector_22" d="M43.2594 24.8889C43.914 24.8889 44.4446 24.3583 44.4446 23.7037C44.4446 23.0492 43.914 22.5186 43.2594 22.5186C42.6048 22.5186 42.0742 23.0492 42.0742 23.7037C42.0742 24.3583 42.6048 24.8889 43.2594 24.8889Z" fill="#8260FC"/>
</g>
<defs>
<clipPath id="clip0_3403_13261">
<rect width="64" height="64" fill="white"/>
</clipPath>
</defs>
</svg>
