<svg width="64" height="64" viewBox="0 0 64 64" fill="none" xmlns="http://www.w3.org/2000/svg">
<g id="Image" clip-path="url(#clip0_3403_13285)">
<path id="Vector" d="M29.6296 59.2593C45.9936 59.2593 59.2593 45.9936 59.2593 29.6296C59.2593 13.2656 45.9936 0 29.6296 0C13.2656 0 0 13.2656 0 29.6296C0 45.9936 13.2656 59.2593 29.6296 59.2593Z" fill="#E7E9FF"/>
<path id="Vector_2" d="M5.92622 3.55556C6.90805 3.55556 7.70399 2.75962 7.70399 1.77778C7.70399 0.795938 6.90805 0 5.92622 0C4.94438 0 4.14844 0.795938 4.14844 1.77778C4.14844 2.75962 4.94438 3.55556 5.92622 3.55556Z" fill="#00C99F"/>
<path id="Vector_3" d="M62.2231 8.88856C63.2049 8.88856 64.0009 8.09263 64.0009 7.11079C64.0009 6.12895 63.2049 5.33301 62.2231 5.33301C61.2413 5.33301 60.4453 6.12895 60.4453 7.11079C60.4453 8.09263 61.2413 8.88856 62.2231 8.88856Z" fill="#FFA100"/>
<path id="Vector_4" d="M55.1118 63.9999C56.0936 63.9999 56.8895 63.204 56.8895 62.2221C56.8895 61.2403 56.0936 60.4443 55.1118 60.4443C54.1299 60.4443 53.334 61.2403 53.334 62.2221C53.334 63.204 54.1299 63.9999 55.1118 63.9999Z" fill="#00C99F"/>
<path id="Vector_5" d="M7.70356 61.037C8.6854 61.037 9.48134 60.2411 9.48134 59.2592C9.48134 58.2774 8.6854 57.4814 7.70356 57.4814C6.72172 57.4814 5.92578 58.2774 5.92578 59.2592C5.92578 60.2411 6.72172 61.037 7.70356 61.037Z" fill="#FF4D69"/>
<path id="Vector_6" d="M55.1121 28.444C55.1121 30.8381 51.9298 31.7389 50.6972 29.6292H42.6676C42.0158 29.6292 41.4824 29.0959 41.4824 28.444C41.4824 27.7922 42.0158 27.2589 42.6676 27.2589H50.6972C51.9239 25.1492 55.1121 26.05 55.1121 28.444Z" fill="#9B82FD"/>
<path id="Vector_7" d="M60.4454 15.9997C60.4454 18.3938 57.2632 19.2945 56.0306 17.1849H50.3713C50.0454 17.1849 49.7787 17.4516 49.7787 17.7775V20.7405C49.7787 22.376 48.4513 23.7034 46.8158 23.7034H42.6676C42.0158 23.7034 41.4824 23.1701 41.4824 22.5182C41.4824 21.8664 42.0158 21.333 42.6676 21.333H46.8158C47.1417 21.333 47.4083 21.0664 47.4083 20.7405V17.7775C47.4083 16.1419 48.7358 14.8145 50.3713 14.8145H56.0306C57.2572 12.7049 60.4454 13.6056 60.4454 15.9997Z" fill="#9B82FD"/>
<path id="Vector_8" d="M49.7787 36.1485V39.1115C49.7787 39.4374 50.0454 39.7041 50.3713 39.7041H56.0306C57.2572 37.5944 60.4454 38.4952 60.4454 40.8893C60.4454 43.2833 57.2632 44.1841 56.0306 42.0744H50.3713C48.7358 42.0744 47.4083 40.747 47.4083 39.1115V36.1485C47.4083 35.8226 47.1417 35.5559 46.8158 35.5559H42.6676C42.0158 35.5559 41.4824 35.0226 41.4824 34.3707C41.4824 33.7189 42.0158 33.1855 42.6676 33.1855H46.8158C48.4513 33.1855 49.7787 34.513 49.7787 36.1485Z" fill="#9B82FD"/>
<path id="Vector_9" d="M36.7407 5.33326V50.3703C8.58067 50.3703 8.53919 50.394 8.47993 50.3703C6.23993 48.0947 4.37326 45.4577 2.96289 42.5599V16.7051C5.7303 11.0044 10.471 5.99104 16.7051 2.96289H34.3703C35.6799 2.96289 36.7407 4.02363 36.7407 5.33326Z" fill="#988FFF"/>
<path id="Vector_10" d="M43.8524 15.407V55.7033H15.5561C14.0154 54.8678 12.6169 53.9492 11.1887 52.8115C10.0391 51.9166 8.61688 50.5359 8.29688 50.1803V9.07812C8.54576 8.80553 8.8065 8.54479 9.0791 8.2959H36.7413L43.8524 15.407Z" fill="#D4D1FB"/>
<path id="Vector_11" d="M17.7775 23.7034C21.0503 23.7034 23.7034 21.0503 23.7034 17.7775C23.7034 14.5047 21.0503 11.8516 17.7775 11.8516C14.5047 11.8516 11.8516 14.5047 11.8516 17.7775C11.8516 21.0503 14.5047 23.7034 17.7775 23.7034Z" fill="#FFA100"/>
<path id="Vector_12" d="M20.6406 17.4519L18.2702 13.8963C18.051 13.5645 17.5058 13.5645 17.2865 13.8963L14.9161 17.4519C14.7858 17.6534 14.7858 17.9082 14.9161 18.1097L17.2865 21.6652C17.5235 22.0149 18.0391 22.0149 18.2702 21.6652L20.6406 18.1097C20.771 17.9082 20.771 17.6534 20.6406 17.4519ZM17.7784 15.2949L19.1176 17.3038L17.7784 17.7482L16.4391 17.3038L17.7784 15.2949ZM17.7784 20.2667L16.688 18.6312C17.9739 19.0578 17.565 19.0638 18.8628 18.6312L17.7724 20.2667H17.7784Z" fill="white"/>
<path id="Vector_13" d="M43.8513 15.407H39.1106C37.801 15.407 36.7402 14.3463 36.7402 13.0366V8.2959L43.8513 15.407Z" fill="#6947E2"/>
<path id="Vector_14" d="M53.3337 45.6299H35.5559C34.2468 45.6299 33.1855 46.6911 33.1855 48.0003V56.2965C33.1855 57.6057 34.2468 58.6669 35.5559 58.6669H53.3337C54.6428 58.6669 55.7041 57.6057 55.7041 56.2965V48.0003C55.7041 46.6911 54.6428 45.6299 53.3337 45.6299Z" fill="#6947E2"/>
<g id="Group">
<path id="Vector_15" d="M40.2966 49.1849C39.9707 49.1849 39.704 49.4516 39.704 49.7775V52.7405L37.2151 49.4219C36.8714 48.9656 36.1484 49.2086 36.1484 49.7775V54.5182C36.1484 54.8442 36.4151 55.1108 36.741 55.1108C37.067 55.1108 37.3336 54.8442 37.3336 54.5182V51.5553L39.8225 54.8738C40.1662 55.3301 40.8892 55.0871 40.8892 54.5182V49.7775C40.8892 49.4516 40.6225 49.1849 40.2966 49.1849Z" fill="white"/>
<path id="Vector_16" d="M45.629 49.1846H43.2586C42.9327 49.1846 42.666 49.4512 42.666 49.7772V54.5179C42.666 54.8438 42.9327 55.1105 43.2586 55.1105C43.5845 55.1105 43.8512 54.8438 43.8512 54.5179V53.3327H45.0364C45.3623 53.3327 45.629 53.0661 45.629 52.7401C45.629 52.5683 45.4986 52.1475 45.0364 52.1475H43.8512V50.3698H45.629C45.9549 50.3698 46.2216 50.1031 46.2216 49.7772C46.2216 49.4512 45.9549 49.1846 45.629 49.1846Z" fill="white"/>
<path id="Vector_17" d="M52.1481 49.1846H48.5926C48.2667 49.1846 48 49.4512 48 49.7772C48 50.1031 48.2667 50.3698 48.5926 50.3698H49.7778V54.5179C49.7778 54.8438 50.0444 55.1105 50.3704 55.1105C50.6963 55.1105 50.963 54.8438 50.963 54.5179V50.3698H52.1481C52.4741 50.3698 52.7407 50.1031 52.7407 49.7772C52.7407 49.4512 52.4741 49.1846 52.1481 49.1846Z" fill="white"/>
</g>
<path id="Vector_18" d="M39.7034 27.2594H12.4442C12.1182 27.2594 11.8516 26.9927 11.8516 26.6668C11.8516 26.495 11.9819 26.0742 12.4442 26.0742H39.7034C40.0293 26.0742 40.296 26.3409 40.296 26.6668C40.296 26.8387 40.1656 27.2594 39.7034 27.2594Z" fill="white"/>
<path id="Vector_19" d="M39.7034 30.8151H12.4442C12.1182 30.8151 11.8516 30.5484 11.8516 30.2225C11.8516 30.0506 11.9819 29.6299 12.4442 29.6299H39.7034C40.0293 29.6299 40.296 29.8965 40.296 30.2225C40.296 30.3943 40.1656 30.8151 39.7034 30.8151Z" fill="white"/>
<path id="Vector_20" d="M39.7034 34.3707H12.4442C12.1182 34.3707 11.8516 34.1041 11.8516 33.7781C11.8516 33.6063 11.9819 33.1855 12.4442 33.1855H39.7034C40.0293 33.1855 40.296 33.4522 40.296 33.7781C40.296 33.95 40.1656 34.3707 39.7034 34.3707Z" fill="white"/>
<path id="Vector_21" d="M39.7034 37.9264H12.4442C12.1182 37.9264 11.8516 37.6597 11.8516 37.3338C11.8516 37.162 11.9819 36.7412 12.4442 36.7412H39.7034C40.0293 36.7412 40.296 37.0079 40.296 37.3338C40.296 37.5057 40.1656 37.9264 39.7034 37.9264Z" fill="white"/>
<path id="Vector_22" d="M26.6664 41.4811H12.4442C12.1182 41.4811 11.8516 41.2144 11.8516 40.8885C11.8516 40.7166 11.9819 40.2959 12.4442 40.2959H26.6664C26.9923 40.2959 27.259 40.5626 27.259 40.8885C27.259 41.0603 27.1286 41.4811 26.6664 41.4811Z" fill="white"/>
<path id="Vector_23" d="M24.2969 49.1854C24.1488 49.1854 24.0955 49.1557 23.7873 49.0017C22.8806 48.5454 21.7962 48.4683 20.8303 48.7943C19.7873 49.1439 19.7577 49.1913 18.9399 49.1913C17.9918 49.1913 17.1443 48.6639 16.7177 47.8165C16.054 46.4891 14.1518 46.4891 13.488 47.8165L12.9666 48.8594C12.8184 49.1498 12.4629 49.2683 12.1725 49.1261C11.8821 48.978 11.7636 48.6224 11.9058 48.332L12.4273 47.2891C13.5295 45.0846 16.6762 45.0846 17.7784 47.2891C17.9977 47.7335 18.4421 48.0061 18.9399 48.0061C19.5325 48.0061 19.4199 48.018 20.451 47.6743C21.7073 47.2535 23.1236 47.3543 24.3088 47.9469L24.5518 48.0713C25.1088 48.3498 24.9132 49.1913 24.2851 49.1913L24.2969 49.1854Z" fill="white"/>
</g>
<defs>
<clipPath id="clip0_3403_13285">
<rect width="64" height="64" fill="white"/>
</clipPath>
</defs>
</svg>
