<svg width="81" height="80" viewBox="0 0 81 80" fill="none" xmlns="http://www.w3.org/2000/svg">
<g id="Image" clip-path="url(#clip0_3413_15592)">
<path id="Vector" d="M40.6679 77.037C61.1229 77.037 77.7049 60.4549 77.7049 39.9999C77.7049 19.5449 61.1229 2.96289 40.6679 2.96289C20.2129 2.96289 3.63086 19.5449 3.63086 39.9999C3.63086 60.4549 20.2129 77.037 40.6679 77.037Z" fill="#E7E9FF"/>
<path id="Vector_2" d="M10.2984 4.44444C11.5257 4.44444 12.5206 3.44952 12.5206 2.22222C12.5206 0.994923 11.5257 0 10.2984 0C9.07109 0 8.07617 0.994923 8.07617 2.22222C8.07617 3.44952 9.07109 4.44444 10.2984 4.44444Z" fill="#00C99F"/>
<path id="Vector_3" d="M78.4449 8.14855C79.6722 8.14855 80.6671 7.15362 80.6671 5.92632C80.6671 4.69902 79.6722 3.7041 78.4449 3.7041C77.2176 3.7041 76.2227 4.69902 76.2227 5.92632C76.2227 7.15362 77.2176 8.14855 78.4449 8.14855Z" fill="#FFA100"/>
<path id="Vector_4" d="M74.0015 80.0001C75.2288 80.0001 76.2237 79.0052 76.2237 77.7779C76.2237 76.5506 75.2288 75.5557 74.0015 75.5557C72.7742 75.5557 71.7793 76.5506 71.7793 77.7779C71.7793 79.0052 72.7742 80.0001 74.0015 80.0001Z" fill="#00C99F"/>
<path id="Vector_5" d="M2.89019 76.296C4.11749 76.296 5.11241 75.3011 5.11241 74.0738C5.11241 72.8465 4.11749 71.8516 2.89019 71.8516C1.66289 71.8516 0.667969 72.8465 0.667969 74.0738C0.667969 75.3011 1.66289 76.296 2.89019 76.296Z" fill="#FF4D69"/>
<path id="Vector_6" d="M23.6309 11.1113H69.5568C71.1938 11.1113 72.5198 12.4373 72.5198 14.0743V18.5187H23.6309V11.1113Z" fill="#714EFF"/>
<path id="Vector_7" d="M11.7794 11.1113H23.6312C26.0831 11.1113 28.0757 13.1039 28.0757 15.5558V18.5187H8.81641V14.0743C8.81641 12.4373 10.1423 11.1113 11.7794 11.1113Z" fill="#988FFF"/>
<path id="Vector_8" d="M72.5201 18.5186V58.8963C70.246 62.7334 67.2979 66.1186 63.8312 68.8889H17.5053C14.0386 66.1186 11.0905 62.7334 8.81641 58.8963V18.5186H72.5201Z" fill="#D4D1FB"/>
<path id="Vector_9" d="M70.2968 43.7035C70.2968 46.6961 66.319 47.822 64.7783 45.185H54.7412C53.9264 45.185 53.2598 44.5183 53.2598 43.7035C53.2598 42.8887 53.9264 42.222 54.7412 42.222H64.7783C66.3116 39.585 70.2968 40.7109 70.2968 43.7035Z" fill="#8A7FD1"/>
<path id="Vector_10" d="M76.9635 27.4076C76.9635 30.4002 72.9857 31.5261 71.445 28.8891H64.3709C63.9635 28.8891 63.6301 29.2224 63.6301 29.6298V33.3335C63.6301 35.378 61.9709 37.0372 59.9264 37.0372H54.7412C53.9264 37.0372 53.2598 36.3706 53.2598 35.5557C53.2598 34.7409 53.9264 34.0743 54.7412 34.0743H59.9264C60.3338 34.0743 60.6672 33.7409 60.6672 33.3335V29.6298C60.6672 27.5854 62.3264 25.9261 64.3709 25.9261H71.445C72.9783 23.2891 76.9635 24.415 76.9635 27.4076Z" fill="#8A7FD1"/>
<path id="Vector_11" d="M63.6301 54.0738V57.7775C63.6301 58.1849 63.9635 58.5183 64.3709 58.5183H71.445C72.9783 55.8812 76.9635 57.0072 76.9635 59.9997C76.9635 62.9923 72.9857 64.1183 71.445 61.4812H64.3709C62.3264 61.4812 60.6672 59.822 60.6672 57.7775V54.0738C60.6672 53.6664 60.3338 53.3331 59.9264 53.3331H54.7412C53.9264 53.3331 53.2598 52.6664 53.2598 51.8516C53.2598 51.0368 53.9264 50.3701 54.7412 50.3701H59.9264C61.9709 50.3701 63.6301 52.0294 63.6301 54.0738Z" fill="#8A7FD1"/>
<path id="Vector_12" d="M11.0391 43.7035C11.0391 46.6961 15.0168 47.822 16.5576 45.185H26.5946C27.4094 45.185 28.0761 44.5183 28.0761 43.7035C28.0761 42.8887 27.4094 42.222 26.5946 42.222H16.5576C15.0242 39.585 11.0391 40.7109 11.0391 43.7035Z" fill="#8A7FD1"/>
<path id="Vector_13" d="M4.37109 27.4076C4.37109 30.4002 8.34887 31.5261 9.88961 28.8891H16.9637C17.3711 28.8891 17.7044 29.2224 17.7044 29.6298V33.3335C17.7044 35.378 19.3637 37.0372 21.4081 37.0372H26.5933C27.4081 37.0372 28.0748 36.3706 28.0748 35.5557C28.0748 34.7409 27.4081 34.0743 26.5933 34.0743H21.4081C21.0007 34.0743 20.6674 33.7409 20.6674 33.3335V29.6298C20.6674 27.5854 19.0081 25.9261 16.9637 25.9261H9.88961C8.35628 23.2891 4.37109 24.415 4.37109 27.4076Z" fill="#8A7FD1"/>
<path id="Vector_14" d="M17.7044 54.0738V57.7775C17.7044 58.1849 17.3711 58.5183 16.9637 58.5183H9.88961C8.35628 55.8812 4.37109 57.0072 4.37109 59.9997C4.37109 62.9923 8.34887 64.1183 9.88961 61.4812H16.9637C19.0081 61.4812 20.6674 59.822 20.6674 57.7775V54.0738C20.6674 53.6664 21.0007 53.3331 21.4081 53.3331H26.5933C27.4081 53.3331 28.0748 52.6664 28.0748 51.8516C28.0748 51.0368 27.4081 50.3701 26.5933 50.3701H21.4081C19.3637 50.3701 17.7044 52.0294 17.7044 54.0738Z" fill="#8A7FD1"/>
<path id="Vector_15" d="M60.6672 46.6667V40.7407C60.6672 39.9259 60.0005 39.2593 59.1857 39.2593H57.4227C56.8005 39.2593 56.2375 38.8667 56.0301 38.2815C55.8375 37.7333 55.6153 37.2 55.3635 36.6741C55.0968 36.1111 55.2079 35.437 55.6523 35L56.8968 33.7555C57.4746 33.1778 57.4746 32.237 56.8968 31.6593L52.7042 27.4667C52.1264 26.8889 51.1857 26.8889 50.6079 27.4667L49.3635 28.7111C48.919 29.1555 48.2523 29.2667 47.6894 29C47.1709 28.7481 46.6301 28.5259 46.082 28.3333C45.4968 28.1259 45.1042 27.5704 45.1042 26.9407V25.1778C45.1042 24.363 44.4375 23.6963 43.6227 23.6963H37.6968C36.882 23.6963 36.2153 24.363 36.2153 25.1778V26.9407C36.2153 27.563 35.8227 28.1259 35.2375 28.3333C34.6894 28.5259 34.156 28.7481 33.6301 29C33.0672 29.2667 32.3931 29.1555 31.956 28.7111L30.7116 27.4667C30.1338 26.8889 29.1931 26.8889 28.6153 27.4667L24.4227 31.6593C23.8449 32.237 23.8449 33.1778 24.4227 33.7555L25.6672 35C26.1116 35.4444 26.2227 36.1111 25.956 36.6741C25.7042 37.1926 25.482 37.7333 25.2894 38.2815C25.082 38.8667 24.5264 39.2593 23.8968 39.2593H22.1338C21.319 39.2593 20.6523 39.9259 20.6523 40.7407V46.6667C20.6523 47.4815 21.319 48.1481 22.1338 48.1481H23.8968C24.519 48.1481 25.082 48.5407 25.2894 49.1259C25.482 49.6741 25.7042 50.2074 25.956 50.7333C26.2227 51.2963 26.1116 51.9704 25.6672 52.4074L24.4227 53.6518C23.8449 54.2296 23.8449 55.1704 24.4227 55.7481L28.6153 59.9407C29.1931 60.5185 30.1338 60.5185 30.7116 59.9407L31.956 58.6963C32.4005 58.2518 33.0672 58.1407 33.6301 58.4074C34.1486 58.6593 34.6894 58.8815 35.2375 59.0741C35.8227 59.2815 36.2153 59.837 36.2153 60.4667V62.2296C36.2153 63.0444 36.882 63.7111 37.6968 63.7111H43.6227C44.4375 63.7111 45.1042 63.0444 45.1042 62.2296V60.4667C45.1042 59.8444 45.4968 59.2815 46.082 59.0741C46.6301 58.8815 47.1635 58.6593 47.6894 58.4074C48.2523 58.1407 48.9264 58.2518 49.3635 58.6963L50.6079 59.9407C51.1857 60.5185 52.1264 60.5185 52.7042 59.9407L56.8968 55.7481C57.4746 55.1704 57.4746 54.2296 56.8968 53.6518L55.6523 52.4074C55.2079 51.963 55.0968 51.2963 55.3635 50.7333C55.6153 50.2148 55.8375 49.6741 56.0301 49.1259C56.2375 48.5407 56.7931 48.1481 57.4227 48.1481H59.1857C60.0005 48.1481 60.6672 47.4815 60.6672 46.6667Z" fill="#714EFF"/>
<path id="Vector_16" d="M68.8169 15.5557C69.226 15.5557 69.5577 15.2241 69.5577 14.815C69.5577 14.4059 69.226 14.0742 68.8169 14.0742C68.4078 14.0742 68.0762 14.4059 68.0762 14.815C68.0762 15.2241 68.4078 15.5557 68.8169 15.5557Z" fill="white"/>
<path id="Vector_17" d="M64.3716 15.5557C64.7807 15.5557 65.1123 15.2241 65.1123 14.815C65.1123 14.4059 64.7807 14.0742 64.3716 14.0742C63.9625 14.0742 63.6309 14.4059 63.6309 14.815C63.6309 15.2241 63.9625 15.5557 64.3716 15.5557Z" fill="white"/>
<path id="Vector_18" d="M59.9263 15.5557C60.3354 15.5557 60.667 15.2241 60.667 14.815C60.667 14.4059 60.3354 14.0742 59.9263 14.0742C59.5172 14.0742 59.1855 14.4059 59.1855 14.815C59.1855 15.2241 59.5172 15.5557 59.9263 15.5557Z" fill="white"/>
<path id="Vector_19" d="M24.3716 15.5557C24.7807 15.5557 25.1123 15.2241 25.1123 14.815C25.1123 14.4059 24.7807 14.0742 24.3716 14.0742C23.9625 14.0742 23.6309 14.4059 23.6309 14.815C23.6309 15.2241 23.9625 15.5557 24.3716 15.5557Z" fill="white"/>
<path id="Vector_20" d="M50.2983 38.5181V48.8885C50.2983 49.1699 50.1428 49.4292 49.8909 49.5477C40.1798 54.3996 40.9131 54.0736 40.6687 54.0736C40.4242 54.0736 41.128 54.3922 31.4465 49.5477C31.1946 49.4292 31.0391 49.1699 31.0391 48.8885V38.5181C31.0391 38.2366 31.1946 37.9774 31.4465 37.8588L40.3354 33.4144C40.5428 33.3033 40.7946 33.3033 41.002 33.4144L49.8909 37.8588C50.1428 37.9774 50.2983 38.2366 50.2983 38.5181Z" fill="#FFA100"/>
<path id="Vector_21" d="M44.9647 42.8231L41.4056 37.4156C41.0764 36.9109 40.2578 36.9109 39.9286 37.4156L36.3695 42.8231C36.1737 43.1295 36.1737 43.517 36.3695 43.8235L39.9286 49.2309C40.2845 49.7626 41.0586 49.7626 41.4056 49.2309L44.9647 43.8235C45.1605 43.517 45.1605 43.1295 44.9647 42.8231ZM40.6671 39.5426L42.678 42.5978L40.6671 43.2737L38.6562 42.5978L40.6671 39.5426ZM40.6671 47.104L39.0299 44.6165L40.3824 45.0762C40.7294 45.1933 40.8006 45.1212 42.2954 44.6165L40.6582 47.104H40.6671Z" fill="white"/>
</g>
<defs>
<clipPath id="clip0_3413_15592">
<rect width="80" height="80" fill="white" transform="translate(0.667969)"/>
</clipPath>
</defs>
</svg>
