<svg width="81" height="80" viewBox="0 0 81 80" fill="none" xmlns="http://www.w3.org/2000/svg">
<g id="Image" clip-path="url(#clip0_3413_15360)">
<path id="Vector" d="M40.3339 79.9999C60.7889 79.9999 77.3709 63.4178 77.3709 42.9628C77.3709 22.5078 60.7889 5.92578 40.3339 5.92578C19.8789 5.92578 3.29688 22.5078 3.29688 42.9628C3.29688 63.4178 19.8789 79.9999 40.3339 79.9999Z" fill="#D4D1FB"/>
<path id="Vector_2" d="M2.55621 15.5558C3.78351 15.5558 4.77843 14.5608 4.77843 13.3336C4.77843 12.1063 3.78351 11.1113 2.55621 11.1113C1.32891 11.1113 0.333984 12.1063 0.333984 13.3336C0.333984 14.5608 1.32891 15.5558 2.55621 15.5558Z" fill="#FF4D69"/>
<path id="Vector_3" d="M72.9273 4.44444C74.1546 4.44444 75.1495 3.44952 75.1495 2.22222C75.1495 0.994923 74.1546 0 72.9273 0C71.7 0 70.7051 0.994923 70.7051 2.22222C70.7051 3.44952 71.7 4.44444 72.9273 4.44444Z" fill="#00C99F"/>
<path id="Vector_4" d="M78.1109 72.5929C79.3382 72.5929 80.3331 71.598 80.3331 70.3707C80.3331 69.1434 79.3382 68.1484 78.1109 68.1484C76.8836 68.1484 75.8887 69.1434 75.8887 70.3707C75.8887 71.598 76.8836 72.5929 78.1109 72.5929Z" fill="#FFA100"/>
<path id="Vector_5" d="M8.48199 80.0001C9.70929 80.0001 10.7042 79.0052 10.7042 77.7779C10.7042 76.5506 9.70929 75.5557 8.48199 75.5557C7.25469 75.5557 6.25977 76.5506 6.25977 77.7779C6.25977 79.0052 7.25469 80.0001 8.48199 80.0001Z" fill="#00C99F"/>
<path id="Vector_6" d="M74.0013 58.4076C68.1494 71.1558 55.2754 80.0002 40.3346 80.0002C25.3939 80.0002 12.5198 71.1558 6.66797 58.4076C11.1865 56.6076 16.3939 58.7706 18.2235 63.3928C21.6754 62.3187 25.6013 63.2595 28.2013 66.1335C29.8532 65.3039 31.705 64.9854 33.668 65.3187V59.2595H47.0013V65.3187C48.9643 64.9854 50.8161 65.3039 52.468 66.1335C55.068 63.2595 58.9939 62.3187 62.4457 63.3928C64.2754 58.7854 69.4754 56.6002 74.0013 58.4076Z" fill="#AFA5ED"/>
<path id="Vector_7" d="M32.1859 39.2811V58.5182C32.1859 58.9848 31.7637 59.3404 31.2822 59.2441C27.3415 58.3626 23.1859 59.4441 20.1637 62.1256C18.4748 63.6367 18.4822 63.7034 18.1118 63.7034C17.7192 63.7034 17.3711 63.3774 17.3711 62.9626V57.7774C17.3711 49.0515 22.9341 41.3404 31.2081 38.5774C31.697 38.4219 32.1859 38.7848 32.1859 39.2811Z" fill="#FF4D69"/>
<path id="Vector_8" d="M63.2972 57.7774V62.9626C63.2972 63.5997 62.5417 63.9404 62.0676 63.5182L60.5046 62.1256C57.4824 59.4441 53.3269 58.3626 49.3861 59.2441C48.9046 59.3404 48.4824 58.9848 48.4824 58.5182V39.2811C48.4824 38.7848 48.9713 38.4219 49.4602 38.5774C57.7343 41.3404 63.2972 49.0515 63.2972 57.7774Z" fill="#FF4D69"/>
<path id="Vector_9" d="M54.4079 27.4221V42.1258C54.4079 48.7629 52.8968 54.5184 50.1116 60.3332C50.0005 60.5851 49.7561 60.7406 49.482 60.7406H31.8894C31.6375 60.7406 31.4079 60.5999 31.282 60.3703C27.9931 54.4443 26.2598 47.6814 26.2598 40.8221V27.4221C26.2598 16.5036 31.3783 6.2962 39.9412 0.125825C40.1783 -0.0445457 40.4894 -0.0445457 40.7264 0.125825C49.2894 6.2962 54.4079 16.5036 54.4079 27.4221Z" fill="#8260FC"/>
<path id="Vector_10" d="M51.8595 56.2959C51.1854 58.1255 50.6743 59.1626 50.1114 60.3329C49.9928 60.5848 49.7484 60.7403 49.4817 60.7403H31.8891C31.6373 60.7403 31.4077 60.5996 31.2817 60.37C30.5484 59.0515 29.8965 57.6885 29.3262 56.2959H51.8595Z" fill="#6947E2"/>
<path id="Vector_11" d="M40.3342 34.0737C45.2434 34.0737 49.2231 30.094 49.2231 25.1848C49.2231 20.2756 45.2434 16.2959 40.3342 16.2959C35.425 16.2959 31.4453 20.2756 31.4453 25.1848C31.4453 30.094 35.425 34.0737 40.3342 34.0737Z" fill="#FFA100"/>
<path id="Vector_12" d="M40.3333 35.5552C34.6147 35.5552 29.9629 30.9033 29.9629 25.1848C29.9629 19.4663 34.6147 14.8145 40.3333 14.8145C46.0518 14.8145 50.7036 19.4663 50.7036 25.1848C50.7036 30.9033 46.0518 35.5552 40.3333 35.5552ZM40.3333 17.7774C36.2518 17.7774 32.9259 21.1033 32.9259 25.1848C32.9259 29.2663 36.2518 32.5922 40.3333 32.5922C44.4147 32.5922 47.7407 29.2663 47.7407 25.1848C47.7407 21.1033 44.4147 17.7774 40.3333 17.7774Z" fill="#6947E2"/>
<path id="Vector_13" d="M39.2909 27.7075L37.2923 25.7075C36.9026 25.3175 36.9026 24.6825 37.2923 24.2925C37.682 23.9025 38.3166 23.9025 38.7063 24.2925L40.0004 25.5875L42.2937 23.2925C42.6834 22.9025 43.318 22.9025 43.7077 23.2925C44.0974 23.6825 44.0974 24.3175 43.7077 24.7075L40.7099 27.7075C40.3201 28.0975 39.6856 28.0975 39.2959 27.7075H39.2909Z" fill="white"/>
<path id="Vector_14" d="M48.6667 8.37033C43.7037 12.0296 36.963 12.0222 32 8.37033C34.1259 5.19255 36.8 2.39255 39.9407 0.125885C40.2222 -0.0518928 40.4667 -0.037078 40.7259 0.125885C43.8667 2.39255 46.5407 5.19255 48.6667 8.37033Z" fill="#6947E2"/>
<path id="Vector_15" d="M43.297 48.1485V57.6004C43.297 59.8226 42.4304 61.9115 40.86 63.4893C40.5637 63.7707 40.1118 63.7782 39.8081 63.4893C38.2378 61.9115 37.3711 59.8226 37.3711 57.6004V48.1485C37.3711 45.9263 38.2378 43.8374 39.8081 42.2596C40.097 41.9707 40.5711 41.9707 40.86 42.2596C42.4304 43.8374 43.297 45.9263 43.297 48.1485Z" fill="#FF4D69"/>
<path id="Vector_16" d="M33.6666 53.333H30.7036C30.2962 53.333 29.9629 52.9997 29.9629 52.5923C29.9629 52.3775 30.1259 51.8516 30.7036 51.8516H33.6666C34.074 51.8516 34.4073 52.1849 34.4073 52.5923C34.4073 52.8071 34.2444 53.333 33.6666 53.333Z" fill="white"/>
<path id="Vector_17" d="M33.6666 50.3702H30.7036C30.2962 50.3702 29.9629 50.0368 29.9629 49.6294C29.9629 49.4146 30.1259 48.8887 30.7036 48.8887H33.6666C34.074 48.8887 34.4073 49.222 34.4073 49.6294C34.4073 49.8442 34.2444 50.3702 33.6666 50.3702Z" fill="white"/>
<path id="Vector_18" d="M49.9635 53.333H47.0005C46.5931 53.333 46.2598 52.9997 46.2598 52.5923C46.2598 52.3775 46.4227 51.8516 47.0005 51.8516H49.9635C50.3709 51.8516 50.7042 52.1849 50.7042 52.5923C50.7042 52.8071 50.5412 53.333 49.9635 53.333Z" fill="white"/>
<path id="Vector_19" d="M49.9635 50.3702H47.0005C46.5931 50.3702 46.2598 50.0368 46.2598 49.6294C46.2598 49.4146 46.4227 48.8887 47.0005 48.8887H49.9635C50.3709 48.8887 50.7042 49.222 50.7042 49.6294C50.7042 49.8442 50.5412 50.3702 49.9635 50.3702Z" fill="white"/>
<path id="Vector_20" d="M22.9638 13.2077C20.7563 14.6818 20.1786 16.4596 19.5415 18.0522C19.2971 18.6744 18.4082 18.6744 18.1638 18.0522C17.5267 16.4596 16.9489 14.6892 14.7415 13.2077C14.2971 12.9263 14.2971 12.267 14.7415 11.9781C16.9489 10.504 17.5267 8.72625 18.1638 7.13366C18.4082 6.51144 19.2971 6.51144 19.5415 7.13366C20.1786 8.72625 20.7563 10.4966 22.9638 11.9781C23.4082 12.2596 23.4082 12.9188 22.9638 13.2077Z" fill="#FFA100"/>
<path id="Vector_21" d="M65.9267 25.0593C63.7192 26.5334 63.1415 28.3111 62.5044 29.9037C62.26 30.526 61.3711 30.526 61.1267 29.9037C60.4896 28.3111 59.9118 26.5408 57.7044 25.0593C57.26 24.7778 57.26 24.1186 57.7044 23.8297C59.9118 22.3556 60.4896 20.5778 61.1267 18.9852C61.3711 18.363 62.26 18.363 62.5044 18.9852C63.1415 20.5778 63.7192 22.3482 65.9267 23.8297C66.3711 24.1111 66.3711 24.7704 65.9267 25.0593Z" fill="#FFA100"/>
<path id="Vector_22" d="M15.1485 45.926C15.1485 48.7927 12.83 51.1112 9.96329 51.1112H4.20033C3.00774 45.8446 3.03737 40.4297 4.04477 35.5557C7.067 35.5631 9.55588 37.8149 9.91885 40.7408C12.9337 40.7408 15.1485 43.1483 15.1485 45.926Z" fill="white"/>
<path id="Vector_23" d="M77.3496 41.7262H68.32C65.4533 41.7262 63.1348 39.4077 63.1348 36.541C63.1348 33.6743 65.3496 31.3558 68.3644 31.3558C68.6903 28.7114 70.757 26.6151 73.3866 26.2373C75.757 30.9188 77.1718 36.1706 77.3496 41.7262Z" fill="white"/>
</g>
<defs>
<clipPath id="clip0_3413_15360">
<rect width="80" height="80" fill="white" transform="translate(0.333984)"/>
</clipPath>
</defs>
</svg>
