<svg width="80" height="80" viewBox="0 0 80 80" fill="none" xmlns="http://www.w3.org/2000/svg">
<g id="Image" clip-path="url(#clip0_3413_15614)">
<path id="Vector" d="M39.9999 79.9999C60.4549 79.9999 77.037 63.4178 77.037 42.9628C77.037 22.5078 60.4549 5.92578 39.9999 5.92578C19.5449 5.92578 2.96289 22.5078 2.96289 42.9628C2.96289 63.4178 19.5449 79.9999 39.9999 79.9999Z" fill="#D4D1FB"/>
<path id="Vector_2" d="M6.66753 15.5558C7.89483 15.5558 8.88976 14.5608 8.88976 13.3336C8.88976 12.1063 7.89483 11.1113 6.66753 11.1113C5.44024 11.1113 4.44531 12.1063 4.44531 13.3336C4.44531 14.5608 5.44024 15.5558 6.66753 15.5558Z" fill="#FF4D69"/>
<path id="Vector_3" d="M70.3707 4.44444C71.598 4.44444 72.5929 3.44952 72.5929 2.22222C72.5929 0.994923 71.598 0 70.3707 0C69.1434 0 68.1484 0.994923 68.1484 2.22222C68.1484 3.44952 69.1434 4.44444 70.3707 4.44444Z" fill="#00C99F"/>
<path id="Vector_4" d="M77.7769 74.0743C79.0042 74.0743 79.9991 73.0794 79.9991 71.8521C79.9991 70.6248 79.0042 69.6299 77.7769 69.6299C76.5496 69.6299 75.5547 70.6248 75.5547 71.8521C75.5547 73.0794 76.5496 74.0743 77.7769 74.0743Z" fill="#FFA100"/>
<path id="Vector_5" d="M2.22222 80.0001C3.44952 80.0001 4.44444 79.0052 4.44444 77.7779C4.44444 76.5506 3.44952 75.5557 2.22222 75.5557C0.994923 75.5557 0 76.5506 0 77.7779C0 79.0052 0.994923 80.0001 2.22222 80.0001Z" fill="#00C99F"/>
<path id="Vector_6" d="M39.9994 1.48145C42.992 1.48145 44.1179 5.45922 41.4809 6.99996V17.037C41.4809 17.8518 40.8142 18.5185 39.9994 18.5185C39.1846 18.5185 38.5179 17.8518 38.5179 17.037V6.99996C35.8809 5.46663 37.0068 1.48145 39.9994 1.48145Z" fill="#AFA5ED"/>
<path id="Vector_7" d="M24.4447 0C27.4373 0 28.5632 3.97778 25.9262 5.51852V10.3704C25.9262 10.7778 26.2595 11.1111 26.6669 11.1111H30.3706C32.4151 11.1111 34.0743 12.7704 34.0743 14.8148V22.2222C34.0743 23.037 33.4077 23.7037 32.5929 23.7037C31.778 23.7037 31.1114 23.037 31.1114 22.2222V14.8148C31.1114 14.4074 30.778 14.0741 30.3706 14.0741H26.6669C24.6225 14.0741 22.9632 12.4148 22.9632 10.3704V5.51852C20.3262 3.97778 21.4521 0 24.4447 0Z" fill="#AFA5ED"/>
<path id="Vector_8" d="M56.2956 0C53.3031 0 52.1771 3.97778 54.8142 5.51852V10.3704C54.8142 10.7778 54.4808 11.1111 54.0734 11.1111H50.3697C48.3253 11.1111 46.666 12.7704 46.666 14.8148V22.2222C46.666 23.037 47.3327 23.7037 48.1475 23.7037C48.9623 23.7037 49.629 23.037 49.629 22.2222V14.8148C49.629 14.4074 49.9623 14.0741 50.3697 14.0741H54.0734C56.1179 14.0741 57.7771 12.4148 57.7771 10.3704V5.51852C60.4142 3.97778 59.2882 0 56.2956 0Z" fill="#AFA5ED"/>
<path id="Vector_9" d="M51.8591 78.0519C44.274 80.6297 35.8443 80.6741 28.1406 78.0519C28.6814 77.4297 29.4814 77.0371 30.3703 77.0371H49.6295C50.5184 77.0371 51.3184 77.4297 51.8591 78.0519Z" fill="#8260FC"/>
<path id="Vector_10" d="M68.8891 63.7041V66.1263C67.4447 67.9411 65.8224 69.6152 64.0595 71.1115H15.941C14.178 69.6152 12.5558 67.9411 11.1113 66.1263V63.7041H68.8891Z" fill="#8260FC"/>
<path id="Vector_11" d="M42.2228 68.8887H37.7784C36.9635 68.8887 36.2969 68.2221 36.2969 67.4073C36.2969 66.8073 36.7635 65.9258 37.7784 65.9258H42.2228C43.0376 65.9258 43.7043 66.5924 43.7043 67.4073C43.7043 68.0073 43.2376 68.8887 42.2228 68.8887Z" fill="white"/>
<path id="Vector_12" d="M47.4066 77.0373H32.5918C33.977 75.6521 34.814 73.741 34.814 71.6743V71.1113H45.1844V71.6743C45.1844 73.6298 45.9474 75.578 47.4066 77.0373Z" fill="#6947E2"/>
<path id="Vector_13" d="M15.5558 20.7412H64.4447C66.8965 20.7412 68.8891 22.7338 68.8891 25.1857V63.7042H11.1113V25.1857C11.1113 22.7338 13.1039 20.7412 15.5558 20.7412Z" fill="#988FFF"/>
<path id="Vector_14" d="M64.4446 23.7041H15.5557C14.7375 23.7041 14.0742 24.3674 14.0742 25.1856V59.2597C14.0742 60.0779 14.7375 60.7411 15.5557 60.7411H64.4446C65.2628 60.7411 65.9261 60.0779 65.9261 59.2597V25.1856C65.9261 24.3674 65.2628 23.7041 64.4446 23.7041Z" fill="white"/>
<g id="Group">
<path id="Vector_15" d="M22.2223 42.2223C21.8149 42.2223 21.4816 42.5557 21.4816 42.9631V46.6668L18.3704 42.5186C17.9408 41.9483 17.0371 42.252 17.0371 42.9631V48.889C17.0371 49.2964 17.3704 49.6297 17.7779 49.6297C18.1853 49.6297 18.5186 49.2964 18.5186 48.889V45.1853L21.6297 49.3335C22.0519 49.9038 22.963 49.6001 22.963 48.889V42.9631C22.963 42.5557 22.6297 42.2223 22.2223 42.2223Z" fill="#8260FC"/>
<path id="Vector_16" d="M28.8893 43.7041C29.2967 43.7041 29.63 43.3708 29.63 42.9634C29.63 42.556 29.2967 42.2227 28.8893 42.2227H25.9263C25.5189 42.2227 25.1855 42.556 25.1855 42.9634V48.8893C25.1855 49.2967 25.5189 49.6301 25.9263 49.6301C26.3337 49.6301 26.667 49.2967 26.667 48.8893V47.4078H28.8893C29.2967 47.4078 29.63 47.0745 29.63 46.6671C29.63 46.2597 29.2967 45.9264 28.8893 45.9264H26.667V43.7041H28.8893Z" fill="#8260FC"/>
<path id="Vector_17" d="M37.0367 42.2227H32.5923C32.1849 42.2227 31.8516 42.556 31.8516 42.9634C31.8516 43.3708 32.1849 43.7041 32.5923 43.7041H34.0738V48.8893C34.0738 49.2967 34.4071 49.6301 34.8145 49.6301C35.2219 49.6301 35.5553 49.2967 35.5553 48.8893V43.7041H37.0367C37.4442 43.7041 37.7775 43.3708 37.7775 42.9634C37.7775 42.556 37.4442 42.2227 37.0367 42.2227Z" fill="#8260FC"/>
</g>
<path id="Vector_18" d="M39.9999 39.2595C47.7728 39.2595 54.0739 32.9583 54.0739 25.1854C54.0739 17.4125 47.7728 11.1113 39.9999 11.1113C32.227 11.1113 25.9258 17.4125 25.9258 25.1854C25.9258 32.9583 32.227 39.2595 39.9999 39.2595Z" fill="#FFA100"/>
<path id="Vector_19" d="M46.4673 24.4375L41.2821 15.5486C40.7118 14.5708 39.2969 14.5634 38.7192 15.5486L33.534 24.4375C33.2673 24.8968 33.2673 25.4671 33.534 25.9338L38.7192 34.8227C39.2895 35.8005 40.7044 35.8079 41.2821 34.8227L46.4673 25.9338C46.734 25.4745 46.734 24.9042 46.4673 24.4375ZM40.0007 19.2375L42.7562 23.9634L40.0007 24.4227L37.2451 23.9634L40.0007 19.2375ZM40.0007 31.1338L37.6081 27.0301L39.7562 27.3857C40.1044 27.4449 40.1488 27.4005 42.3932 27.0301L40.0007 31.1338Z" fill="white"/>
<path id="Vector_20" d="M62.2217 43.7041H41.481C41.0736 43.7041 40.7402 43.3708 40.7402 42.9634C40.7402 42.7486 40.9032 42.2227 41.481 42.2227H62.2217C62.6291 42.2227 62.9625 42.556 62.9625 42.9634C62.9625 43.1782 62.7995 43.7041 62.2217 43.7041Z" fill="#AFA5ED"/>
<path id="Vector_21" d="M62.2217 48.1485H41.481C41.0736 48.1485 40.7402 47.8151 40.7402 47.4077C40.7402 47.1929 40.9032 46.667 41.481 46.667H62.2217C62.6291 46.667 62.9625 47.0003 62.9625 47.4077C62.9625 47.6225 62.7995 48.1485 62.2217 48.1485Z" fill="#AFA5ED"/>
<path id="Vector_22" d="M62.2223 52.5928H17.7779C17.3704 52.5928 17.0371 52.2595 17.0371 51.8521C17.0371 51.6373 17.2001 51.1113 17.7779 51.1113H62.2223C62.6297 51.1113 62.963 51.4447 62.963 51.8521C62.963 52.0669 62.8001 52.5928 62.2223 52.5928Z" fill="#AFA5ED"/>
<path id="Vector_23" d="M62.2223 57.0371H17.7779C17.3704 57.0371 17.0371 56.7038 17.0371 56.2964C17.0371 56.0816 17.2001 55.5557 17.7779 55.5557H62.2223C62.6297 55.5557 62.963 55.889 62.963 56.2964C62.963 56.5112 62.8001 57.0371 62.2223 57.0371Z" fill="#AFA5ED"/>
</g>
<defs>
<clipPath id="clip0_3413_15614">
<rect width="80" height="80" fill="white"/>
</clipPath>
</defs>
</svg>
