<svg width="80" height="80" viewBox="0 0 80 80" fill="none" xmlns="http://www.w3.org/2000/svg">
<g id="Image" clip-path="url(#clip0_3413_15406)">
<g id="Group">
<path id="Vector" d="M42.9628 77.037C63.4178 77.037 79.9999 60.4549 79.9999 39.9999C79.9999 19.5449 63.4178 2.96289 42.9628 2.96289C22.5078 2.96289 5.92578 19.5449 5.92578 39.9999C5.92578 60.4549 22.5078 77.037 42.9628 77.037Z" fill="#E7E9FF"/>
<path id="Vector_2" d="M17.7769 4.44444C19.0042 4.44444 19.9991 3.44952 19.9991 2.22222C19.9991 0.994923 19.0042 0 17.7769 0C16.5496 0 15.5547 0.994923 15.5547 2.22222C15.5547 3.44952 16.5496 4.44444 17.7769 4.44444Z" fill="#FF4D69"/>
<path id="Vector_3" d="M77.7769 11.1114C79.0042 11.1114 79.9991 10.1165 79.9991 8.88921C79.9991 7.66192 79.0042 6.66699 77.7769 6.66699C76.5496 6.66699 75.5547 7.66192 75.5547 8.88921C75.5547 10.1165 76.5496 11.1114 77.7769 11.1114Z" fill="#00C99F"/>
<path id="Vector_4" d="M68.8882 80.0001C70.1155 80.0001 71.1105 79.0052 71.1105 77.7779C71.1105 76.5506 70.1155 75.5557 68.8882 75.5557C67.6609 75.5557 66.666 76.5506 66.666 77.7779C66.666 79.0052 67.6609 80.0001 68.8882 80.0001Z" fill="#FFA100"/>
<path id="Vector_5" d="M2.22222 58.5187C3.44952 58.5187 4.44444 57.5237 4.44444 56.2964C4.44444 55.0691 3.44952 54.0742 2.22222 54.0742C0.994923 54.0742 0 55.0691 0 56.2964C0 57.5237 0.994923 58.5187 2.22222 58.5187Z" fill="#00C99F"/>
<path id="Vector_6" d="M23.7045 8.88867C20.7119 8.88867 19.586 12.8665 22.223 14.4072V24.4442C22.223 25.259 22.8897 25.9257 23.7045 25.9257C24.5193 25.9257 25.186 25.259 25.186 24.4442V14.4072C27.823 12.8739 26.6971 8.88867 23.7045 8.88867Z" fill="#D4D1FB"/>
<path id="Vector_7" d="M15.5562 15.5559H11.8525C11.4451 15.5559 11.1117 15.2226 11.1117 14.8152V10.7041C13.7488 9.17073 12.6228 5.18555 9.63025 5.18555C6.63766 5.18555 5.51173 9.16332 8.14877 10.7041V14.8152C8.14877 16.8596 9.80803 18.5189 11.8525 18.5189H15.5562C15.9636 18.5189 16.2969 18.8522 16.2969 19.2596V24.4448C16.2969 25.2596 16.9636 25.9263 17.7784 25.9263C18.5932 25.9263 19.2599 25.2596 19.2599 24.4448V19.2596C19.2599 17.2152 17.6006 15.5559 15.5562 15.5559Z" fill="#D4D1FB"/>
<path id="Vector_8" d="M31.8521 15.5559H35.5558C35.9633 15.5559 36.2966 15.2226 36.2966 14.8152V10.7041C33.6595 9.17073 34.7855 5.18555 37.7781 5.18555C40.7707 5.18555 41.8966 9.16332 39.2595 10.7041V14.8152C39.2595 16.8596 37.6003 18.5189 35.5558 18.5189H31.8521C31.4447 18.5189 31.1114 18.8522 31.1114 19.2596V24.4448C31.1114 25.2596 30.4447 25.9263 29.6299 25.9263C28.8151 25.9263 28.1484 25.2596 28.1484 24.4448V19.2596C28.1484 17.2152 29.8077 15.5559 31.8521 15.5559Z" fill="#D4D1FB"/>
<path id="Vector_9" d="M80 40C80 43.0667 79.6296 46.0444 78.9185 48.8889H40V40H80Z" fill="#8260FC"/>
<path id="Vector_10" d="M40.7411 69.6299H6.66703C5.84883 69.6299 5.18555 70.2932 5.18555 71.1114V75.5558C5.18555 76.374 5.84883 77.0373 6.66703 77.0373H40.7411C41.5593 77.0373 42.2226 76.374 42.2226 75.5558V71.1114C42.2226 70.2932 41.5593 69.6299 40.7411 69.6299Z" fill="#8260FC"/>
<path id="Vector_11" d="M39.2586 59.2588H8.1475C7.3293 59.2588 6.66602 59.9221 6.66602 60.7403V65.1847C6.66602 66.0029 7.3293 66.6662 8.1475 66.6662H39.2586C40.0768 66.6662 40.7401 66.0029 40.7401 65.1847V60.7403C40.7401 59.9221 40.0768 59.2588 39.2586 59.2588Z" fill="#6947E2"/>
<path id="Vector_12" d="M10.3702 56.2959H37.0368C37.8516 56.2959 38.5183 56.9626 38.5183 57.7774V59.2589H8.88867V57.7774C8.88867 56.9626 9.55534 56.2959 10.3702 56.2959Z" fill="#8260FC"/>
<path id="Vector_13" d="M8.14764 29.6299L39.2588 29.6299C40.077 29.6299 40.7402 28.9666 40.7402 28.1484V23.704C40.7402 22.8858 40.077 22.2225 39.2588 22.2225L8.14764 22.2225C7.32944 22.2225 6.66616 22.8858 6.66616 23.704V28.1484C6.66616 28.9666 7.32944 29.6299 8.14764 29.6299Z" fill="#6947E2"/>
<path id="Vector_14" d="M37.0361 32.5928H10.3694C9.55462 32.5928 8.88795 31.9261 8.88795 31.1113V29.6298L38.5176 29.6298V31.1113C38.5176 31.9261 37.8509 32.5928 37.0361 32.5928Z" fill="#8260FC"/>
<path id="Vector_15" d="M35.5553 32.5928H11.8516V56.2965H35.5553V32.5928Z" fill="#988FFF"/>
<path id="Vector_16" d="M35.5547 37.7773H38.5177C39.3325 37.7773 39.9991 38.444 39.9991 39.2588V49.6292C39.9991 50.444 39.3325 51.1107 38.5177 51.1107H35.5547V37.7773Z" fill="#6947E2"/>
<path id="Vector_17" d="M14.815 36.2959C15.2241 36.2959 15.5557 35.9643 15.5557 35.5552C15.5557 35.1461 15.2241 34.8145 14.815 34.8145C14.4059 34.8145 14.0742 35.1461 14.0742 35.5552C14.0742 35.9643 14.4059 36.2959 14.815 36.2959Z" fill="white"/>
<path id="Vector_18" d="M18.5181 36.2959C18.9272 36.2959 19.2588 35.9643 19.2588 35.5552C19.2588 35.1461 18.9272 34.8145 18.5181 34.8145C18.109 34.8145 17.7773 35.1461 17.7773 35.5552C17.7773 35.9643 18.109 36.2959 18.5181 36.2959Z" fill="white"/>
<path id="Vector_19" d="M32.5933 54.8145H31.1118C30.7044 54.8145 30.3711 54.4812 30.3711 54.0737C30.3711 53.8589 30.5341 53.333 31.1118 53.333H32.5933C33.0007 53.333 33.3341 53.6663 33.3341 54.0737C33.3341 54.2886 33.1711 54.8145 32.5933 54.8145Z" fill="white"/>
<path id="Vector_20" d="M27.4078 54.8145H25.9263C25.5189 54.8145 25.1855 54.4812 25.1855 54.0737C25.1855 53.8589 25.3485 53.333 25.9263 53.333H27.4078C27.8152 53.333 28.1485 53.6663 28.1485 54.0737C28.1485 54.2886 27.9855 54.8145 27.4078 54.8145Z" fill="white"/>
<path id="Vector_21" d="M48.8893 69.6299H45.9263C45.5189 69.6299 45.1855 69.2966 45.1855 68.8892C45.1855 68.4818 45.5189 68.1484 45.9263 68.1484H48.8893C49.2967 68.1484 49.63 68.4818 49.63 68.8892C49.63 69.2966 49.2967 69.6299 48.8893 69.6299Z" fill="#FFA100"/>
<path id="Vector_22" d="M44.4453 66.6665C43.7934 66.6665 43.4527 65.8739 43.9194 65.3998L46.1416 63.1776C46.4305 62.8887 46.8971 62.8887 47.186 63.1776C47.4749 63.4665 47.4749 63.9332 47.186 64.222L44.9638 66.4443C44.8156 66.5924 44.6305 66.6591 44.4379 66.6591L44.4453 66.6665Z" fill="#FFA100"/>
</g>
<path id="Vector_23" d="M59.4359 34.6296C67.6179 34.6296 74.2507 27.9968 74.2507 19.8148C74.2507 11.6328 67.6179 5 59.4359 5C51.2539 5 44.6211 11.6328 44.6211 19.8148C44.6211 27.9968 51.2539 34.6296 59.4359 34.6296Z" fill="#FFA100"/>
<path id="Vector_24" d="M57.5817 24.415L53.5846 20.415C52.8051 19.635 52.8051 18.365 53.5846 17.585C54.364 16.805 55.6331 16.805 56.4126 17.585L59.0007 20.175L63.5874 15.585C64.3669 14.805 65.636 14.805 66.4154 15.585C67.1949 16.365 67.1949 17.635 66.4154 18.415L60.4197 24.415C59.6403 25.195 58.3712 25.195 57.5917 24.415H57.5817Z" fill="white"/>
</g>
<defs>
<clipPath id="clip0_3413_15406">
<rect width="80" height="80" fill="white"/>
</clipPath>
</defs>
</svg>
