<svg width="81" height="80" viewBox="0 0 81 80" fill="none" xmlns="http://www.w3.org/2000/svg">
<g id="Image" clip-path="url(#clip0_3413_15639)">
<g id="Group">
<path id="Vector" d="M40.3339 74.0741C60.7889 74.0741 77.3709 57.492 77.3709 37.037C77.3709 16.582 60.7889 0 40.3339 0C19.8789 0 3.29688 16.582 3.29688 37.037C3.29688 57.492 19.8789 74.0741 40.3339 74.0741Z" fill="#D4D1FB"/>
<path id="Vector_2" d="M2.55621 10.3702C3.78351 10.3702 4.77843 9.3753 4.77843 8.148C4.77843 6.9207 3.78351 5.92578 2.55621 5.92578C1.32891 5.92578 0.333984 6.9207 0.333984 8.148C0.333984 9.3753 1.32891 10.3702 2.55621 10.3702Z" fill="#00C99F"/>
<path id="Vector_3" d="M74.4078 4.44444C75.6351 4.44444 76.63 3.44952 76.63 2.22222C76.63 0.994923 75.6351 0 74.4078 0C73.1805 0 72.1855 0.994923 72.1855 2.22222C72.1855 3.44952 73.1805 4.44444 74.4078 4.44444Z" fill="#FFA100"/>
<path id="Vector_4" d="M78.1109 71.1114C79.3382 71.1114 80.3331 70.1165 80.3331 68.8892C80.3331 67.6619 79.3382 66.667 78.1109 66.667C76.8836 66.667 75.8887 67.6619 75.8887 68.8892C75.8887 70.1165 76.8836 71.1114 78.1109 71.1114Z" fill="#00C99F"/>
<path id="Vector_5" d="M9.96441 79.2589C11.1917 79.2589 12.1866 78.264 12.1866 77.0367C12.1866 75.8094 11.1917 74.8145 9.96441 74.8145C8.73711 74.8145 7.74219 75.8094 7.74219 77.0367C7.74219 78.264 8.73711 79.2589 9.96441 79.2589Z" fill="#FF4D69"/>
<path id="Vector_6" d="M40.3334 7.40723C43.326 7.40723 44.4519 11.385 41.8149 12.9257V22.9628C41.8149 23.7776 41.1482 24.4443 40.3334 24.4443C39.5186 24.4443 38.8519 23.7776 38.8519 22.9628V12.9257C36.2149 11.3924 37.3408 7.40723 40.3334 7.40723Z" fill="#AFA5ED"/>
<path id="Vector_7" d="M20.3334 17.7773C23.326 17.7773 24.4519 21.7551 21.8149 23.2959V33.3329C21.8149 34.1477 21.1482 34.8144 20.3334 34.8144C19.5186 34.8144 18.8519 34.1477 18.8519 33.3329V23.2959C16.2149 21.7625 17.3408 17.7773 20.3334 17.7773Z" fill="#AFA5ED"/>
<path id="Vector_8" d="M60.3334 17.7773C63.326 17.7773 64.4519 21.7551 61.8149 23.2959V33.3329C61.8149 34.1477 61.1482 34.8144 60.3334 34.8144C59.5186 34.8144 58.8519 34.1477 58.8519 33.3329V23.2959C56.2149 21.7625 57.3408 17.7773 60.3334 17.7773Z" fill="#AFA5ED"/>
<path id="Vector_9" d="M23.2963 0.741211C26.2889 0.741211 27.4148 4.71899 24.7778 6.25973V11.1116C24.7778 11.519 25.1111 11.8523 25.5185 11.8523H29.2222C31.2666 11.8523 32.9259 13.5116 32.9259 15.556V22.9634C32.9259 23.7782 32.2592 24.4449 31.4444 24.4449C30.6296 24.4449 29.9629 23.7782 29.9629 22.9634V15.556C29.9629 15.1486 29.6296 14.8153 29.2222 14.8153H25.5185C23.474 14.8153 21.8148 13.156 21.8148 11.1116V6.25973C19.1778 4.7264 20.3037 0.741211 23.2963 0.741211Z" fill="#AFA5ED"/>
<path id="Vector_10" d="M58.1121 0.741211C55.1195 0.741211 53.9935 4.71899 56.6306 6.25973V11.1116C56.6306 11.519 56.2972 11.8523 55.8898 11.8523H52.1861C50.1417 11.8523 48.4824 13.5116 48.4824 15.556V22.9634C48.4824 23.7782 49.1491 24.4449 49.9639 24.4449C50.7787 24.4449 51.4454 23.7782 51.4454 22.9634V15.556C51.4454 15.1486 51.7787 14.8153 52.1861 14.8153H55.8898C57.9343 14.8153 59.5935 13.156 59.5935 11.1116V6.25973C62.2306 4.7264 61.1046 0.741211 58.1121 0.741211Z" fill="#AFA5ED"/>
<path id="Vector_11" d="M71.4449 44.4446C71.4449 51.8076 65.4745 57.7779 58.1115 57.7779H22.556C15.193 57.7779 9.22266 51.8076 9.22266 44.4446C9.22266 38.889 12.6152 34.1335 17.4449 32.1335C17.4449 32.0446 17.3708 31.7039 17.3708 31.1113C17.3708 26.6002 21.7486 23.4446 25.9412 24.7261C32.2375 13.5039 48.4227 13.4965 54.7264 24.7261C58.9189 23.4446 63.2967 26.6002 63.2967 31.1113C63.2967 31.7261 63.2227 32.052 63.2227 32.1335C68.0523 34.1335 71.4449 38.889 71.4449 44.4446Z" fill="#8260FC"/>
<path id="Vector_12" d="M49.222 37.0367H44.7775V51.1108C44.7775 51.5182 44.4442 51.8515 44.0368 51.8515H36.6294C36.222 51.8515 35.8886 51.5182 35.8886 51.1108V37.0367H31.4442C30.8442 37.0367 30.5034 36.3553 30.8294 35.8886L39.7183 22.5553C39.9923 22.1404 40.6738 22.1404 40.9479 22.5553L49.8368 35.8886C50.1627 36.3553 49.822 37.0367 49.222 37.0367Z" fill="#988FFF"/>
</g>
<path id="Vector_13" d="M40.3349 79.9999C50.5624 79.9999 58.8534 71.7089 58.8534 61.4814C58.8534 51.2539 50.5624 42.9629 40.3349 42.9629C30.1074 42.9629 21.8164 51.2539 21.8164 61.4814C21.8164 71.7089 30.1074 79.9999 40.3349 79.9999Z" fill="#FFA100"/>
<path id="Vector_14" d="M40.3343 76.2966C48.5163 76.2966 55.1492 69.6638 55.1492 61.4818C55.1492 53.2998 48.5163 46.667 40.3343 46.667C32.1523 46.667 25.5195 53.2998 25.5195 61.4818C25.5195 69.6638 32.1523 76.2966 40.3343 76.2966Z" fill="#6947E2"/>
<path id="Vector_15" d="M49.9643 56.2964V66.6668C49.9643 66.9483 49.8088 67.2075 49.5569 67.326C39.8458 72.1779 40.5792 71.852 40.3347 71.852C40.0903 71.852 40.794 72.1705 31.1125 67.326C30.8606 67.2075 30.7051 66.9483 30.7051 66.6668V56.2964C30.7051 56.0149 30.8606 55.7557 31.1125 55.6372L40.0014 51.1927C40.2088 51.0816 40.4606 51.0816 40.668 51.1927L49.5569 55.6372C49.8088 55.7557 49.9643 56.0149 49.9643 56.2964Z" fill="#8260FC"/>
<g id="Group_2">
<path id="Vector_16" d="M35.8893 58.5186C35.4818 58.5186 35.1485 58.8519 35.1485 59.2593V61.2593L33.5411 58.8519C33.1337 58.2445 32.1855 58.5334 32.1855 59.2593V63.7037C32.1855 64.1111 32.5189 64.4445 32.9263 64.4445C33.3337 64.4445 33.667 64.1111 33.667 63.7037V61.7037L35.2744 64.1111C35.6818 64.7186 36.63 64.4297 36.63 63.7037V59.2593C36.63 58.8519 36.2967 58.5186 35.8893 58.5186Z" fill="white"/>
<path id="Vector_17" d="M41.815 58.5186H38.8521C38.4447 58.5186 38.1113 58.8519 38.1113 59.2593V63.7037C38.1113 64.1111 38.4447 64.4445 38.8521 64.4445C39.2595 64.4445 39.5928 64.1111 39.5928 63.7037V62.963H41.0743C41.4817 62.963 41.815 62.6297 41.815 62.2223C41.815 61.8149 41.4817 61.4815 41.0743 61.4815H39.5928V60H41.815C42.2224 60 42.5558 59.6667 42.5558 59.2593C42.5558 58.8519 42.2224 58.5186 41.815 58.5186Z" fill="white"/>
<path id="Vector_18" d="M47.7408 58.5186H44.7779C44.3704 58.5186 44.0371 58.8519 44.0371 59.2593C44.0371 59.6667 44.3704 60 44.7779 60H45.5186V63.7037C45.5186 64.1111 45.8519 64.4445 46.2593 64.4445C46.6667 64.4445 47.0001 64.1111 47.0001 63.7037V60H47.7408C48.1482 60 48.4816 59.6667 48.4816 59.2593C48.4816 58.8519 48.1482 58.5186 47.7408 58.5186Z" fill="white"/>
</g>
</g>
<defs>
<clipPath id="clip0_3413_15639">
<rect width="80" height="80" fill="white" transform="translate(0.333984)"/>
</clipPath>
</defs>
</svg>
