<svg width="80" height="80" viewBox="0 0 80 80" fill="none" xmlns="http://www.w3.org/2000/svg">
<g id="Image" clip-path="url(#clip0_3413_15784)">
<path id="Vector" d="M37.037 79.9999C57.492 79.9999 74.0741 63.4178 74.0741 42.9628C74.0741 22.5078 57.492 5.92578 37.037 5.92578C16.582 5.92578 0 22.5078 0 42.9628C0 63.4178 16.582 79.9999 37.037 79.9999Z" fill="#D4D1FB"/>
<path id="Vector_2" d="M68.8886 22.222C68.8886 25.2146 64.9108 26.3406 63.3701 23.7035H53.333C52.5182 23.7035 51.8516 23.0369 51.8516 22.222C51.8516 21.4072 52.5182 20.7406 53.333 20.7406H63.3701C64.9034 18.1035 68.8886 19.2295 68.8886 22.222Z" fill="#AFA5ED"/>
<path id="Vector_3" d="M75.5553 5.92615C75.5553 8.91874 71.5775 10.0447 70.0367 7.40763H62.9627C62.5553 7.40763 62.2219 7.74097 62.2219 8.14837V11.8521C62.2219 13.8965 60.5627 15.5558 58.5182 15.5558H53.333C52.5182 15.5558 51.8516 14.8891 51.8516 14.0743C51.8516 13.2595 52.5182 12.5928 53.333 12.5928H58.5182C58.9256 12.5928 59.259 12.2595 59.259 11.8521V8.14837C59.259 6.10393 60.9182 4.44467 62.9627 4.44467H70.0367C71.5701 1.80763 75.5553 2.93356 75.5553 5.92615Z" fill="#AFA5ED"/>
<path id="Vector_4" d="M62.2219 32.5924V36.2961C62.2219 36.7035 62.5553 37.0368 62.9627 37.0368H70.0367C71.5701 34.3998 75.5553 35.5257 75.5553 38.5183C75.5553 41.5109 71.5775 42.6368 70.0367 39.9998H62.9627C60.9182 39.9998 59.259 38.3405 59.259 36.2961V32.5924C59.259 32.185 58.9256 31.8516 58.5182 31.8516H53.333C52.5182 31.8516 51.8516 31.185 51.8516 30.3702C51.8516 29.5553 52.5182 28.8887 53.333 28.8887H58.5182C60.5627 28.8887 62.2219 30.5479 62.2219 32.5924Z" fill="#AFA5ED"/>
<path id="Vector_5" d="M9.62891 22.222C9.62891 25.2146 13.6067 26.3406 15.1474 23.7035H25.1845C25.9993 23.7035 26.6659 23.0369 26.6659 22.222C26.6659 21.4072 25.9993 20.7406 25.1845 20.7406H15.1474C13.6141 18.1035 9.62891 19.2295 9.62891 22.222Z" fill="#AFA5ED"/>
<path id="Vector_6" d="M26.6669 14.0736C26.6669 14.8884 26.0002 15.5551 25.1854 15.5551H20.0002C18.0965 15.5551 16.5188 14.1107 16.3262 12.2588C17.2743 11.6144 18.2521 11.0218 19.2595 10.4736V11.8514C19.2595 12.2588 19.5928 12.5922 20.0002 12.5922H25.1854C26.0002 12.5922 26.6669 13.2588 26.6669 14.0736Z" fill="#AFA5ED"/>
<path id="Vector_7" d="M16.2962 32.5924V36.2961C16.2962 36.7035 15.9629 37.0368 15.5555 37.0368H8.48141C6.94808 34.3998 2.96289 35.5257 2.96289 38.5183C2.96289 41.5109 6.94067 42.6368 8.48141 39.9998H15.5555C17.5999 39.9998 19.2592 38.3405 19.2592 36.2961V32.5924C19.2592 32.185 19.5925 31.8516 19.9999 31.8516H25.1851C25.9999 31.8516 26.6666 31.185 26.6666 30.3702C26.6666 29.5553 25.9999 28.8887 25.1851 28.8887H19.9999C17.9555 28.8887 16.2962 30.5479 16.2962 32.5924Z" fill="#AFA5ED"/>
<path id="Vector_8" d="M39.2588 40.7411C49.4862 40.7411 57.7773 32.4501 57.7773 22.2226C57.7773 11.9951 49.4862 3.7041 39.2588 3.7041C29.0313 3.7041 20.7402 11.9951 20.7402 22.2226C20.7402 32.4501 29.0313 40.7411 39.2588 40.7411Z" fill="#FFA100"/>
<path id="Vector_9" d="M39.2601 37.0369C47.4421 37.0369 54.0749 30.404 54.0749 22.222C54.0749 14.04 47.4421 7.40723 39.2601 7.40723C31.0781 7.40723 24.4453 14.04 24.4453 22.222C24.4453 30.404 31.0781 37.0369 39.2601 37.0369Z" fill="#6947E2"/>
<path id="Vector_10" d="M48.8882 17.0366V27.407C48.8882 27.6885 48.7326 27.9478 48.4808 28.0663C38.7696 32.9181 39.503 32.5922 39.2585 32.5922C39.0141 32.5922 39.7178 32.9107 30.0363 28.0663C29.7845 27.9478 29.6289 27.6885 29.6289 27.407V17.0366C29.6289 16.7552 29.7845 16.4959 30.0363 16.3774L38.9252 11.9329C39.1326 11.8218 39.3845 11.8218 39.5919 11.9329L48.4808 16.3774C48.7326 16.4959 48.8882 16.7552 48.8882 17.0366Z" fill="#8260FC"/>
<g id="Group">
<path id="Vector_11" d="M34.815 19.2588C34.4076 19.2588 34.0743 19.5921 34.0743 19.9995V21.9995L32.4669 19.5921C32.0595 18.9847 31.1113 19.2736 31.1113 19.9995V24.444C31.1113 24.8514 31.4447 25.1847 31.8521 25.1847C32.2595 25.1847 32.5928 24.8514 32.5928 24.444V22.444L34.2002 24.8514C34.6076 25.4588 35.5558 25.1699 35.5558 24.444V19.9995C35.5558 19.5921 35.2224 19.2588 34.815 19.2588Z" fill="white"/>
<path id="Vector_12" d="M40.7408 19.2588H37.7779C37.3704 19.2588 37.0371 19.5921 37.0371 19.9995V24.444C37.0371 24.8514 37.3704 25.1847 37.7779 25.1847C38.1853 25.1847 38.5186 24.8514 38.5186 24.444V23.7032H40.0001C40.4075 23.7032 40.7408 23.3699 40.7408 22.9625C40.7408 22.7477 40.5779 22.2218 40.0001 22.2218H38.5186V20.7403H40.7408C41.1482 20.7403 41.4816 20.4069 41.4816 19.9995C41.4816 19.5921 41.1482 19.2588 40.7408 19.2588Z" fill="white"/>
<path id="Vector_13" d="M46.6666 19.2588H43.7036C43.2962 19.2588 42.9629 19.5921 42.9629 19.9995C42.9629 20.4069 43.2962 20.7403 43.7036 20.7403H44.4444V24.444C44.4444 24.8514 44.7777 25.1847 45.1851 25.1847C45.5925 25.1847 45.9259 24.8514 45.9259 24.444V20.7403H46.6666C47.074 20.7403 47.4073 20.4069 47.4073 19.9995C47.4073 19.5921 47.074 19.2588 46.6666 19.2588Z" fill="white"/>
</g>
<path id="Vector_14" d="M64.8082 57.6818L35.1712 74.2299C33.9489 74.904 32.5712 75.2596 31.186 75.2596C30.2897 75.2596 31.2971 75.3707 15.3045 72.9485C12.386 70.8299 9.63783 68.1559 7.4082 65.1707V51.1114C7.4082 50.8151 7.57857 50.5559 7.84524 50.4374L12.1341 48.5336C13.8082 47.7855 15.6601 47.4966 17.4897 47.704L33.1563 49.4448C34.5267 49.5929 35.5564 50.7411 35.5564 52.1188C35.5564 55.3262 33.2675 58.0818 30.1193 58.6744L26.5489 59.3411L35.5119 61.4522L58.2526 53.2374C60.7267 52.3485 63.4749 53.4448 64.6526 55.7929L65.1045 56.704C65.2823 57.0596 65.1489 57.4892 64.8082 57.6818Z" fill="#AFA5ED"/>
<path id="Vector_15" d="M5.92535 8.88878C7.15265 8.88878 8.14757 7.89386 8.14757 6.66656C8.14757 5.43926 7.15265 4.44434 5.92535 4.44434C4.69805 4.44434 3.70312 5.43926 3.70312 6.66656C3.70312 7.89386 4.69805 8.88878 5.92535 8.88878Z" fill="#FF4D69"/>
<path id="Vector_16" d="M54.814 4.44444C56.0413 4.44444 57.0362 3.44952 57.0362 2.22222C57.0362 0.994923 56.0413 0 54.814 0C53.5867 0 52.5918 0.994923 52.5918 2.22222C52.5918 3.44952 53.5867 4.44444 54.814 4.44444Z" fill="#00C99F"/>
<path id="Vector_17" d="M77.7769 74.8146C79.0042 74.8146 79.9991 73.8196 79.9991 72.5923C79.9991 71.365 79.0042 70.3701 77.7769 70.3701C76.5496 70.3701 75.5547 71.365 75.5547 72.5923C75.5547 73.8196 76.5496 74.8146 77.7769 74.8146Z" fill="#FFA100"/>
<path id="Vector_18" d="M8.148 80.0001C9.3753 80.0001 10.3702 79.0052 10.3702 77.7779C10.3702 76.5506 9.3753 75.5557 8.148 75.5557C6.9207 75.5557 5.92578 76.5506 5.92578 77.7779C5.92578 79.0052 6.9207 80.0001 8.148 80.0001Z" fill="#00C99F"/>
<path id="Vector_19" d="M10.3701 47.4078V68.6522C4.31826 62.3855 0.59974 54.1041 0.0664062 45.1855H8.14789C9.37752 45.1855 10.3701 46.1781 10.3701 47.4078Z" fill="#6947E2"/>
</g>
<defs>
<clipPath id="clip0_3413_15784">
<rect width="80" height="80" fill="white"/>
</clipPath>
</defs>
</svg>
