<svg width="81" height="80" viewBox="0 0 81 80" fill="none" xmlns="http://www.w3.org/2000/svg">
<g id="Image" clip-path="url(#clip0_3413_15503)">
<path id="Vector" d="M40.6679 79.9999C61.1229 79.9999 77.7049 63.4178 77.7049 42.9628C77.7049 22.5078 61.1229 5.92578 40.6679 5.92578C20.2129 5.92578 3.63086 22.5078 3.63086 42.9628C3.63086 63.4178 20.2129 79.9999 40.6679 79.9999Z" fill="#E7E9FF"/>
<path id="Vector_2" d="M2.89019 11.1114C4.11749 11.1114 5.11241 10.1165 5.11241 8.88921C5.11241 7.66192 4.11749 6.66699 2.89019 6.66699C1.66289 6.66699 0.667969 7.66192 0.667969 8.88921C0.667969 10.1165 1.66289 11.1114 2.89019 11.1114Z" fill="#FF4D69"/>
<path id="Vector_3" d="M72.5191 4.44444C73.7464 4.44444 74.7413 3.44952 74.7413 2.22222C74.7413 0.994923 73.7464 0 72.5191 0C71.2918 0 70.2969 0.994923 70.2969 2.22222C70.2969 3.44952 71.2918 4.44444 72.5191 4.44444Z" fill="#00C99F"/>
<path id="Vector_4" d="M78.4449 73.3331C79.6722 73.3331 80.6671 72.3382 80.6671 71.1109C80.6671 69.8836 79.6722 68.8887 78.4449 68.8887C77.2176 68.8887 76.2227 69.8836 76.2227 71.1109C76.2227 72.3382 77.2176 73.3331 78.4449 73.3331Z" fill="#FFA100"/>
<path id="Vector_5" d="M2.89019 73.3331C4.11749 73.3331 5.11241 72.3382 5.11241 71.1109C5.11241 69.8836 4.11749 68.8887 2.89019 68.8887C1.66289 68.8887 0.667969 69.8836 0.667969 71.1109C0.667969 72.3382 1.66289 73.3331 2.89019 73.3331Z" fill="#00C99F"/>
<path id="Vector_6" d="M70.2983 35.5558V65.1781C67.6761 68.6818 64.4465 71.6966 60.7576 74.0744H20.5798C16.8909 71.6966 13.6613 68.6818 11.0391 65.1781V28.1484L16.2242 32.5929H67.3354C68.9724 32.5929 70.2983 33.9188 70.2983 35.5558Z" fill="#714EFF"/>
<path id="Vector_7" d="M62.8909 32.593H15.4835C13.0317 32.593 11.0391 30.6004 11.0391 28.1485C11.0391 25.6967 13.0317 23.7041 15.4835 23.7041H59.9279C61.565 23.7041 62.8909 25.03 62.8909 26.6671V32.593Z" fill="#6947E2"/>
<path id="Vector_8" d="M71.7792 48.8887V57.7776C71.7792 58.5924 71.1126 59.2591 70.2977 59.2591H60.6681C57.394 59.2591 54.7422 56.6072 54.7422 53.3332C54.7422 50.0591 57.394 47.4072 60.6681 47.4072H70.2977C71.1126 47.4072 71.7792 48.0739 71.7792 48.8887Z" fill="#6947E2"/>
<path id="Vector_9" d="M59.9273 55.5558C61.1546 55.5558 62.1495 54.5608 62.1495 53.3336C62.1495 52.1063 61.1546 51.1113 59.9273 51.1113C58.7 51.1113 57.7051 52.1063 57.7051 53.3336C57.7051 54.5608 58.7 55.5558 59.9273 55.5558Z" fill="white"/>
<path id="Vector_10" d="M28.0761 54.0744C28.0761 57.0744 24.0983 58.1781 22.5576 55.5559H11.0391V52.5929H22.5576C24.1057 49.9633 28.0761 51.0744 28.0761 54.0744Z" fill="#988FFF"/>
<path id="Vector_11" d="M34.002 41.4816C34.002 44.4816 30.0242 45.5853 28.4835 42.9631H23.6761C23.1946 42.9631 22.7502 43.1927 22.4687 43.5853L20.5354 46.289C19.7057 47.452 18.3502 48.1483 16.9205 48.1483H11.0391V45.1853H16.9205C17.402 45.1853 17.8465 44.9557 18.128 44.5631L20.0613 41.8594C20.8909 40.6964 22.2465 40.0001 23.6761 40.0001H28.4835C30.0317 37.3705 34.002 38.4816 34.002 41.4816Z" fill="#988FFF"/>
<path id="Vector_12" d="M34.002 66.6667C34.002 69.6667 30.0242 70.7704 28.4835 68.1481H23.6761C22.2465 68.1481 20.8909 67.4519 20.0613 66.2889L18.128 63.5852C17.8465 63.1926 17.402 62.963 16.9205 62.963H11.0391V60H16.9205C18.3502 60 19.7057 60.6963 20.5354 61.8593L22.4687 64.563C22.7502 64.9556 23.1946 65.1852 23.6761 65.1852H28.4835C30.0317 62.5556 34.002 63.6667 34.002 66.6667Z" fill="#988FFF"/>
<path id="Vector_13" d="M48.0762 32.5928V35.1854C48.0762 36.3483 47.5207 37.452 46.5947 38.1483L42.4466 41.2594C42.2614 41.4002 42.1503 41.6224 42.1503 41.852V45.5928C44.7799 47.1409 43.6688 51.1113 40.6688 51.1113C37.6688 51.1113 36.5651 47.1335 39.1873 45.5928V41.852C39.1873 40.6891 39.7429 39.5854 40.6688 38.8891L44.817 35.778C45.0022 35.6372 45.1133 35.415 45.1133 35.1854V32.5928H48.0762Z" fill="#988FFF"/>
<path id="Vector_14" d="M50.2971 60.333V64.0737C50.2971 65.2367 49.7415 66.3404 48.8156 67.0367L44.6675 70.1478C44.4823 70.2885 44.3712 70.5107 44.3712 70.7404V74.0737H41.4082V70.7404C41.4082 69.5774 41.9638 68.4737 42.8897 67.7774L47.0378 64.6663C47.223 64.5256 47.3341 64.3033 47.3341 64.0737V60.333C44.7045 58.7848 45.8156 54.8145 48.8156 54.8145C51.8156 54.8145 52.9193 58.7922 50.2971 60.333Z" fill="#988FFF"/>
<path id="Vector_15" d="M59.1861 63.7041H56.2232C55.8158 63.7041 55.4824 63.3708 55.4824 62.9634C55.4824 62.7486 55.6454 62.2227 56.2232 62.2227H59.1861C59.5935 62.2227 59.9269 62.556 59.9269 62.9634C59.9269 63.1782 59.7639 63.7041 59.1861 63.7041Z" fill="white"/>
<g id="Group">
<path id="Vector_16" d="M22.1492 13.3332H20.6678V8.88871C20.6678 8.07389 20.0011 7.40723 19.1863 7.40723C18.3715 7.40723 17.7048 8.07389 17.7048 8.88871V13.3332H16.2233C14.9863 13.3332 14.29 14.7702 15.0678 15.7406L18.0307 19.4443C18.6233 20.185 19.7492 20.185 20.3418 19.4443L23.3048 15.7406C24.0826 14.7702 23.3863 13.3332 22.1492 13.3332Z" fill="#D4D1FB"/>
<path id="Vector_17" d="M65.1121 13.3332H63.6306V8.88871C63.6306 8.07389 62.964 7.40723 62.1492 7.40723C61.3343 7.40723 60.6677 8.07389 60.6677 8.88871V13.3332H59.1862C57.9492 13.3332 57.2529 14.7702 58.0306 15.7406L60.9936 19.4443C61.5862 20.185 62.7121 20.185 63.3047 19.4443L66.2677 15.7406C67.0455 14.7702 66.3492 13.3332 65.1121 13.3332Z" fill="#D4D1FB"/>
</g>
<path id="Vector_18" d="M62.1489 63.7041C62.558 63.7041 62.8897 63.3725 62.8897 62.9634C62.8897 62.5543 62.558 62.2227 62.1489 62.2227C61.7398 62.2227 61.4082 62.5543 61.4082 62.9634C61.4082 63.3725 61.7398 63.7041 62.1489 63.7041Z" fill="white"/>
<path id="Vector_19" d="M65.1118 63.7041C65.5209 63.7041 65.8526 63.3725 65.8526 62.9634C65.8526 62.5543 65.5209 62.2227 65.1118 62.2227C64.7027 62.2227 64.3711 62.5543 64.3711 62.9634C64.3711 63.3725 64.7027 63.7041 65.1118 63.7041Z" fill="white"/>
<path id="Vector_20" d="M40.4359 34.6296C48.6179 34.6296 55.2507 27.9968 55.2507 19.8148C55.2507 11.6328 48.6179 5 40.4359 5C32.2539 5 25.6211 11.6328 25.6211 19.8148C25.6211 27.9968 32.2539 34.6296 40.4359 34.6296Z" fill="#FFA100"/>
<path id="Vector_21" d="M37.9528 24.415L33.9557 20.415C33.1762 19.635 33.1762 18.365 33.9557 17.585C34.7351 16.805 36.0042 16.805 36.7837 17.585L39.3718 20.175L43.9585 15.585C44.738 14.805 46.0071 14.805 46.7865 15.585C47.566 16.365 47.566 17.635 46.7865 18.415L40.7908 24.415C40.0114 25.195 38.7423 25.195 37.9628 24.415H37.9528Z" fill="white"/>
</g>
<defs>
<clipPath id="clip0_3413_15503">
<rect width="80" height="80" fill="white" transform="translate(0.667969)"/>
</clipPath>
</defs>
</svg>
