<svg width="80" height="80" viewBox="0 0 80 80" fill="none" xmlns="http://www.w3.org/2000/svg">
<g id="Image" clip-path="url(#clip0_3413_15710)">
<path id="Vector" d="M42.9628 79.9999C63.4178 79.9999 79.9999 63.4178 79.9999 42.9628C79.9999 22.5078 63.4178 5.92578 42.9628 5.92578C22.5078 5.92578 5.92578 22.5078 5.92578 42.9628C5.92578 63.4178 22.5078 79.9999 42.9628 79.9999Z" fill="#E7EFFF"/>
<path id="Vector_2" d="M42.9628 79.9999C63.4178 79.9999 79.9999 63.4178 79.9999 42.9628C79.9999 22.5078 63.4178 5.92578 42.9628 5.92578C22.5078 5.92578 5.92578 22.5078 5.92578 42.9628C5.92578 63.4178 22.5078 79.9999 42.9628 79.9999Z" fill="#E7EFFF"/>
<path id="Vector_3" d="M7.40777 4.44444C8.63507 4.44444 9.62999 3.44952 9.62999 2.22222C9.62999 0.994923 8.63507 0 7.40777 0C6.18047 0 5.18555 0.994923 5.18555 2.22222C5.18555 3.44952 6.18047 4.44444 7.40777 4.44444Z" fill="#00C99F"/>
<path id="Vector_4" d="M77.7769 9.62999C79.0042 9.62999 79.9991 8.63507 79.9991 7.40777C79.9991 6.18047 79.0042 5.18555 77.7769 5.18555C76.5496 5.18555 75.5547 6.18047 75.5547 7.40777C75.5547 8.63507 76.5496 9.62999 77.7769 9.62999Z" fill="#FFA100"/>
<path id="Vector_5" d="M71.1109 80.0001C72.3382 80.0001 73.3331 79.0052 73.3331 77.7779C73.3331 76.5506 72.3382 75.5557 71.1109 75.5557C69.8836 75.5557 68.8887 76.5506 68.8887 77.7779C68.8887 79.0052 69.8836 80.0001 71.1109 80.0001Z" fill="#00C99F"/>
<path id="Vector_6" d="M2.22222 74.8146C3.44952 74.8146 4.44444 73.8196 4.44444 72.5923C4.44444 71.365 3.44952 70.3701 2.22222 70.3701C0.994923 70.3701 0 71.365 0 72.5923C0 73.8196 0.994923 74.8146 2.22222 74.8146Z" fill="#FF4D69"/>
<path id="Vector_7" d="M63.7046 11.1113H8.88976C6.43516 11.1113 4.44531 13.1012 4.44531 15.5558V60.0002C4.44531 62.4548 6.43516 64.4447 8.88976 64.4447H63.7046C66.1592 64.4447 68.149 62.4548 68.149 60.0002V15.5558C68.149 13.1012 66.1592 11.1113 63.7046 11.1113Z" fill="#988FFF"/>
<path id="Vector_8" d="M14.0735 61.4811V62.2219C14.0735 63.8589 12.7476 65.1848 11.1105 65.1848H6.66609C5.02905 65.1848 3.70312 63.8589 3.70312 62.2219V57.7774C3.70312 56.1404 5.02905 54.8145 6.66609 54.8145H7.40683V60.7404C7.40683 61.1478 7.74016 61.4811 8.14757 61.4811H14.0735Z" fill="#A8A0FF"/>
<path id="Vector_9" d="M64.4452 14.0742H8.14894C7.73984 14.0742 7.4082 14.4059 7.4082 14.815V60.7409C7.4082 61.15 7.73984 61.4816 8.14894 61.4816H64.4452C64.8543 61.4816 65.186 61.15 65.186 60.7409V14.815C65.186 14.4059 64.8543 14.0742 64.4452 14.0742Z" fill="white"/>
<path id="Vector_10" d="M65.186 57.7775V40.7404C65.186 40.7404 59.2601 33.333 47.4082 33.333C27.4082 33.333 29.6304 47.4071 7.4082 47.4071V57.7775C19.4823 57.7775 53.2452 57.7775 65.186 57.7775Z" fill="#6947E2"/>
<path id="Vector_11" d="M8.14894 61.4815C7.74154 61.4815 7.4082 61.1482 7.4082 60.7408V45.926C7.4082 45.926 14.0749 38.5186 24.4452 38.5186C34.8156 38.5186 54.0749 49.6297 65.186 49.6297V61.4815C62.4378 61.4815 5.44524 61.4815 8.14894 61.4815Z" fill="#8260FC"/>
<path id="Vector_12" d="M17.7773 61.4817C17.7773 61.4817 26.6662 52.5928 38.5181 52.5928C50.3699 52.5928 55.5551 61.4817 55.5551 61.4817H17.7773Z" fill="#A8A0FF"/>
<path id="Vector_13" d="M58.5176 14.0738V13.3331C58.5176 11.696 59.8435 10.3701 61.4805 10.3701H65.925C67.562 10.3701 68.8879 11.696 68.8879 13.3331V17.7775C68.8879 19.4146 67.562 20.7405 65.925 20.7405H65.1842V14.8146C65.1842 14.4072 64.8509 14.0738 64.4435 14.0738H58.5176Z" fill="#A8A0FF"/>
<path id="Vector_14" d="M7.40683 20.7405H6.66609C5.02905 20.7405 3.70312 19.4146 3.70312 17.7775V13.3331C3.70312 11.696 5.02905 10.3701 6.66609 10.3701H11.1105C12.7476 10.3701 14.0735 11.696 14.0735 13.3331V14.0738H8.14757C7.74016 14.0738 7.40683 14.4072 7.40683 14.8146V20.7405Z" fill="#A8A0FF"/>
<path id="Vector_15" d="M28.1476 34.0736C32.2386 34.0736 35.555 30.7572 35.555 26.6662C35.555 22.5752 32.2386 19.2588 28.1476 19.2588C24.0566 19.2588 20.7402 22.5752 20.7402 26.6662C20.7402 30.7572 24.0566 34.0736 28.1476 34.0736Z" fill="#FFA100"/>
<path id="Vector_16" d="M55.9638 12.4665C53.7564 13.9406 53.1786 15.7184 52.5415 17.311C52.2971 17.9332 51.4082 17.9332 51.1638 17.311C50.5267 15.7184 49.9489 13.948 47.7415 12.4665C47.2971 12.185 47.2971 11.5258 47.7415 11.2369C49.9489 9.76282 50.5267 7.98504 51.1638 6.39245C51.4082 5.77023 52.2971 5.77023 52.5415 6.39245C53.1786 7.98504 53.7564 9.75541 55.9638 11.2369C56.4082 11.5184 56.4082 12.1776 55.9638 12.4665Z" fill="#FFA100"/>
<path id="Vector_17" d="M31.5184 65.0593C29.311 66.5334 28.7333 68.3112 28.0962 69.9037C27.8518 70.526 26.9629 70.526 26.7184 69.9037C26.0814 68.3112 25.5036 66.5408 23.2962 65.0593C22.8518 64.7778 22.8518 64.1186 23.2962 63.8297C25.5036 62.3556 26.0814 60.5778 26.7184 58.9852C26.9629 58.363 27.8518 58.363 28.0962 58.9852C28.7333 60.5778 29.311 62.3482 31.5184 63.8297C31.9629 64.1111 31.9629 64.7704 31.5184 65.0593Z" fill="#FFA100"/>
<path id="Vector_18" d="M62.223 74.8152C70.405 74.8152 77.0378 68.1824 77.0378 60.0004C77.0378 51.8184 70.405 45.1855 62.223 45.1855C54.041 45.1855 47.4082 51.8184 47.4082 60.0004C47.4082 68.1824 54.041 74.8152 62.223 74.8152Z" fill="#FFA100"/>
<path id="Vector_19" d="M69.4066 59.2219L63.4807 49.5923C62.9029 48.6515 61.5326 48.6515 60.9548 49.5923L55.0289 59.2219C54.7326 59.696 54.7326 60.296 55.0289 60.7775L60.9548 70.4071C61.5326 71.3478 62.9029 71.3478 63.4807 70.4071L69.4066 60.7775C69.7029 60.3034 69.7029 59.7034 69.4066 59.2219ZM62.2215 53.1923L65.7474 58.9256L62.2215 59.933L58.6955 58.9256L62.2215 53.1923ZM62.2215 66.7997L59.3992 62.2145L61.814 62.9034C62.34 63.0515 62.4585 62.9552 65.0437 62.2145L62.2215 66.7997Z" fill="white"/>
</g>
<defs>
<clipPath id="clip0_3413_15710">
<rect width="80" height="80" fill="white"/>
</clipPath>
</defs>
</svg>
