<svg width="80" height="80" viewBox="0 0 80 80" fill="none" xmlns="http://www.w3.org/2000/svg">
<g id="Image" clip-path="url(#clip0_3413_15481)">
<path id="Vector" d="M39.9999 79.9999C60.4549 79.9999 77.037 63.4178 77.037 42.9628C77.037 22.5078 60.4549 5.92578 39.9999 5.92578C19.5449 5.92578 2.96289 22.5078 2.96289 42.9628C2.96289 63.4178 19.5449 79.9999 39.9999 79.9999Z" fill="#E7E9FF"/>
<path id="Vector_2" d="M4.44488 4.44444C5.67218 4.44444 6.6671 3.44952 6.6671 2.22222C6.6671 0.994923 5.67218 0 4.44488 0C3.21758 0 2.22266 0.994923 2.22266 2.22222C2.22266 3.44952 3.21758 4.44444 4.44488 4.44444Z" fill="#FF4D69"/>
<path id="Vector_3" d="M77.7769 4.44444C79.0042 4.44444 79.9991 3.44952 79.9991 2.22222C79.9991 0.994923 79.0042 0 77.7769 0C76.5496 0 75.5547 0.994923 75.5547 2.22222C75.5547 3.44952 76.5496 4.44444 77.7769 4.44444Z" fill="#00C99F"/>
<path id="Vector_4" d="M74.0738 80.0001C75.3011 80.0001 76.296 79.0052 76.296 77.7779C76.296 76.5506 75.3011 75.5557 74.0738 75.5557C72.8465 75.5557 71.8516 76.5506 71.8516 77.7779C71.8516 79.0052 72.8465 80.0001 74.0738 80.0001Z" fill="#FFA100"/>
<path id="Vector_5" d="M2.22222 76.296C3.44952 76.296 4.44444 75.3011 4.44444 74.0738C4.44444 72.8465 3.44952 71.8516 2.22222 71.8516C0.994923 71.8516 0 72.8465 0 74.0738C0 75.3011 0.994923 76.296 2.22222 76.296Z" fill="#00C99F"/>
<path id="Vector_6" d="M16.2969 6.66699H34.0747V48.8892H13.334V9.62996C13.334 7.99292 14.6599 6.66699 16.2969 6.66699Z" fill="#988FFF"/>
<path id="Vector_7" d="M66.6662 11.1115V58.5189H17.7773V6.66706C17.7773 5.03003 19.1033 3.7041 20.7403 3.7041H59.2588L66.6662 11.1115Z" fill="#D4D1FB"/>
<path id="Vector_8" d="M33.3332 22.9633C37.4242 22.9633 40.7406 19.6468 40.7406 15.5558C40.7406 11.4648 37.4242 8.14844 33.3332 8.14844C29.2422 8.14844 25.9258 11.4648 25.9258 15.5558C25.9258 19.6468 29.2422 22.9633 33.3332 22.9633Z" fill="#6947E2"/>
<path id="Vector_9" d="M29.6301 22.9633C33.7211 22.9633 37.0375 19.6468 37.0375 15.5558C37.0375 11.4648 33.7211 8.14844 29.6301 8.14844C25.5391 8.14844 22.2227 11.4648 22.2227 15.5558C22.2227 19.6468 25.5391 22.9633 29.6301 22.9633Z" fill="#FFA100"/>
<path id="Vector_10" d="M33.2075 15.1481L30.2445 10.7037C29.9704 10.2889 29.2889 10.2889 29.0149 10.7037L26.0519 15.1481C25.8889 15.4 25.8889 15.7185 26.0519 15.9704L29.0149 20.4148C29.3112 20.8518 29.9556 20.8518 30.2445 20.4148L33.2075 15.9704C33.3704 15.7185 33.3704 15.4 33.2075 15.1481ZM29.6297 12.4518L31.3038 14.9629L29.6297 15.5185L27.9556 14.9629L29.6297 12.4518ZM29.6297 18.6667L28.2667 16.6222L29.3927 17C29.6815 17.0963 29.7408 17.037 30.9852 16.6222L29.6223 18.6667H29.6297Z" fill="white"/>
<path id="Vector_11" d="M71.1109 46.6667V63.0519C56.5183 85.6223 23.4961 85.6519 8.88867 63.0519V41.4815C8.88867 39.8445 10.2146 38.5186 11.8516 38.5186H29.585C30.5405 38.5186 31.4368 38.9778 31.9924 39.763L34.8072 43.7037H68.1405C69.7776 43.7037 71.1035 45.0297 71.1035 46.6667H71.1109Z" fill="#6947E2"/>
<path id="Vector_12" d="M41.4817 68.4814V79.9629C40.6594 80.0147 39.3409 80.0147 38.5187 79.9629V68.4814C35.8891 66.9333 37.0002 62.9629 40.0002 62.9629C43.0002 62.9629 44.1039 66.9407 41.4817 68.4814Z" fill="#D4D1FB"/>
<path id="Vector_13" d="M31.8525 71.1107V79.0959C30.845 78.8737 29.8599 78.607 28.8895 78.2959V71.1107C28.8895 70.7033 28.5562 70.37 28.1488 70.37H24.445C22.4006 70.37 20.7413 68.7107 20.7413 66.6663V61.8144C18.1117 60.2663 19.2228 56.2959 22.2228 56.2959C25.2228 56.2959 26.3265 60.2737 23.7043 61.8144V66.6663C23.7043 67.0737 24.0376 67.407 24.445 67.407H28.1488C30.1932 67.407 31.8525 69.0663 31.8525 71.1107Z" fill="#D4D1FB"/>
<path id="Vector_14" d="M59.2595 61.8144V66.6663C59.2595 68.7107 57.6003 70.37 55.5558 70.37H51.8521C51.4447 70.37 51.1114 70.7033 51.1114 71.1107V78.2959C50.141 78.607 49.1558 78.8737 48.1484 79.0959V71.1107C48.1484 69.0663 49.8077 67.407 51.8521 67.407H55.5558C55.9633 67.407 56.2966 67.0737 56.2966 66.6663V61.8144C53.667 60.2663 54.7781 56.2959 57.7781 56.2959C60.7781 56.2959 61.8818 60.2737 59.2595 61.8144Z" fill="#D4D1FB"/>
<path id="Vector_15" d="M66.6672 11.1115H62.2227C60.5857 11.1115 59.2598 9.78558 59.2598 8.14855V3.7041L66.6672 11.1115Z" fill="#6947E2"/>
<path id="Vector_16" d="M25.9264 26.667H22.9634C22.556 26.667 22.2227 26.3337 22.2227 25.9263C22.2227 25.7115 22.3856 25.1855 22.9634 25.1855H25.9264C26.3338 25.1855 26.6671 25.5189 26.6671 25.9263C26.6671 26.1411 26.5041 26.667 25.9264 26.667Z" fill="white"/>
<path id="Vector_17" d="M61.4808 26.667H30.3696C29.9622 26.667 29.6289 26.3337 29.6289 25.9263C29.6289 25.7115 29.7919 25.1855 30.3696 25.1855H61.4808C61.8882 25.1855 62.2215 25.5189 62.2215 25.9263C62.2215 26.1411 62.0585 26.667 61.4808 26.667Z" fill="white"/>
<path id="Vector_18" d="M25.9264 31.1114H22.9634C22.556 31.1114 22.2227 30.778 22.2227 30.3706C22.2227 30.1558 22.3856 29.6299 22.9634 29.6299H25.9264C26.3338 29.6299 26.6671 29.9632 26.6671 30.3706C26.6671 30.5854 26.5041 31.1114 25.9264 31.1114Z" fill="white"/>
<path id="Vector_19" d="M61.4808 31.1114H30.3696C29.9622 31.1114 29.6289 30.778 29.6289 30.3706C29.6289 30.1558 29.7919 29.6299 30.3696 29.6299H61.4808C61.8882 29.6299 62.2215 29.9632 62.2215 30.3706C62.2215 30.5854 62.0585 31.1114 61.4808 31.1114Z" fill="white"/>
<path id="Vector_20" d="M25.9264 35.5557H22.9634C22.556 35.5557 22.2227 35.2224 22.2227 34.815C22.2227 34.6001 22.3856 34.0742 22.9634 34.0742H25.9264C26.3338 34.0742 26.6671 34.4076 26.6671 34.815C26.6671 35.0298 26.5041 35.5557 25.9264 35.5557Z" fill="white"/>
<path id="Vector_21" d="M61.4808 35.5557H30.3696C29.9622 35.5557 29.6289 35.2224 29.6289 34.815C29.6289 34.6001 29.7919 34.0742 30.3696 34.0742H61.4808C61.8882 34.0742 62.2215 34.4076 62.2215 34.815C62.2215 35.0298 62.0585 35.5557 61.4808 35.5557Z" fill="white"/>
</g>
<defs>
<clipPath id="clip0_3413_15481">
<rect width="80" height="80" fill="white"/>
</clipPath>
</defs>
</svg>
