<svg width="80" height="80" viewBox="0 0 80 80" fill="none" xmlns="http://www.w3.org/2000/svg">
<g id="Image" clip-path="url(#clip0_3413_15752)">
<path id="Vector" d="M39.9999 77.037C60.4549 77.037 77.037 60.4549 77.037 39.9999C77.037 19.5449 60.4549 2.96289 39.9999 2.96289C19.5449 2.96289 2.96289 19.5449 2.96289 39.9999C2.96289 60.4549 19.5449 77.037 39.9999 77.037Z" fill="#D4D1FB"/>
<path id="Vector_2" d="M7.40777 4.44444C8.63507 4.44444 9.62999 3.44952 9.62999 2.22222C9.62999 0.994923 8.63507 0 7.40777 0C6.18047 0 5.18555 0.994923 5.18555 2.22222C5.18555 3.44952 6.18047 4.44444 7.40777 4.44444Z" fill="#00C99F"/>
<path id="Vector_3" d="M77.7769 9.62999C79.0042 9.62999 79.9991 8.63507 79.9991 7.40777C79.9991 6.18047 79.0042 5.18555 77.7769 5.18555C76.5496 5.18555 75.5547 6.18047 75.5547 7.40777C75.5547 8.63507 76.5496 9.62999 77.7769 9.62999Z" fill="#FFA100"/>
<path id="Vector_4" d="M71.1109 80.0001C72.3382 80.0001 73.3331 79.0052 73.3331 77.7779C73.3331 76.5506 72.3382 75.5557 71.1109 75.5557C69.8836 75.5557 68.8887 76.5506 68.8887 77.7779C68.8887 79.0052 69.8836 80.0001 71.1109 80.0001Z" fill="#00C99F"/>
<path id="Vector_5" d="M2.22222 74.8146C3.44952 74.8146 4.44444 73.8196 4.44444 72.5923C4.44444 71.365 3.44952 70.3701 2.22222 70.3701C0.994923 70.3701 0 71.365 0 72.5923C0 73.8196 0.994923 74.8146 2.22222 74.8146Z" fill="#FF4D69"/>
<path id="Vector_6" d="M18.9479 61.415C18.585 61.2446 19.2368 62.4446 8.95534 40.3187C8.86645 40.1187 8.86645 39.8891 8.95534 39.6965L18.585 18.9557C18.7553 18.5928 17.5553 19.2446 39.6887 8.96315C39.8887 8.87426 40.1109 8.87426 40.3109 8.96315L61.0516 18.5928C61.4146 18.7632 60.7702 17.5631 71.0442 39.6965C71.1331 39.8965 71.1331 40.1261 71.0442 40.3187L61.4146 61.0594C61.2442 61.4224 62.4442 60.7706 40.3109 71.052C39.8516 71.2668 40.9702 71.652 18.9479 61.4224V61.415ZM19.8146 60.1854L39.9998 69.5557L60.185 60.1854L69.5553 40.0076L60.185 19.8224L39.9998 10.452L19.8146 19.8224L10.4442 40.0076L19.8146 60.1854Z" fill="#AFA5ED"/>
<path id="Vector_7" d="M48.1481 5.92594V14.8148C48.1481 15.0963 47.9926 15.3556 47.7407 15.4741C39.6518 19.5185 40.2444 19.2593 40 19.2593V8.80002L47.0741 5.26668C47.5481 5.02224 48.1481 5.35557 48.1481 5.92594Z" fill="#6947E2"/>
<path id="Vector_8" d="M39.9997 8.80012V19.2594C39.7553 19.2594 40.3034 19.4964 32.259 15.4742C32.0071 15.3557 31.8516 15.0964 31.8516 14.8149V5.92604C31.8516 5.36308 32.4442 5.02234 32.9256 5.26678L39.9997 8.80012Z" fill="#8260FC"/>
<path id="Vector_9" d="M40.0004 57.7782C49.8188 57.7782 57.7782 49.8188 57.7782 40.0004C57.7782 30.182 49.8188 22.2227 40.0004 22.2227C30.182 22.2227 22.2227 30.182 22.2227 40.0004C22.2227 49.8188 30.182 57.7782 40.0004 57.7782Z" fill="#FFA100"/>
<path id="Vector_10" d="M39.9999 54.0739C47.7728 54.0739 54.0739 47.7728 54.0739 39.9999C54.0739 32.227 47.7728 25.9258 39.9999 25.9258C32.227 25.9258 25.9258 32.227 25.9258 39.9999C25.9258 47.7728 32.227 54.0739 39.9999 54.0739Z" fill="#6947E2"/>
<path id="Vector_11" d="M47.7406 6.58505L40.3331 10.2888C40.1183 10.3999 39.8813 10.3999 39.6665 10.2888L32.2591 6.58505C31.7183 6.3332 31.7183 5.51838 32.2591 5.26653L39.6665 1.56283C39.8739 1.45171 40.1257 1.45171 40.3331 1.56283L47.7406 5.26653C48.2813 5.51838 48.2813 6.3332 47.7406 6.58505Z" fill="#988FFF"/>
<path id="Vector_12" d="M48.1481 65.1847V74.0736C48.1481 74.3551 47.9926 74.6144 47.7407 74.7329C39.6518 78.7773 40.2444 78.5181 40 78.5181V68.0588L47.0741 64.5255C47.5481 64.281 48.1481 64.6144 48.1481 65.1847Z" fill="#6947E2"/>
<path id="Vector_13" d="M39.9997 68.0589V78.5182C39.7553 78.5182 40.3034 78.7552 32.259 74.733C32.0071 74.6145 31.8516 74.3552 31.8516 74.0737V65.1848C31.8516 64.6219 32.4442 64.2811 32.9256 64.5256L39.9997 68.0589Z" fill="#8260FC"/>
<path id="Vector_14" d="M47.7406 65.8448L40.3331 69.5485C40.1183 69.6596 39.8813 69.6596 39.6665 69.5485L32.2591 65.8448C31.7183 65.593 31.7183 64.7781 32.2591 64.5263L39.6665 60.8226C39.8739 60.7115 40.1257 60.7115 40.3331 60.8226L47.7406 64.5263C48.2813 64.7781 48.2813 65.593 47.7406 65.8448Z" fill="#988FFF"/>
<path id="Vector_15" d="M17.7771 35.5558V44.4447C17.7771 44.7262 17.6215 44.9855 17.3696 45.104C9.28076 49.1484 9.87335 48.8892 9.62891 48.8892V38.4299L16.703 34.8966C17.1771 34.6521 17.7771 34.9855 17.7771 35.5558Z" fill="#6947E2"/>
<path id="Vector_16" d="M9.63057 38.43V48.8893C9.38613 48.8893 9.93427 49.1263 1.88983 45.1041C1.63798 44.9856 1.48242 44.7263 1.48242 44.4448V35.5559C1.48242 34.993 2.07501 34.6522 2.5565 34.8967L9.63057 38.43Z" fill="#8260FC"/>
<path id="Vector_17" d="M17.3695 36.2149L9.96205 39.9186C9.74724 40.0297 9.5102 40.0297 9.29538 39.9186L1.88798 36.2149C1.34724 35.9631 1.34724 35.1483 1.88798 34.8964L9.29538 31.1927C9.50279 31.0816 9.75464 31.0816 9.96205 31.1927L17.3695 34.8964C17.9102 35.1483 17.9102 35.9631 17.3695 36.2149Z" fill="#988FFF"/>
<path id="Vector_18" d="M78.5192 35.5558V44.4447C78.5192 44.7262 78.3637 44.9855 78.1118 45.104C70.0229 49.1484 70.6155 48.8892 70.3711 48.8892V38.4299L77.4452 34.8966C77.9192 34.6521 78.5192 34.9855 78.5192 35.5558Z" fill="#6947E2"/>
<path id="Vector_19" d="M70.3708 38.43V48.8893C70.1264 48.8893 70.6745 49.1263 62.6301 45.1041C62.3782 44.9856 62.2227 44.7263 62.2227 44.4448V35.5559C62.2227 34.993 62.8152 34.6522 63.2967 34.8967L70.3708 38.43Z" fill="#8260FC"/>
<path id="Vector_20" d="M78.1116 36.2149L70.7042 39.9186C70.4894 40.0297 70.2524 40.0297 70.0376 39.9186L62.6302 36.2149C62.0894 35.9631 62.0894 35.1483 62.6302 34.8964L70.0376 31.1927C70.245 31.0816 70.4968 31.0816 70.7042 31.1927L78.1116 34.8964C78.6524 35.1483 78.6524 35.9631 78.1116 36.2149Z" fill="#988FFF"/>
<path id="Vector_21" d="M19.2584 22.9631C21.3039 22.9631 22.9621 21.3049 22.9621 19.2594C22.9621 17.2139 21.3039 15.5557 19.2584 15.5557C17.2129 15.5557 15.5547 17.2139 15.5547 19.2594C15.5547 21.3049 17.2129 22.9631 19.2584 22.9631Z" fill="#8260FC"/>
<path id="Vector_22" d="M19.2584 64.4445C21.3039 64.4445 22.9621 62.7863 22.9621 60.7408C22.9621 58.6953 21.3039 57.0371 19.2584 57.0371C17.2129 57.0371 15.5547 58.6953 15.5547 60.7408C15.5547 62.7863 17.2129 64.4445 19.2584 64.4445Z" fill="#8260FC"/>
<path id="Vector_23" d="M60.7408 22.9631C62.7863 22.9631 64.4445 21.3049 64.4445 19.2594C64.4445 17.2139 62.7863 15.5557 60.7408 15.5557C58.6953 15.5557 57.0371 17.2139 57.0371 19.2594C57.0371 21.3049 58.6953 22.9631 60.7408 22.9631Z" fill="#8260FC"/>
<path id="Vector_24" d="M60.7408 64.4445C62.7863 64.4445 64.4445 62.7863 64.4445 60.7408C64.4445 58.6953 62.7863 57.0371 60.7408 57.0371C58.6953 57.0371 57.0371 58.6953 57.0371 60.7408C57.0371 62.7863 58.6953 64.4445 60.7408 64.4445Z" fill="#8260FC"/>
<path id="Vector_25" d="M49.6304 34.815V45.1853C49.6304 45.4668 49.4748 45.7261 49.2229 45.8446C39.5118 50.6964 40.2452 50.3705 40.0007 50.3705C39.7563 50.3705 40.46 50.689 30.7785 45.8446C30.5266 45.7261 30.3711 45.4668 30.3711 45.1853V34.815C30.3711 34.5335 30.5266 34.2742 30.7785 34.1557L39.6674 29.7113C39.8748 29.6002 40.1267 29.6002 40.3341 29.7113L49.2229 34.1557C49.4748 34.2742 49.6304 34.5335 49.6304 34.815Z" fill="#8260FC"/>
<path id="Vector_26" d="M39.2909 42.7075L37.2923 40.7075C36.9026 40.3175 36.9026 39.6825 37.2923 39.2925C37.682 38.9025 38.3166 38.9025 38.7063 39.2925L40.0004 40.5875L42.2937 38.2925C42.6834 37.9025 43.318 37.9025 43.7077 38.2925C44.0974 38.6825 44.0974 39.3175 43.7077 39.7075L40.7099 42.7075C40.3201 43.0975 39.6856 43.0975 39.2959 42.7075H39.2909Z" fill="white"/>
</g>
<defs>
<clipPath id="clip0_3413_15752">
<rect width="80" height="80" fill="white"/>
</clipPath>
</defs>
</svg>
