<svg width="80" height="80" viewBox="0 0 80 80" fill="none" xmlns="http://www.w3.org/2000/svg">
<g id="Image" clip-path="url(#clip0_3413_15826)">
<path id="Vector" d="M39.9999 74.0741C60.4549 74.0741 77.037 57.492 77.037 37.037C77.037 16.582 60.4549 0 39.9999 0C19.5449 0 2.96289 16.582 2.96289 37.037C2.96289 57.492 19.5449 74.0741 39.9999 74.0741Z" fill="#D4D1FB"/>
<path id="Vector_2" d="M67.8822 61.4077C67.8822 61.4077 67.8378 61.4596 67.8156 61.4818C51.9637 79.5114 23.4304 77.9559 9.63038 58.2299C0.741494 45.5114 0.734086 28.5707 9.63038 15.8447C24.3933 -5.26636 55.6008 -5.28118 70.3711 15.8447C80.3193 30.0818 78.8378 48.9929 67.8822 61.4077Z" fill="#D4D1FB"/>
<path id="Vector_3" d="M4.44488 4.44444C5.67218 4.44444 6.6671 3.44952 6.6671 2.22222C6.6671 0.994923 5.67218 0 4.44488 0C3.21758 0 2.22266 0.994923 2.22266 2.22222C2.22266 3.44952 3.21758 4.44444 4.44488 4.44444Z" fill="#00C99F"/>
<path id="Vector_4" d="M77.7769 13.0665C79.0042 13.0665 79.9991 12.0716 79.9991 10.8443C79.9991 9.61699 79.0042 8.62207 77.7769 8.62207C76.5496 8.62207 75.5547 9.61699 75.5547 10.8443C75.5547 12.0716 76.5496 13.0665 77.7769 13.0665Z" fill="#FFA100"/>
<path id="Vector_5" d="M74.0738 80.0001C75.3011 80.0001 76.296 79.0052 76.296 77.7779C76.296 76.5506 75.3011 75.5557 74.0738 75.5557C72.8465 75.5557 71.8516 76.5506 71.8516 77.7779C71.8516 79.0052 72.8465 80.0001 74.0738 80.0001Z" fill="#00C99F"/>
<path id="Vector_6" d="M2.22222 74.8146C3.44952 74.8146 4.44444 73.8196 4.44444 72.5923C4.44444 71.365 3.44952 70.3701 2.22222 70.3701C0.994923 70.3701 0 71.365 0 72.5923C0 73.8196 0.994923 74.8146 2.22222 74.8146Z" fill="#FF4D69"/>
<path id="Vector_7" d="M21.4824 5.18555H67.4083C69.0454 5.18555 70.3713 6.51147 70.3713 8.14851V12.593H21.4824V5.18555Z" fill="#8260FC"/>
<path id="Vector_8" d="M12.5919 5.18555H22.9622C25.4141 5.18555 27.4067 7.17814 27.4067 9.62999V12.593H9.62891V8.14851C9.62891 6.51147 10.9548 5.18555 12.5919 5.18555Z" fill="#988FFF"/>
<path id="Vector_9" d="M70.3697 12.5928V58.2298C69.5474 59.4002 68.6067 60.5854 67.8808 61.4076C67.7622 61.5261 70.5474 61.4817 12.1845 61.4817C11.2734 60.4446 10.4215 59.3631 9.62891 58.2298V12.5928H70.3697Z" fill="#AFA5ED"/>
<path id="Vector_10" d="M66.6665 9.62992C67.0756 9.62992 67.4073 9.29828 67.4073 8.88918C67.4073 8.48008 67.0756 8.14844 66.6665 8.14844C66.2574 8.14844 65.9258 8.48008 65.9258 8.88918C65.9258 9.29828 66.2574 9.62992 66.6665 9.62992Z" fill="white"/>
<path id="Vector_11" d="M62.2232 9.62992C62.6323 9.62992 62.9639 9.29828 62.9639 8.88918C62.9639 8.48008 62.6323 8.14844 62.2232 8.14844C61.8141 8.14844 61.4824 8.48008 61.4824 8.88918C61.4824 9.29828 61.8141 9.62992 62.2232 9.62992Z" fill="white"/>
<path id="Vector_12" d="M57.7779 9.62992C58.1869 9.62992 58.5186 9.29828 58.5186 8.88918C58.5186 8.48008 58.1869 8.14844 57.7779 8.14844C57.3688 8.14844 57.0371 8.48008 57.0371 8.88918C57.0371 9.29828 57.3688 9.62992 57.7779 9.62992Z" fill="white"/>
<path id="Vector_13" d="M23.7036 9.62992C24.1127 9.62992 24.4444 9.29828 24.4444 8.88918C24.4444 8.48008 24.1127 8.14844 23.7036 8.14844C23.2945 8.14844 22.9629 8.48008 22.9629 8.88918C22.9629 9.29828 23.2945 9.62992 23.7036 9.62992Z" fill="white"/>
<path id="Vector_14" d="M64.4446 17.0371H15.5557C14.7375 17.0371 14.0742 17.7004 14.0742 18.5186V42.2223C14.0742 43.0405 14.7375 43.7038 15.5557 43.7038H64.4446C65.2628 43.7038 65.9261 43.0405 65.9261 42.2223V18.5186C65.9261 17.7004 65.2628 17.0371 64.4446 17.0371Z" fill="#6947E2"/>
<path id="Vector_15" d="M65.1853 48.6299H14.815C14.4076 48.6299 14.0742 48.2966 14.0742 47.8892C14.0742 47.6744 14.2372 47.1484 14.815 47.1484H65.1853C65.5927 47.1484 65.9261 47.4818 65.9261 47.8892C65.9261 48.104 65.7631 48.6299 65.1853 48.6299Z" fill="#8A7FD1"/>
<path id="Vector_16" d="M65.1853 52.6299H14.815C14.4076 52.6299 14.0742 52.2966 14.0742 51.8892C14.0742 51.6744 14.2372 51.1484 14.815 51.1484H65.1853C65.5927 51.1484 65.9261 51.4818 65.9261 51.8892C65.9261 52.104 65.7631 52.6299 65.1853 52.6299Z" fill="#8A7FD1"/>
<path id="Vector_17" d="M65.1853 56.6299H14.815C14.4076 56.6299 14.0742 56.2966 14.0742 55.8892C14.0742 55.6744 14.2372 55.1484 14.815 55.1484H65.1853C65.5927 55.1484 65.9261 55.4818 65.9261 55.8892C65.9261 56.104 65.7631 56.6299 65.1853 56.6299Z" fill="#8A7FD1"/>
<path id="Vector_18" d="M40.0004 79.9997C48.1824 79.9997 54.8152 73.3669 54.8152 65.1849C54.8152 57.0029 48.1824 50.3701 40.0004 50.3701C31.8184 50.3701 25.1855 57.0029 25.1855 65.1849C25.1855 73.3669 31.8184 79.9997 40.0004 79.9997Z" fill="#FFA100"/>
<path id="Vector_19" d="M37.5817 69.415L33.5846 65.415C32.8051 64.635 32.8051 63.365 33.5846 62.585C34.364 61.805 35.6331 61.805 36.4126 62.585L39.0007 65.175L43.5874 60.585C44.3669 59.805 45.636 59.805 46.4154 60.585C47.1949 61.365 47.1949 62.635 46.4154 63.415L40.4197 69.415C39.6403 70.195 38.3712 70.195 37.5917 69.415H37.5817Z" fill="white"/>
</g>
<defs>
<clipPath id="clip0_3413_15826">
<rect width="80" height="80" fill="white"/>
</clipPath>
</defs>
</svg>
