<svg width="81" height="80" viewBox="0 0 81 80" fill="none" xmlns="http://www.w3.org/2000/svg">
<g id="Image" clip-path="url(#clip0_3413_15316)">
<path id="Vector" d="M40.3339 79.9999C60.7889 79.9999 77.3709 63.4178 77.3709 42.9628C77.3709 22.5078 60.7889 5.92578 40.3339 5.92578C19.8789 5.92578 3.29688 22.5078 3.29688 42.9628C3.29688 63.4178 19.8789 79.9999 40.3339 79.9999Z" fill="#E7E9FF"/>
<path id="Vector_2" d="M4.77886 4.44444C6.00616 4.44444 7.00109 3.44952 7.00109 2.22222C7.00109 0.994923 6.00616 0 4.77886 0C3.55156 0 2.55664 0.994923 2.55664 2.22222C2.55664 3.44952 3.55156 4.44444 4.77886 4.44444Z" fill="#FF4D69"/>
<path id="Vector_3" d="M78.1109 4.44444C79.3382 4.44444 80.3331 3.44952 80.3331 2.22222C80.3331 0.994923 79.3382 0 78.1109 0C76.8836 0 75.8887 0.994923 75.8887 2.22222C75.8887 3.44952 76.8836 4.44444 78.1109 4.44444Z" fill="#00C99F"/>
<path id="Vector_4" d="M74.4078 80.0001C75.6351 80.0001 76.63 79.0052 76.63 77.7779C76.63 76.5506 75.6351 75.5557 74.4078 75.5557C73.1805 75.5557 72.1855 76.5506 72.1855 77.7779C72.1855 79.0052 73.1805 80.0001 74.4078 80.0001Z" fill="#FFA100"/>
<path id="Vector_5" d="M2.55621 76.296C3.78351 76.296 4.77843 75.3011 4.77843 74.0738C4.77843 72.8465 3.78351 71.8516 2.55621 71.8516C1.32891 71.8516 0.333984 72.8465 0.333984 74.0738C0.333984 75.3011 1.32891 76.296 2.55621 76.296Z" fill="#00C99F"/>
<path id="Vector_6" d="M16.6309 6.66699H34.4087V48.8892H13.668V9.62996C13.668 7.99292 14.9939 6.66699 16.6309 6.66699Z" fill="#988FFF"/>
<path id="Vector_7" d="M67.0002 11.1115V58.5189H18.1113V6.66706C18.1113 5.03003 19.4373 3.7041 21.0743 3.7041H59.5928L67.0002 11.1115Z" fill="#D4D1FB"/>
<path id="Vector_8" d="M33.6672 22.9633C37.7582 22.9633 41.0746 19.6468 41.0746 15.5558C41.0746 11.4648 37.7582 8.14844 33.6672 8.14844C29.5762 8.14844 26.2598 11.4648 26.2598 15.5558C26.2598 19.6468 29.5762 22.9633 33.6672 22.9633Z" fill="#6947E2"/>
<path id="Vector_9" d="M29.964 22.9633C34.055 22.9633 37.3715 19.6468 37.3715 15.5558C37.3715 11.4648 34.055 8.14844 29.964 8.14844C25.873 8.14844 22.5566 11.4648 22.5566 15.5558C22.5566 19.6468 25.873 22.9633 29.964 22.9633Z" fill="#FFA100"/>
<path id="Vector_10" d="M33.5415 15.1481L30.5785 10.7037C30.3044 10.2889 29.6229 10.2889 29.3489 10.7037L26.3859 15.1481C26.2229 15.4 26.2229 15.7185 26.3859 15.9704L29.3489 20.4148C29.6452 20.8518 30.2896 20.8518 30.5785 20.4148L33.5415 15.9704C33.7044 15.7185 33.7044 15.4 33.5415 15.1481ZM29.9637 12.4518L31.6377 14.9629L29.9637 15.5185L28.2896 14.9629L29.9637 12.4518ZM29.9637 18.6667L28.6007 16.6222L29.7266 17C30.0155 17.0963 30.0748 17.037 31.3192 16.6222L29.9563 18.6667H29.9637Z" fill="white"/>
<path id="Vector_11" d="M71.4449 46.6667V63.0519C56.8523 85.6223 23.8301 85.6519 9.22266 63.0519V41.4815C9.22266 39.8445 10.5486 38.5186 12.1856 38.5186H29.919C30.8745 38.5186 31.7708 38.9778 32.3264 39.763L35.1412 43.7037H68.4745C70.1115 43.7037 71.4375 45.0297 71.4375 46.6667H71.4449Z" fill="#6947E2"/>
<path id="Vector_12" d="M41.8156 68.4814V79.9629C40.9934 80.0147 39.6749 80.0147 38.8527 79.9629V68.4814C36.223 66.9333 37.3342 62.9629 40.3342 62.9629C43.3342 62.9629 44.4379 66.9407 41.8156 68.4814Z" fill="#D4D1FB"/>
<path id="Vector_13" d="M32.1864 71.1107V79.0959C31.179 78.8737 30.1938 78.607 29.2235 78.2959V71.1107C29.2235 70.7033 28.8901 70.37 28.4827 70.37H24.779C22.7346 70.37 21.0753 68.7107 21.0753 66.6663V61.8144C18.4457 60.2663 19.5568 56.2959 22.5568 56.2959C25.5568 56.2959 26.6605 60.2737 24.0383 61.8144V66.6663C24.0383 67.0737 24.3716 67.407 24.779 67.407H28.4827C30.5272 67.407 32.1864 69.0663 32.1864 71.1107Z" fill="#D4D1FB"/>
<path id="Vector_14" d="M59.5935 61.8144V66.6663C59.5935 68.7107 57.9343 70.37 55.8898 70.37H52.1861C51.7787 70.37 51.4454 70.7033 51.4454 71.1107V78.2959C50.475 78.607 49.4898 78.8737 48.4824 79.0959V71.1107C48.4824 69.0663 50.1417 67.407 52.1861 67.407H55.8898C56.2972 67.407 56.6306 67.0737 56.6306 66.6663V61.8144C54.0009 60.2663 55.1121 56.2959 58.1121 56.2959C61.1121 56.2959 62.2158 60.2737 59.5935 61.8144Z" fill="#D4D1FB"/>
<path id="Vector_15" d="M67.0012 11.1115H62.5567C60.9197 11.1115 59.5938 9.78558 59.5938 8.14855V3.7041L67.0012 11.1115Z" fill="#6947E2"/>
<path id="Vector_16" d="M26.2603 26.667H23.2974C22.89 26.667 22.5566 26.3337 22.5566 25.9263C22.5566 25.7115 22.7196 25.1855 23.2974 25.1855H26.2603C26.6678 25.1855 27.0011 25.5189 27.0011 25.9263C27.0011 26.1411 26.8381 26.667 26.2603 26.667Z" fill="white"/>
<path id="Vector_17" d="M61.8147 26.667H30.7036C30.2962 26.667 29.9629 26.3337 29.9629 25.9263C29.9629 25.7115 30.1259 25.1855 30.7036 25.1855H61.8147C62.2221 25.1855 62.5555 25.5189 62.5555 25.9263C62.5555 26.1411 62.3925 26.667 61.8147 26.667Z" fill="white"/>
<path id="Vector_18" d="M26.2603 31.1114H23.2974C22.89 31.1114 22.5566 30.778 22.5566 30.3706C22.5566 30.1558 22.7196 29.6299 23.2974 29.6299H26.2603C26.6678 29.6299 27.0011 29.9632 27.0011 30.3706C27.0011 30.5854 26.8381 31.1114 26.2603 31.1114Z" fill="white"/>
<path id="Vector_19" d="M61.8147 31.1114H30.7036C30.2962 31.1114 29.9629 30.778 29.9629 30.3706C29.9629 30.1558 30.1259 29.6299 30.7036 29.6299H61.8147C62.2221 29.6299 62.5555 29.9632 62.5555 30.3706C62.5555 30.5854 62.3925 31.1114 61.8147 31.1114Z" fill="white"/>
<path id="Vector_20" d="M26.2603 35.5557H23.2974C22.89 35.5557 22.5566 35.2224 22.5566 34.815C22.5566 34.6001 22.7196 34.0742 23.2974 34.0742H26.2603C26.6678 34.0742 27.0011 34.4076 27.0011 34.815C27.0011 35.0298 26.8381 35.5557 26.2603 35.5557Z" fill="white"/>
<path id="Vector_21" d="M61.8147 35.5557H30.7036C30.2962 35.5557 29.9629 35.2224 29.9629 34.815C29.9629 34.6001 30.1259 34.0742 30.7036 34.0742H61.8147C62.2221 34.0742 62.5555 34.4076 62.5555 34.815C62.5555 35.0298 62.3925 35.5557 61.8147 35.5557Z" fill="white"/>
</g>
<defs>
<clipPath id="clip0_3413_15316">
<rect width="80" height="80" fill="white" transform="translate(0.333984)"/>
</clipPath>
</defs>
</svg>
