<svg width="81" height="80" viewBox="0 0 81 80" fill="none" xmlns="http://www.w3.org/2000/svg">
<g id="Image" clip-path="url(#clip0_3413_15660)">
<path id="Vector" d="M43.6308 77.037C64.0858 77.037 80.6678 60.4549 80.6678 39.9999C80.6678 19.5449 64.0858 2.96289 43.6308 2.96289C23.1758 2.96289 6.59375 19.5449 6.59375 39.9999C6.59375 60.4549 23.1758 77.037 43.6308 77.037Z" fill="#E7E9FF"/>
<path id="Vector_2" d="M18.4449 4.44444C19.6722 4.44444 20.6671 3.44952 20.6671 2.22222C20.6671 0.994923 19.6722 0 18.4449 0C17.2176 0 16.2227 0.994923 16.2227 2.22222C16.2227 3.44952 17.2176 4.44444 18.4449 4.44444Z" fill="#00C99F"/>
<path id="Vector_3" d="M78.4449 11.1114C79.6722 11.1114 80.6671 10.1165 80.6671 8.88921C80.6671 7.66192 79.6722 6.66699 78.4449 6.66699C77.2176 6.66699 76.2227 7.66192 76.2227 8.88921C76.2227 10.1165 77.2176 11.1114 78.4449 11.1114Z" fill="#FFA100"/>
<path id="Vector_4" d="M69.5562 80.0001C70.7835 80.0001 71.7784 79.0052 71.7784 77.7779C71.7784 76.5506 70.7835 75.5557 69.5562 75.5557C68.3289 75.5557 67.334 76.5506 67.334 77.7779C67.334 79.0052 68.3289 80.0001 69.5562 80.0001Z" fill="#00C99F"/>
<path id="Vector_5" d="M2.89019 74.8146C4.11749 74.8146 5.11241 73.8196 5.11241 72.5923C5.11241 71.365 4.11749 70.3701 2.89019 70.3701C1.66289 70.3701 0.667969 71.365 0.667969 72.5923C0.667969 73.8196 1.66289 74.8146 2.89019 74.8146Z" fill="#FF4D69"/>
<path id="Vector_6" d="M76.2234 22.4076V57.5928C74.5715 60.6521 72.4901 63.4595 70.0678 65.9261H12.5197C9.2456 65.9261 6.59375 63.2743 6.59375 60.0002V17.0373C6.59375 13.7632 9.2456 11.1113 12.5197 11.1113H66.7938C70.6456 14.1928 73.8678 18.0373 76.2234 22.4076Z" fill="#8260FC"/>
<path id="Vector_7" d="M71.7798 20.0001V57.0371C69.328 57.0371 67.3354 59.0297 67.3354 61.4816H15.4835C15.4835 59.0297 13.4909 57.0371 11.0391 57.0371V20.0001C13.4909 20.0001 15.4835 18.0075 15.4835 15.5557H67.3354C67.3354 18.0075 69.328 20.0001 71.7798 20.0001Z" fill="#6947E2"/>
<path id="Vector_8" d="M55.4826 44.4444H27.3345C26.9271 44.4444 26.5938 44.111 26.5938 43.7036C26.5938 43.4888 26.7567 42.9629 27.3345 42.9629H55.4826C55.89 42.9629 56.2234 43.2962 56.2234 43.7036C56.2234 43.9184 56.0604 44.4444 55.4826 44.4444Z" fill="#988FFF"/>
<path id="Vector_9" d="M58.4457 48.8887H24.3716C23.9642 48.8887 23.6309 48.5554 23.6309 48.148C23.6309 47.9332 23.7938 47.4072 24.3716 47.4072H58.4457C58.8531 47.4072 59.1864 47.7406 59.1864 48.148C59.1864 48.3628 59.0235 48.8887 58.4457 48.8887Z" fill="#988FFF"/>
<path id="Vector_10" d="M58.4457 53.333H24.3716C23.9642 53.333 23.6309 52.9997 23.6309 52.5923C23.6309 52.3775 23.7938 51.8516 24.3716 51.8516H58.4457C58.8531 51.8516 59.1864 52.1849 59.1864 52.5923C59.1864 52.8071 59.0235 53.333 58.4457 53.333Z" fill="#988FFF"/>
<path id="Vector_11" d="M51.7784 57.7774H31.0376C30.6302 57.7774 30.2969 57.444 30.2969 57.0366C30.2969 56.8218 30.4598 56.2959 31.0376 56.2959H51.7784C52.1858 56.2959 52.5191 56.6292 52.5191 57.0366C52.5191 57.2515 52.3561 57.7774 51.7784 57.7774Z" fill="#988FFF"/>
<path id="Vector_12" d="M51.0386 24.4448V34.8152C51.0386 35.0967 50.883 35.356 50.6311 35.4745C40.92 40.3263 41.6534 40.0004 41.4089 40.0004C41.1645 40.0004 41.8682 40.3189 32.1867 35.4745C31.9349 35.356 31.7793 35.0967 31.7793 34.8152V24.4448C31.7793 24.1634 31.9349 23.9041 32.1867 23.7856L41.0756 19.3411C41.283 19.23 41.5349 19.23 41.7423 19.3411L50.6311 23.7856C50.883 23.9041 51.0386 24.1634 51.0386 24.4448Z" fill="#FFA100"/>
<g id="Group">
<path id="Vector_13" d="M36.9635 26.667C36.5561 26.667 36.2227 27.0003 36.2227 27.4077V29.4077L34.6153 27.0003C34.2079 26.3929 33.2598 26.6818 33.2598 27.4077V31.8522C33.2598 32.2596 33.5931 32.5929 34.0005 32.5929C34.4079 32.5929 34.7412 32.2596 34.7412 31.8522V29.8522L36.3487 32.2596C36.7561 32.867 37.7042 32.5781 37.7042 31.8522V27.4077C37.7042 27.0003 37.3709 26.667 36.9635 26.667Z" fill="white"/>
<path id="Vector_14" d="M42.8893 26.667H39.9263C39.5189 26.667 39.1855 27.0003 39.1855 27.4077V31.8522C39.1855 32.2596 39.5189 32.5929 39.9263 32.5929C40.3337 32.5929 40.667 32.2596 40.667 31.8522V31.1114H42.1485C42.5559 31.1114 42.8893 30.7781 42.8893 30.3707C42.8893 30.1559 42.7263 29.63 42.1485 29.63H40.667V28.1485H42.8893C43.2967 28.1485 43.63 27.8151 43.63 27.4077C43.63 27.0003 43.2967 26.667 42.8893 26.667Z" fill="white"/>
<path id="Vector_15" d="M48.815 26.667H45.8521C45.4447 26.667 45.1113 27.0003 45.1113 27.4077C45.1113 27.8151 45.4447 28.1485 45.8521 28.1485H46.5928V31.8522C46.5928 32.2596 46.9261 32.5929 47.3336 32.5929C47.741 32.5929 48.0743 32.2596 48.0743 31.8522V28.1485H48.815C49.2224 28.1485 49.5558 27.8151 49.5558 27.4077C49.5558 27.0003 49.2224 26.667 48.815 26.667Z" fill="white"/>
</g>
<path id="Vector_16" d="M61.4095 61.4814V72.4889C57.3651 74.7185 52.8614 76.2 48.0762 76.7703V61.4814H61.4095Z" fill="#D4D1FB"/>
<path id="Vector_17" d="M54.7415 71.8521C60.4689 71.8521 65.1118 67.2091 65.1118 61.4817C65.1118 55.7543 60.4689 51.1113 54.7415 51.1113C49.0141 51.1113 44.3711 55.7543 44.3711 61.4817C44.3711 67.2091 49.0141 71.8521 54.7415 71.8521Z" fill="#00C99F"/>
<path id="Vector_18" d="M52.9568 65.4892L49.9939 62.5263C49.4161 61.9485 49.4161 61.0077 49.9939 60.43C50.5717 59.8522 51.5124 59.8522 52.0902 60.43L54.0087 62.3485L58.1494 58.2077C58.7272 57.63 59.668 57.63 60.2457 58.2077C60.8235 58.7855 60.8235 59.7263 60.2457 60.304L55.0606 65.4892C54.4828 66.067 53.542 66.067 52.9643 65.4892H52.9568Z" fill="white"/>
<path id="Vector_19" d="M28.0752 31.1114C28.8934 31.1114 29.5567 30.4481 29.5567 29.6299C29.5567 28.8117 28.8934 28.1484 28.0752 28.1484C27.257 28.1484 26.5938 28.8117 26.5938 29.6299C26.5938 30.4481 27.257 31.1114 28.0752 31.1114Z" fill="#8260FC"/>
<path id="Vector_20" d="M22.8897 31.1114C23.7079 31.1114 24.3712 30.4481 24.3712 29.6299C24.3712 28.8117 23.7079 28.1484 22.8897 28.1484C22.0715 28.1484 21.4082 28.8117 21.4082 29.6299C21.4082 30.4481 22.0715 31.1114 22.8897 31.1114Z" fill="#8260FC"/>
<path id="Vector_21" d="M59.9268 31.1114C60.745 31.1114 61.4083 30.4481 61.4083 29.6299C61.4083 28.8117 60.745 28.1484 59.9268 28.1484C59.1086 28.1484 58.4453 28.8117 58.4453 29.6299C58.4453 30.4481 59.1086 31.1114 59.9268 31.1114Z" fill="#8260FC"/>
<path id="Vector_22" d="M54.7412 31.1114C55.5594 31.1114 56.2227 30.4481 56.2227 29.6299C56.2227 28.8117 55.5594 28.1484 54.7412 28.1484C53.923 28.1484 53.2598 28.8117 53.2598 29.6299C53.2598 30.4481 53.923 31.1114 54.7412 31.1114Z" fill="#8260FC"/>
</g>
<defs>
<clipPath id="clip0_3413_15660">
<rect width="80" height="80" fill="white" transform="translate(0.667969)"/>
</clipPath>
</defs>
</svg>
