<svg width="81" height="80" viewBox="0 0 81 80" fill="none" xmlns="http://www.w3.org/2000/svg">
<g id="Image" clip-path="url(#clip0_3413_15547)">
<path id="Vector" d="M40.3339 77.037C60.7889 77.037 77.3709 60.4549 77.3709 39.9999C77.3709 19.5449 60.7889 2.96289 40.3339 2.96289C19.8789 2.96289 3.29688 19.5449 3.29688 39.9999C3.29688 60.4549 19.8789 77.037 40.3339 77.037Z" fill="#E7E9FF"/>
<path id="Vector_2" d="M2.55621 8.14855C3.78351 8.14855 4.77843 7.15362 4.77843 5.92632C4.77843 4.69902 3.78351 3.7041 2.55621 3.7041C1.32891 3.7041 0.333984 4.69902 0.333984 5.92632C0.333984 7.15362 1.32891 8.14855 2.55621 8.14855Z" fill="#FF4D69"/>
<path id="Vector_3" d="M66.2593 4.44444C67.4866 4.44444 68.4816 3.44952 68.4816 2.22222C68.4816 0.994923 67.4866 0 66.2593 0C65.032 0 64.0371 0.994923 64.0371 2.22222C64.0371 3.44952 65.032 4.44444 66.2593 4.44444Z" fill="#00C99F"/>
<path id="Vector_4" d="M78.1109 77.0372C79.3382 77.0372 80.3331 76.0423 80.3331 74.815C80.3331 73.5877 79.3382 72.5928 78.1109 72.5928C76.8836 72.5928 75.8887 73.5877 75.8887 74.815C75.8887 76.0423 76.8836 77.0372 78.1109 77.0372Z" fill="#FFA100"/>
<path id="Vector_5" d="M5.5191 80.0001C6.7464 80.0001 7.74132 79.0052 7.74132 77.7779C7.74132 76.5506 6.7464 75.5557 5.5191 75.5557C4.2918 75.5557 3.29688 76.5506 3.29688 77.7779C3.29688 79.0052 4.2918 80.0001 5.5191 80.0001Z" fill="#00C99F"/>
<path id="Vector_6" d="M40.3338 71.1109C57.516 71.1109 71.4449 57.182 71.4449 39.9998C71.4449 22.8176 57.516 8.88867 40.3338 8.88867C23.1516 8.88867 9.22266 22.8176 9.22266 39.9998C9.22266 57.182 23.1516 71.1109 40.3338 71.1109Z" fill="#988FFF"/>
<path id="Vector_7" d="M74.4077 40C74.4077 48.6889 71.1188 56.8222 65.504 62.9704C64.9336 63.6 63.9558 63.6222 63.3484 63.0222L40.3262 40H74.4002H74.4077Z" fill="#8A7FD1"/>
<path id="Vector_8" d="M77.3414 40.0001H40.334V2.9927C40.334 2.14826 41.0451 1.47419 41.8895 1.51122C61.9266 2.31122 78.0229 18.4075 78.8229 38.4446C78.8599 39.289 78.1858 40.0001 77.3414 40.0001Z" fill="#6947E2"/>
<path id="Vector_9" d="M40.334 60C51.3797 60 60.334 51.0457 60.334 40C60.334 28.9543 51.3797 20 40.334 20C29.2883 20 20.334 28.9543 20.334 40C20.334 51.0457 29.2883 60 40.334 60Z" fill="white"/>
<path id="Vector_10" d="M40.3349 55.5554C48.9259 55.5554 55.8904 48.591 55.8904 39.9999C55.8904 31.4088 48.9259 24.4443 40.3349 24.4443C31.7438 24.4443 24.7793 31.4088 24.7793 39.9999C24.7793 48.591 31.7438 55.5554 40.3349 55.5554Z" fill="#FFA100"/>
<path id="Vector_11" d="M45.8183 39.3516L41.4139 32.4809C41.0065 31.8397 39.9935 31.8397 39.5861 32.4809L35.1817 39.3516C34.9394 39.7409 34.9394 40.2333 35.1817 40.6227L39.5861 47.4933C40.0265 48.1689 40.9845 48.1689 41.4139 47.4933L45.8183 40.6227C46.0606 40.2333 46.0606 39.7409 45.8183 39.3516ZM40.5 35.1834L42.9885 39.0653L40.5 39.9241L38.0115 39.0653L40.5 35.1834ZM40.5 44.7908L38.474 41.6303L40.1476 42.2144C40.5771 42.3632 40.6652 42.2716 42.515 41.6303L40.489 44.7908H40.5Z" fill="white"/>
<path id="Vector_12" d="M15.8894 65.1851H7.00051C6.5931 65.1851 6.25977 64.8518 6.25977 64.4443C6.25977 64.0369 6.5931 63.7036 7.00051 63.7036H15.5857L19.0746 60.2147C19.3635 59.9258 19.8301 59.9258 20.119 60.2147C20.4079 60.5036 20.4079 60.9703 20.119 61.2592L16.4153 64.9629C16.2746 65.1036 16.0894 65.1777 15.8894 65.1777V65.1851Z" fill="#B8A5ED"/>
<path id="Vector_13" d="M11.445 69.6299H7.00051C6.5931 69.6299 6.25977 69.2966 6.25977 68.8892C6.25977 68.4818 6.5931 68.1484 7.00051 68.1484H11.445C11.8524 68.1484 12.1857 68.4818 12.1857 68.8892C12.1857 69.2966 11.8524 69.6299 11.445 69.6299Z" fill="#B8A5ED"/>
<path id="Vector_14" d="M67 18.5182C66.3481 18.5182 66.0074 17.7256 66.474 17.2515L70.1777 13.5478C70.3185 13.4071 70.5037 13.333 70.7037 13.333H79.5926C80 13.333 80.3333 13.6663 80.3333 14.0737C80.3333 14.4812 80 14.8145 79.5926 14.8145H71.0074L67.5185 18.3034C67.3703 18.4515 67.1851 18.5182 66.9926 18.5182H67Z" fill="#B8A5ED"/>
<path id="Vector_15" d="M79.5934 10.3702H75.1489C74.7415 10.3702 74.4082 10.0368 74.4082 9.62941C74.4082 9.22201 74.7415 8.88867 75.1489 8.88867H79.5934C80.0008 8.88867 80.3341 9.22201 80.3341 9.62941C80.3341 10.0368 80.0008 10.3702 79.5934 10.3702Z" fill="#B8A5ED"/>
</g>
<defs>
<clipPath id="clip0_3413_15547">
<rect width="80" height="80" fill="white" transform="translate(0.333984)"/>
</clipPath>
</defs>
</svg>
