<svg width="68" height="68" viewBox="0 0 68 68" fill="none" xmlns="http://www.w3.org/2000/svg">
<g id="Frame">
<path id="Vector" d="M34.1223 63C18.4004 62.9779 5.63242 49.9314 5.66804 33.9251C5.70367 17.9284 18.5228 4.96538 34.2694 5.00007C49.996 5.03476 62.6943 18.0545 62.6679 34.1144C62.6416 50.0686 49.8411 63.0205 34.1223 62.9984V63ZM51.5511 29.4817C51.4799 28.9755 51.4365 28.6144 51.3776 28.2565C50.4684 22.8039 47.6601 18.8335 42.5393 16.771C38.1929 15.0207 33.6824 14.6628 29.1176 15.6562C24.0061 16.7694 20.0625 19.6124 17.6616 24.3965C15.0702 29.5621 14.923 34.9737 16.6098 40.4342C18.0426 45.0701 21.0445 48.3751 25.4327 50.2641C30.078 52.2651 34.92 52.6025 39.8116 51.4309C44.5793 50.2893 48.193 47.5504 50.3228 42.9666C51.1066 41.2794 51.5728 39.5023 51.7819 37.6165H40.4947C40.3506 38.2093 40.2422 38.7486 40.0873 39.2753C39.3423 41.7997 37.5532 43.2819 34.9742 43.4412C34.1843 43.4901 33.3711 43.4475 32.5935 43.3056C30.5473 42.9319 28.9891 41.7903 28.2905 39.783C26.8345 35.5981 26.9088 31.3802 28.5817 27.2789C29.4383 25.1786 31.1003 23.9597 33.4036 23.7484C37.039 23.4157 39.6242 25.3236 40.2623 28.8872C40.3568 29.4186 40.6062 29.4896 41.0446 29.488C43.7475 29.4754 46.4504 29.4817 49.1549 29.4817C49.9232 29.4817 50.693 29.4817 51.5511 29.4817Z" fill="white"/>
</g>
</svg>
