<svg width="177" height="18" viewBox="0 0 177 18" fill="none" xmlns="http://www.w3.org/2000/svg">
<g id="Frame" clip-path="url(#clip0_3413_15096)">
<path id="Vector" d="M134.488 0.0153531V8.85261H136.569V0.0214944H141.148V13.5629H139.014C139.014 14.1894 139.054 14.7421 138.993 15.2825C138.972 15.4759 138.73 15.783 138.566 15.7984C137.943 15.8598 137.308 15.8229 136.615 15.8229V13.6121H134.378V11.3675H132.284V13.5568H130.077V15.7677H127.605V13.6029H125.453V0H130.019V8.83726H132.101V0.0153531H134.488Z" fill="white"/>
<path id="Vector_2" d="M15.774 13.5879H13.5673V15.7619C13.2346 15.7865 12.969 15.8264 12.7035 15.8264C9.45282 15.8295 6.20217 15.8141 2.95153 15.8418C2.31666 15.8479 2.08163 15.6606 2.14573 15.0219C2.19152 14.5767 2.15489 14.1191 2.15489 13.5879H0V11.199H4.53259V13.3822H11.0675V9.08025H2.1732V6.87247H0.012209V2.17134H2.14268V0.0126953H13.5398V2.15906C14.1411 2.15906 14.6691 2.17442 15.1941 2.15292C15.6092 2.1345 15.8046 2.27882 15.7893 2.71792C15.7679 3.29826 15.7832 3.88168 15.7832 4.52037H11.1071V2.36172H4.60279V6.68823H13.5123V8.90829C14.1319 8.90829 14.6813 8.87759 15.2246 8.92365C15.4169 8.939 15.7466 9.14166 15.7496 9.26756C15.7862 10.6862 15.774 12.1048 15.774 13.5879Z" fill="white"/>
<path id="Vector_3" d="M53.7676 6.70017H55.9438C55.9438 6.14132 55.9774 5.63466 55.9347 5.14029C55.8858 4.56609 56.0903 4.40027 56.6642 4.40641C59.6096 4.43405 62.555 4.4187 65.5004 4.4187C66.8159 4.4187 68.1284 4.4187 69.4897 4.4187V15.7861H67.3684V18.0001H56.0415C56.0018 17.9202 55.9652 17.8772 55.9621 17.8312C55.8909 16.3859 56.5624 15.6633 57.9766 15.6633H64.8747V13.5907H55.9744V11.3245H53.7676V6.6971V6.70017ZM58.4375 6.88748V11.1096H64.8778V6.88748H58.4375Z" fill="white"/>
<path id="Vector_4" d="M31.4142 4.39741V6.68195H33.6332V15.7802H29.0731V6.90918H22.5321V15.771H17.8652V0.015625H22.4802V4.39741H31.4142Z" fill="white"/>
<path id="Vector_5" d="M156.87 6.71547H159.132V15.7677H145.601V13.6274H143.379V11.1802H145.567V8.94167H154.428V6.87821H145.622V4.46777H156.867V6.71547H156.87ZM154.437 13.4002V11.3767H147.988V13.4002H154.437Z" fill="white"/>
<path id="Vector_6" d="M38.0583 15.765V13.5941H35.8516V6.73432H38.0492V4.45898H49.3547V6.68212H51.6042V13.5542H49.4036V15.762H38.0553L38.0583 15.765ZM40.491 6.88171V13.3884H46.9221V6.88171H40.491Z" fill="white"/>
<path id="Vector_7" d="M89.6261 4.41576C91.6009 4.41576 93.5055 4.41576 95.4071 4.41576C97.7695 4.41576 100.132 4.43111 102.494 4.40348C103.032 4.39734 103.224 4.56929 103.184 5.10051C103.148 5.60102 103.175 6.10767 103.175 6.68802H105.321V15.7771H100.767V6.90604H94.2441V15.7679H89.623V4.41576H89.6261Z" fill="white"/>
<path id="Vector_8" d="M71.7012 4.45508H76.2368V13.3967H82.8236V4.46122H87.4477V15.7703H73.9171V13.6178H71.7012V4.45508Z" fill="white"/>
<path id="Vector_9" d="M168.131 9.05252C168.131 11.1006 168.097 13.0075 168.149 14.9143C168.168 15.6513 167.957 15.8847 167.218 15.8478C166.007 15.7864 164.789 15.8325 163.525 15.8325C163.498 15.5684 163.458 15.3749 163.458 15.1846C163.455 11.8468 163.47 8.50902 163.44 5.17125C163.433 4.54791 163.632 4.38824 164.221 4.40667C165.485 4.44658 166.751 4.41895 168.103 4.41895V6.64822H170.173C170.173 6.08016 170.142 5.49981 170.191 4.93174C170.206 4.75365 170.435 4.44658 170.57 4.44351C172.697 4.41281 174.824 4.42202 176.998 4.42202V6.84167H170.335V9.05559H168.125L168.131 9.05252Z" fill="white"/>
</g>
<defs>
<clipPath id="clip0_3413_15096">
<rect width="177" height="18" fill="white"/>
</clipPath>
</defs>
</svg>
